SplineFontDB: 3.0
FontName: Pantaloons
FullName: Pantaloons
FamilyName: Pantaloons
Weight: Regular
Copyright: (C) Copyright 1997-2015 Terrence Curran - grilledcheese.com
Version: 2015-02-28
ItalicAngle: 0
UnderlinePosition: -113
UnderlineWidth: 20
Ascent: 800
Descent: 200
InvalidEm: 0
sfntRevision: 0x00010000
LayerCount: 3
Layer: 0 0 "Back" 1
Layer: 1 0 "Fore" 0
Layer: 2 0 "Back 2" 1
XUID: [1021 270 -1463357204 16456712]
UniqueID: 4743633
FSType: 4
OS2Version: 3
OS2_WeightWidthSlopeOnly: 0
OS2_UseTypoMetrics: 1
CreationTime: 1425182287
ModificationTime: 1425330982
PfmFamily: 81
TTFWeight: 400
TTFWidth: 5
LineGap: 0
VLineGap: 0
Panose: 0 0 0 0 0 0 0 0 0 0
OS2TypoAscent: 800
OS2TypoAOffset: 0
OS2TypoDescent: -200
OS2TypoDOffset: 0
OS2TypoLinegap: 0
OS2WinAscent: 1000
OS2WinAOffset: 0
OS2WinDescent: 0
OS2WinDOffset: 0
HheadAscent: 800
HheadAOffset: 0
HheadDescent: -200
HheadDOffset: 0
OS2SubXSize: 650
OS2SubYSize: 600
OS2SubXOff: 0
OS2SubYOff: 75
OS2SupXSize: 650
OS2SupYSize: 600
OS2SupXOff: 0
OS2SupYOff: 350
OS2StrikeYSize: 20
OS2StrikeYPos: 300
OS2CapHeight: 0
OS2XHeight: 0
OS2Vendor: 'gril'
OS2CodePages: 20000001.00000000
OS2UnicodeRanges: 00000003.00000000.00000000.00000000
Lookup: 258 0 0 "'kern' Horizontal Kerning in Latin lookup 0" { "'kern' Horizontal Kerning in Latin lookup 0 subtable"  } ['kern' ('latn' <'dflt' > ) ]
MarkAttachClasses: 1
DEI: 91125
LangName: 1033 "" "" "" "grilledcheese.com - pantaloons" "" "2015-02-28" "" "Please refer to the Copyright section for the font trademark attribution notices." "" "" "" "" "" "" "" "" "Pantaloons"
Encoding: ISO8859-1
UnicodeInterp: none
NameList: AGL For New Fonts
DisplaySize: -48
AntiAlias: 1
FitToEm: 1
WinInfo: 63 21 10
BeginPrivate: 1
BlueValues 23 [-31 1 570 598 769 785]
EndPrivate
TeXData: 1 0 0 269484 134742 89828 548405 1048576 89828 783286 444596 497025 792723 393216 433062 380633 303038 157286 324010 404750 52429 2506097 1059062 262144
BeginChars: 310 241

StartChar: Lslash
Encoding: 257 321 1
Width: 461
Flags: MW
HStem: 1 108
VStem: 99 50
LayerCount: 3
Back
Fore
SplineSet
139 765 m 0
 145 755 154 618 156 462 c 1
 257 521 l 2
 277 533 306 478 286 468 c 2
 156 406 l 1
 157 312 155 216 149 137 c 1
 169 137 230 75 327 135 c 1
 258 228 388 268 445 201 c 0
 502 134 468 1 431 1 c 0
 367 1 232 1 180 1 c 0
 158 1 122 1 107 1 c 0
 60 1 30 34 30 76 c 0
 30 118 52 154 99 154 c 1
 100 212 100 295 99 377 c 1
 3 332 l 2
 -18 322 -33 351 -13 363 c 2
 99 429 l 1
 98 523 97 612 98 656 c 1
 23 611 -43 718 33 775 c 0
 67 801 117 809 139 765 c 0
EndSplineSet
Validated: 33
Layer: 2
EndChar

StartChar: lslash
Encoding: 258 322 2
Width: 298
Flags: MW
HStem: -6 164 776 20G
VStem: 98 50
LayerCount: 3
Back
Fore
SplineSet
139 765 m 0
 145 754 152 614 154 454 c 1
 246 518 l 2
 265 530 298 477 278 466 c 2
 156 399 l 1
 156 307 154 212 148 137 c 1
 206 201 298 105 242 29 c 0
 217 -6 167 -22 133 14 c 1
 131 8 129 5 128 0 c 1
 106 0 113 0 98 0 c 1
 98 27 105 205 97 363 c 1
 6 311 l 2
 -14 300 -32 328 -13 341 c 2
 97 415 l 1
 97 520 97 612 97 649 c 1
 22 605 -43 718 33 775 c 0
 67 801 117 809 139 765 c 0
EndSplineSet
Validated: 33
Layer: 2
EndChar

StartChar: Scaron
Encoding: 259 352 3
Width: 531
Flags: MW
HStem: -6 35 409 54 496 289
VStem: 20 87 249 145
LayerCount: 3
Back
Fore
SplineSet
256 577 m 0
 234 472 368 476 397 549 c 0
 443 666 307 793 206 785 c 0
 101 777 37 633 32 504 c 0
 27 394 64 294 153 295 c 0
 212 296 236 349 271 388 c 0
 297 417 319 413 335 393 c 0
 365 358 380 273 379 221 c 0
 376 119 344 32 286 29 c 0
 262 27 234 40 202 72 c 0
 175 98 202 141 191 201 c 0
 185 241 159 260 150 260 c 0
 103 263 59 201 53 163 c 0
 50 140 70 105 77 88 c 0
 124 -17 259 -32 368 23 c 0
 481 81 526 167 526 248 c 0
 525 377 411 492 277 457 c 0
 246 449 226 417 206 391 c 0
 178 355 158 344 144 350 c 0
 105 365 114 506 148 602 c 0
 179 690 204 726 222 731 c 0
 257 740 269 640 256 577 c 0
166 905 m 2
 223 836 l 1
 278 905 l 2
 294 926 328 894 308 877 c 0
 288 861 230 814 230 813 c 0
 226 810 221 810 216 813 c 2
 139 875 l 2
 118 891 150 925 166 905 c 2
EndSplineSet
Validated: 41
Layer: 2
EndChar

StartChar: scaron
Encoding: 260 353 4
Width: 459
Flags: MW
HStem: -17 24 198 37 279 38 341 206
VStem: 7 70 191 115
LayerCount: 3
Back
Fore
SplineSet
228 399 m 0
 210 324 317 326 340 378 c 0
 377 462 269 552 188 547 c 0
 106 541 55 442 49 352 c 0
 44 271 73 197 146 198 c 0
 192 198 212 236 240 264 c 0
 260 283 276 282 290 269 c 0
 314 245 327 183 326 145 c 0
 323 41 272 -39 184 38 c 0
 163 57 187 87 176 130 c 0
 166 169 147 177 127 171 c 0
 99 163 69 126 66 103 c 0
 63 87 83 67 89 55 c 0
 127 -19 230 -36 317 4 c 0
 395 39 432 90 441 140 c 0
 459 240 361 340 245 313 c 0
 220 307 204 284 188 266 c 0
 153 225 132 229 123 254 c 0
 111 289 120 362 141 416 c 0
 170 488 191 511 207 508 c 0
 230 504 237 440 228 399 c 0
154 652 m 2
 211 583 l 1
 266 652 l 2
 282 673 316 641 296 624 c 0
 276 608 218 561 218 560 c 0
 214 557 209 557 204 560 c 2
 127 622 l 2
 106 638 138 672 154 652 c 2
EndSplineSet
Validated: 41
Layer: 2
EndChar

StartChar: Yacute
Encoding: 221 221 5
Width: 588
Flags: MW
HStem: -5 58<226 276 212 291 336 369 369 371> 547 172
VStem: 176 245<17 33> 276 61<280 280 280 324>
LayerCount: 3
Back
Fore
SplineSet
120 581 m 1xd0
 175 497 252 362 276 324 c 1
 276 239 276 110 276 53 c 1xd0
 226 53 l 2
 198 53 176 41 176 25 c 0
 176 9 198 -5 226 -5 c 2
 291 -5 l 1
 369 -5 l 2
 396 -5 421 9 421 25 c 0xe0
 421 41 398 49 371 53 c 1
 336 53 l 1
 353 151 336 209 337 280 c 1
 572 563 l 2
 651 657 460 821 409 704 c 2
 287 422 l 1
 180 620 122 700 104 710 c 0
 61 735 24 701 9 660 c 0
 -23 571 81 503 120 581 c 1xd0
144 785 m 0
 154 823 188 816 216 837 c 0
 259 868 272 935 323 921 c 0
 348 914 360 900 376 879 c 0
 434 801 131 734 144 785 c 0
EndSplineSet
Validated: 41
Layer: 2
EndChar

StartChar: yacute
Encoding: 253 253 6
Width: 549
Flags: MW
HStem: -225 40 -225 195 -225 316 -1 166
VStem: 0 184 26 127
LayerCount: 3
Back
Fore
SplineSet
150 -225 m 0
 293 -225 351 -112 383 25 c 1
 394 79 l 1
 523 163 400 12 454 0 c 0
 476 -5 506 3 520 18 c 0
 609 103 480 200 407 152 c 1
 469 570 l 2
 473 599 421 540 416 511 c 2
 351 118 l 1
 306 95 252 82 230 97 c 0
 153 151 127 298 181 485 c 1
 267 477 251 539 186 531 c 1
 111 531 101 531 56 531 c 1
 48 418 1 56 43 18 c 0
 107 -41 245 12 344 67 c 1
 336 33 l 2
 333 20 330 10 326 -2 c 0
 288 -138 173 -221 110 -169 c 1
 110 -103 157 -152 180 -94 c 0
 204 -33 127 -26 92 -31 c 0
 14 -42 -31 -100 25 -176 c 0
 59 -220 101 -225 150 -225 c 0
156 604 m 0
 166 642 200 635 228 656 c 0
 271 687 284 754 335 740 c 0
 360 733 372 719 388 698 c 0
 446 620 143 553 156 604 c 0
EndSplineSet
Validated: 41
Layer: 2
EndChar

StartChar: Thorn
Encoding: 222 222 7
Width: 129
Flags: MW
HStem: 37 598
VStem: 46 41
LayerCount: 3
Back
Fore
SplineSet
54 370 m 2
 38 589 l 2
 34 649 97 651 94 593 c 2
 81 370 l 2
 79 340 56 340 54 370 c 2
54 302 m 2
 56 332 79 332 81 302 c 2
 94 79 l 2
 97 21 34 23 38 83 c 2
 54 302 l 2
EndSplineSet
Validated: 33
Layer: 2
EndChar

StartChar: thorn
Encoding: 254 254 8
Width: 129
Flags: MW
HStem: 37 598
VStem: 46 41
LayerCount: 3
Back
Fore
SplineSet
54 370 m 2
 38 589 l 2
 34 649 97 651 94 593 c 2
 81 370 l 2
 79 340 56 340 54 370 c 2
54 302 m 2
 56 332 79 332 81 302 c 2
 94 79 l 2
 97 21 34 23 38 83 c 2
 54 302 l 2
EndSplineSet
Validated: 33
Layer: 2
EndChar

StartChar: Zcaron
Encoding: 261 381 9
Width: 663
Flags: MW
HStem: -4 20
LayerCount: 3
Back
Fore
SplineSet
304 147 m 0
 308 122 310 84 291 65 c 1
 368 65 454 43 514 39 c 1
 460 147 578 265 646 156 c 0
 678 105 687 34 630 4 c 0
 622 0 578 -3 517 -4 c 0
 372 -4 192 -4 71 -4 c 0
 31 -4 8 11 8 31 c 0
 8 76 40 69 78 69 c 1
 58 175 252 382 280 413 c 2
 280 413 416 550 522 651 c 1
 410 660 258 669 174 678 c 1
 222 567 88 490 25 604 c 0
 -4 656 -9 727 49 754 c 0
 75 765 384 760 577 706 c 1
 614 739 616 740 620 743 c 0
 631 751 649 751 651 749 c 0
 663 732 652 712 629 689 c 1
 641 685 651 680 661 675 c 1
 661 654 661 653 661 632 c 1
 651 637 620 642 581 646 c 1
 526 596 430 502 389 458 c 0
 294 356 265 311 178 209 c 1
 210 238 255 231 283 201 c 0
 298 184 301 165 304 147 c 0
267 861 m 2
 324 792 l 1
 379 861 l 2
 395 882 429 850 409 833 c 0
 389 817 331 770 331 769 c 0
 327 766 322 766 317 769 c 2
 240 831 l 2
 219 847 251 881 267 861 c 2
EndSplineSet
Validated: 33
Layer: 2
EndChar

StartChar: zcaron
Encoding: 262 382 10
Width: 534
Flags: MW
HStem: 0 20 164 299 519 20G
LayerCount: 3
Back
Fore
SplineSet
240 107 m 0
 243 89 245 62 229 49 c 1
 291 49 358 33 406 30 c 1
 364 107 457 190 511 113 c 0
 535 78 543 27 498 6 c 0
 491 3 457 1 409 0 c 0
 294 0 151 0 56 0 c 0
 24 0 6 11 6 25 c 0
 6 57 31 52 61 52 c 1
 45 127 199 273 221 295 c 2
 221 295 328 392 412 463 c 1
 324 469 204 475 137 482 c 1
 175 404 70 349 20 430 c 0
 -3 466 -7 517 38 535 c 0
 59 544 303 540 456 501 c 1
 485 525 487 526 490 528 c 0
 499 534 513 534 514 532 c 0
 524 520 515 506 497 490 c 1
 506 487 514 483 522 479 c 1
 522 465 522 464 522 449 c 1
 514 453 490 457 459 459 c 1
 415 424 340 357 307 326 c 0
 232 254 209 223 140 151 c 1
 166 171 202 169 224 145 c 0
 235 133 237 120 240 107 c 0
194 646 m 2
 251 577 l 1
 306 646 l 2
 322 667 356 635 336 618 c 0
 316 602 258 555 258 554 c 0
 254 551 249 551 244 554 c 2
 167 616 l 2
 146 632 178 666 194 646 c 2
EndSplineSet
Validated: 33
Layer: 2
EndChar

StartChar: onehalf
Encoding: 189 189 11
Width: 491
Flags: MW
HStem: -2 55 65 49 360 25<283 296> 394 29<45 79 52 79 107 138> 670 108 709 69
VStem: 68 33 206 50<97.5 103 97.5 120> 361 74<271.5 307.5> 363 84
LayerCount: 3
Back
Fore
SplineSet
-7 190 m 2x9b40
 456 667 l 2
 490 702 523 669 488 635 c 2
 11 172 l 2
 -24 137 -42 155 -7 190 c 2x9b40
161 760 m 0
 152 683 79 553 107 423 c 1
 139 423 l 2
 153 423 164 417 164 409 c 0
 164 401 152 394 138 394 c 2
 52 394 l 2
 38 394 27 401 27 409 c 0
 27 417 38 423 52 423 c 2
 79 423 l 1
 43 589 104 643 114 709 c 1
 93 674 79 661 57 677 c 0x9740
 47 685 22 698 74 741 c 0
 81 747 166 807 161 760 c 0
206 100 m 0
 206 140 233 203 298 219 c 1
 339 223 361 249 361 288 c 0
 361 327 337 359 296 360 c 0
 246 360 253 296 229 289 c 0
 170 272 180 323 201 347 c 0
 221 370 265 385 301 385 c 0
 375 385 435 343 435 291 c 0
 435 252 399 216 351 210 c 0
 306 205 254 164 256 103 c 0
 256 92 262 80 266 70 c 1xbb80
 276 70 324 35 373 65 c 1xdb40
 338 111 403 131 432 98 c 0
 460 64 443 -2 425 -2 c 2
 230 -2 l 2
 206 -2 189 15 189 36 c 0
 189 57 195 73 218 73 c 1
 209 82 206 92 206 100 c 0
EndSplineSet
Validated: 33
Layer: 2
EndChar

StartChar: onequarter
Encoding: 188 188 12
Width: 552
Flags: MW
HStem: 120 54 172 27<501 534> 177 18<417 432> 304 83 394 29<45 79 52 79 107 138> 670 108 709 69
VStem: 68 33 258 28 442 59 534 20
LayerCount: 3
Back
Fore
SplineSet
28 179 m 2x4de0
 491 656 l 2
 525 690 558 657 523 624 c 2
 46 160 l 2
 11 126 -7 143 28 179 c 2x4de0
161 760 m 0
 152 683 79 553 107 423 c 1
 139 423 l 2
 153 423 164 417 164 409 c 0
 164 401 152 394 138 394 c 2
 52 394 l 2
 38 394 27 401 27 409 c 0
 27 417 38 423 52 423 c 2
 79 423 l 1
 43 589 104 643 114 709 c 1
 93 674 79 661 57 677 c 0x4be0
 47 685 22 698 74 741 c 0
 81 747 166 807 161 760 c 0
472 295 m 2x2de0
 477 292 495 210 498 197 c 1
 518 198 534 199 534 199 c 2
 549 201 568 180 539 173 c 0
 534 172 518 172 501 172 c 1x4de0
 504 103 490 10 481 5 c 1
 426 5 l 1
 438 79 l 1
 446 99 442 136 436 175 c 1x2de0
 426 176 420 177 417 177 c 0
 400 142 375 119 347 120 c 0
 322 121 251 142 258 258 c 0
 263 333 300 357 339 381 c 0
 359 394 408 386 399 353 c 0
 389 313 374 303 356 304 c 0
 323 305 289 287 286 245 c 0
 284 203 316 175 349 174 c 0x95e0
 363 173 385 179 399 204 c 1
 413 193 418 195 432 195 c 1
 425 235 416 273 413 294 c 1
 472 295 l 2x2de0
EndSplineSet
Validated: 33
Layer: 2
EndChar

StartChar: onesuperior
Encoding: 185 185 13
Width: 197
Flags: MW
HStem: 394 29<45 79 52 79 107 138> 670 108 709 69
VStem: 68 33
LayerCount: 3
Back
Fore
SplineSet
161 760 m 0xd0
 152 683 79 553 107 423 c 1
 139 423 l 2
 153 423 164 417 164 409 c 0
 164 401 152 394 138 394 c 2
 52 394 l 2
 38 394 27 401 27 409 c 0
 27 417 38 423 52 423 c 2
 79 423 l 1
 43 589 104 643 114 709 c 1
 93 674 79 661 57 677 c 0xb0
 47 685 22 698 74 741 c 0
 81 747 166 807 161 760 c 0xd0
EndSplineSet
Validated: 33
Layer: 2
EndChar

StartChar: threequarters
Encoding: 190 190 14
Width: 548
Flags: MW
HStem: 581 123 637 141 793 10
VStem: 68 128
LayerCount: 3
Back
Fore
SplineSet
28 179 m 2xb0
 -7 143 11 126 46 160 c 2
 523 624 l 2
 558 657 525 690 491 656 c 2
 28 179 l 2xb0
466 290 m 2
 471 287 489 205 492 192 c 1
 512 193 528 194 528 194 c 2
 543 196 562 175 533 168 c 0
 528 167 512 167 495 167 c 1
 498 98 484 5 475 0 c 1
 420 0 l 1
 432 74 l 1
 440 94 436 131 430 170 c 1
 420 171 414 172 411 172 c 0
 394 137 369 114 341 115 c 0
 316 116 245 137 252 253 c 0
 257 328 294 352 333 376 c 0
 353 389 402 381 393 348 c 0
 383 308 368 298 350 299 c 0
 317 300 283 282 280 240 c 0
 278 198 310 170 343 169 c 0
 357 168 379 174 393 199 c 1
 407 188 412 190 426 190 c 1
 419 230 410 268 407 289 c 1
 466 290 l 2
56 778 m 0x70
 6 778 13 714 -11 707 c 0
 -70 690 -60 741 -39 765 c 0
 -18 788 26 803 61 803 c 0
 135 803 195 761 195 709 c 0
 195 670 162 638 114 623 c 1
 161 601 190 551 190 511 c 0
 190 459 130 416 56 416 c 0
 22 416 -10 425 -31 446 c 0
 -44 458 -77 510 -78 525 c 0
 -84 610 -10 588 -8 524 c 0
 -7 480 10 438 51 438 c 0
 93 438 119 472 120 511 c 0
 121 572 98 611 57 614 c 0
 41 615 36 635 58 637 c 0
 100 641 121 667 121 706 c 0
 121 745 97 777 56 778 c 0x70
EndSplineSet
Validated: 41
Layer: 2
EndChar

StartChar: threesuperior
Encoding: 179 179 15
Width: 259
Flags: MW
HStem: 575 123 631 141 787 10
VStem: 100 128
LayerCount: 3
Back
Fore
SplineSet
88 772 m 0
 38 772 45 708 21 701 c 0
 -38 684 -28 735 -7 759 c 0
 14 782 58 797 93 797 c 0
 167 797 227 755 227 703 c 0
 227 664 194 632 146 617 c 1
 193 595 222 545 222 505 c 0
 222 453 162 410 88 410 c 0
 54 410 22 419 1 440 c 0
 -12 452 -45 504 -46 519 c 0
 -52 604 22 582 24 518 c 0
 25 474 42 432 83 432 c 0
 125 432 151 466 152 505 c 0
 153 566 130 605 89 608 c 0
 73 609 68 629 90 631 c 0
 132 635 153 661 153 700 c 0
 153 739 129 771 88 772 c 0
EndSplineSet
Validated: 33
Layer: 2
EndChar

StartChar: twosuperior
Encoding: 178 178 16
Width: 295
Flags: MW
HStem: 400 55 467 49 762 25<104 117>
VStem: 27 50<499.5 505 499.5 522> 182 74<673.5 709.5> 184 84
LayerCount: 3
Back
Fore
SplineSet
27 502 m 0xb4
 27 542 54 605 119 621 c 1
 160 625 182 651 182 690 c 0
 182 729 158 761 117 762 c 0
 67 762 74 698 50 691 c 0
 -9 674 1 725 22 749 c 0
 42 772 86 787 122 787 c 0
 196 787 256 745 256 693 c 0
 256 654 220 618 172 612 c 0
 127 607 75 566 77 505 c 0
 77 494 83 482 87 472 c 1xb8
 97 472 145 437 194 467 c 1xf4
 159 513 224 533 253 500 c 0
 281 466 264 400 246 400 c 2
 51 400 l 2
 27 400 10 417 10 438 c 0
 10 459 16 475 39 475 c 1
 30 484 27 494 27 502 c 0xb4
EndSplineSet
Validated: 33
Layer: 2
EndChar

StartChar: brokenbar
Encoding: 166 166 17
Width: 129
Flags: MW
HStem: 37 598
VStem: 46 41
LayerCount: 3
Back
Fore
SplineSet
54 370 m 2
 38 589 l 2
 34 649 97 651 94 593 c 2
 81 370 l 2
 79 340 56 340 54 370 c 2
54 302 m 2
 56 332 79 332 81 302 c 2
 94 79 l 2
 97 21 34 23 38 83 c 2
 54 302 l 2
EndSplineSet
Validated: 33
Layer: 2
EndChar

StartChar: minus
Encoding: 263 8722 18
Width: 416
Flags: MW
HStem: 206 47
VStem: 26 348
LayerCount: 3
Back
Fore
SplineSet
43 247 m 2
 357 260 l 2
 379 261 379 199 357 200 c 2
 43 212 l 2
 20 213 20 246 43 247 c 2
EndSplineSet
Validated: 33
Layer: 2
EndChar

StartChar: multiply
Encoding: 215 215 19
Width: 384
Flags: MW
HStem: 185 133 185 288 339 134
VStem: 57 134 57 291 60 134 212 133 215 133
LayerCount: 3
Back
Fore
SplineSet
219 361 m 2x21
 300 464 l 2
 322 491 366 449 340 427 c 2
 237 343 l 2
 224 332 208 348 219 361 c 2x21
171 314 m 2x84
 185 325 201 309 190 295 c 2
 106 193 l 2
 84 166 41 211 69 233 c 2
 171 314 l 2x84
168 344 m 2x30
 66 425 l 2
 38 447 81 492 103 465 c 2
 187 363 l 2
 198 349 182 333 168 344 c 2x30
216 297 m 2x82
 205 310 221 326 234 315 c 2
 337 231 l 2
 363 209 319 167 297 194 c 2
 216 297 l 2x82
EndSplineSet
Validated: 33
Layer: 2
EndChar

StartChar: exclam
Encoding: 33 33 21
Width: 299
Flags: W
HStem: -2 156<137.031 240.106> 177.968 94.7852<203.543 244.303>
VStem: 111 163.391<488.245 719.632> 114 149<20.875 131.125>
LayerCount: 3
Back
Fore
SplineSet
203 266 m 1xe0
 214.61328125 270.703125 224.125976562 272.752929688 231.796875 272.752929688 c 0
 251.211914062 272.752929688 258.827148438 259.620117188 258.827148438 243.131835938 c 0
 258.827148438 215.323242188 237.166015625 177.967773438 213.92578125 177.967773438 c 0
 199.665039062 177.967773438 184.810546875 192.033203125 174 231 c 0
 145.2140574 337.919215371 111 504 111 620 c 4
 111 689 130.454101562 756 197 756 c 0
 250.80078125 756 274.390625 720.817382812 274.390625 654.471679688 c 0
 274.390625 559.190307001 247.289270648 460.079943753 217 347 c 0
 209 314 203 266 203 266 c 1xe0
114 76 m 0xd0
 114 119 147 154 189 154 c 0
 230 154 263 119 263 76 c 0
 263 33 230 -2 189 -2 c 0
 147 -2 114 33 114 76 c 0xd0
EndSplineSet
Validated: 1
Layer: 2
EndChar

StartChar: quotedbl
Encoding: 34 34 22
Width: 221
Flags: W
VStem: 90 20<507.002 597.5> 162 20<507.002 597.5>
LayerCount: 3
Back
Fore
SplineSet
110 517 m 2
 109 503 91 503 90 517 c 2
 83 632 l 2
 81 667 123 666 120 632 c 2
 110 517 l 2
182 517 m 2
 181 503 163 503 162 517 c 2
 155 632 l 2
 153 667 195 666 192 632 c 2
 182 517 l 2
EndSplineSet
Validated: 33
Layer: 2
EndChar

StartChar: numbersign
Encoding: 35 35 23
Width: 493
Flags: HW
HStem: 154 96<320.328 367.406> 317 35<86.3859 156 190 284 320 481.891> 318 18<431.375 483> 447 34<-6.89051 155 191 285 320 388.614> 462 19<-8 54.375> 544 96<107.594 154.672>
VStem: -6 96<269.848 316.672> 155 36<152.156 317 352 446 481 549.35> 156 18<151 203.938> 284 36<244.268 317 351 445 481 641.846> 301 18<591.043 643> 385 96<481.328 528.461>
LayerCount: 3
Back
Fore
SplineSet
13 343 m 0xc6d0
 23 348 82 351 156 352 c 1xc6d0
 156 385 155 418 155 447 c 1xd710
 81 450 15 454 -8 462 c 1
 -8 481 l 1x8f10
 155 481 l 1
 155 512 155 537 155 550 c 1
 148 546 141 544 134 544 c 0
 112 544 95 565 95 588 c 0
 95 613 122 640 151 640 c 0
 163 640 175 635 182 621 c 0
 187 611 190 554 191 481 c 1x9710
 286 481 l 1
 288 555 293 619 301 643 c 1
 319 643 l 1x8f30
 320 481 l 1x9650
 391 481 l 1
 387 488 385 495 385 502 c 0
 385 524 406 541 429 541 c 0
 455 541 481 514 481 485 c 0
 481 473 476 462 462 455 c 0
 452 450 393 447 319 446 c 1x8e30
 319 413 319 381 320 351 c 1
 395 349 460 344 483 336 c 1
 483 318 l 1xae50
 470 317 399 317 320 317 c 1
 320 284 320 258 320 244 c 1
 327 248 334 250 341 250 c 0
 363 250 380 229 380 206 c 0
 380 181 353 154 324 154 c 0
 312 154 300 159 294 172 c 0
 288 183 285 243 284 317 c 1
 252 317 219 317 190 317 c 1
 187 241 182 175 174 151 c 1
 156 151 l 1
 156 317 l 1
 124 317 98 317 84 317 c 1
 88 310 90 303 90 296 c 0
 90 274 69 257 46 257 c 0
 20 257 -6 285 -6 313 c 0
 -6 325 0 336 13 343 c 0xc6d0
191 446 m 1xc750
 191 437 191 428 191 419 c 0
 191 397 191 375 190 352 c 1
 221 352 253 352 284 351 c 1
 284 382 284 414 285 445 c 1
 254 445 223 445 191 446 c 1xc750
EndSplineSet
Validated: 1
Layer: 2
EndChar

StartChar: dollar
Encoding: 36 36 24
Width: 519
Flags: HW
HStem: -151.823 102.442<247.362 299.316> -5 33.5097<263.123 310.893> 294.991 55.6115<118.005 178.072> 408.035 58.6778<261.612 327.505> 724.943 69.385<222.725 292.792> 737.648 132.459<73.9252 153.263>
VStem: 39.633 68.3572<353.84 556.307> 41.5841 141.35<90.6568 212.354> 48.0831 156.917<781.396 844.933> 180.68 130.95<-137.435 -55.4654> 230.706 39.2789<44.4997 341.982> 312.272 145.596<525.964 670.573> 367.075 146.905<151.145 339.495>
LayerCount: 3
Back
Fore
SplineSet
42 158 m 0xf9
 42 193 87 261 132 261 c 0
 160 261 183 216 183 165 c 0xf9
 183 141 178 121 178 104 c 0
 178 91 181 81 190 72 c 0
 202 60 215 50 226 43 c 1
 229 75 231 112 231 153 c 0
 231 212 228 278 223 344 c 1
 202 318 179 296 141 295 c 0
 140 295 l 0
 70 295 40 360 40 443 c 0xfa20
 40 551 90 690 167 756 c 1
 161 768 l 1
 143 746 124 738 106 738 c 0
 74 738 48 767 48 799 c 0
 48 834 87 870 126 870 c 0xf480
 146 870 166 862 187 846 c 0
 192 843 197 820 205 781 c 1
 223 789 238 794 259 794 c 0
 346 794 458 694 458 592 c 0
 458 532 417 491 366 491 c 0
 334 491 306 510 306 551 c 0
 306 572 312 594 312 617 c 0xf890
 312 670 295 725 260 725 c 0
 249 725 236 720 222 707 c 1
 234 638 247 549 256 453 c 1
 276 462 297 467 317 467 c 0
 425 467 514 354 514 244 c 0
 514 165 470 81 356 23 c 0
 324 7 290 -3 257 -5 c 1
 254 -27 252 -35 247 -54 c 1
 255 -51 262 -49 269 -49 c 0
 295 -49 312 -72 312 -97 c 0
 312 -124 289 -152 251 -152 c 0
 219 -152 181 -135 181 -99 c 0xf848
 181 -86 186 -70 199 -51 c 0
 208 -43 214 -28 218 -6 c 1
 147 1 42 73 42 158 c 0xf9
218 422 m 1
 210 514 200 604 188 669 c 1
 177 654 165 634 152 611 c 0
 124 558 108 485 108 429 c 0xf2
 108 394 112 351 141 351 c 0
 155 351 172 363 195 391 c 0
 202 401 210 412 218 422 c 1
367 227 m 0xf028
 367 295 342 408 296 408 c 0
 286 408 274 402 261 389 c 1
 267 319 270 249 270 181 c 0
 270 128 268 76 263 29 c 1
 266 29 268 29 271 29 c 0
 330 29 367 121 367 227 c 0xf028
EndSplineSet
Validated: 1
Layer: 2
EndChar

StartChar: percent
Encoding: 37 37 25
Width: 538
Flags: HW
HStem: 29.7048 82.6<118.286 166.713> 53.0614 21.7366<367.095 413.873> 306 23.9386<367.414 413.229> 407.061 21.6324<134.985 182.851> 587.512 56.242<332.474 402.352> 649.051 47.2662<426.631 488.011> 674.68 54.1682<207.331 269.138>
VStem: 24.4142 80.4214<468.902 613.067> 45.447 65.8246<70.1064 142.568> 171.825 54.1129<643.722 674.102> 216.349 77.6913<470.388 621.759> 254.966 81.4513<116.206 266.137> 447.349 78.2363<117.678 267.546 619.144 670.658>
LayerCount: 3
Back
Fore
SplineSet
118 93 m 1x3cc8
 124 107 132 112 140 112 c 0
 156 112 173 89 173 67 c 0
 173 46 157 30 122 30 c 0
 86 30 45 50 45 89 c 0
 45 171 368 512 433 586 c 0
 440 594 444 612 444 627 c 0
 444 639 441 649 435 649 c 0xbcc8
 428 649 416 636 398 600 c 0
 394 591 388 588 380 588 c 0
 326 588 290 675 231 675 c 0
 228 675 226 673 226 671 c 0x3ac8
 226 667 231 660 245 646 c 0
 258 634 274 634 288 586 c 0
 292 572 294 558 294 545 c 0
 294 476 243 407 160 407 c 0
 94 407 24 460 24 542 c 0
 24 591 73 679 128 679 c 0
 142 679 153 671 153 663 c 0
 153 658 149 654 141 649 c 0
 116 635 105 608 105 561 c 0
 105 492 119 429 160 429 c 0
 190 429 216 477 216 534 c 0x3b28
 216 587 210 613 190 629 c 0
 177 640 172 654 172 668 c 0
 172 698 196 729 218 729 c 0x3a48
 266 729 327 644 378 644 c 0
 393 644 407 649 415 661 c 0
 432 686 456 696 476 696 c 0
 501 696 521 681 521 654 c 0
 521 586 111 232 111 107 c 0
 111 100 113 96 118 93 c 1x3cc8
255 192 m 0x7818
 255 261 307 330 390 330 c 0
 458 330 526 277 526 193 c 0
 526 124 474 53 391 53 c 0
 322 53 255 108 255 192 c 0x7818
391 75 m 0
 420 75 447 123 447 180 c 0
 447 247 424 306 389 306 c 0
 362 306 336 253 336 194 c 0
 336 127 355 75 391 75 c 0
EndSplineSet
Validated: 1
Layer: 2
EndChar

StartChar: ampersand
Encoding: 38 38 26
Width: 568
Flags: W
HStem: -165.503 136.416<153.72 235.32> -15 45<207.311 243 300 361.062> 353.064 44.5072<240.903 294.252> 357.242 29.2513<202.135 269.487> 536.771 170.488<431.076 503.214> 639.438 89.449<137.213 273.504>
VStem: 14 139.898<90.444 243.28> 37 52.8682<483.575 594.554> 411 139.976<121.024 244.952>
LayerCount: 3
Back
Fore
SplineSet
14 160 m 0xda80
 14 234 73 329 166 370 c 1
 71 397 37 434 37 506 c 0
 37 604 113 669 140 687 c 0
 186.147856115 717.19248033 221.931988957 728.886919704 248.905394542 728.886919704 c 0
 298.101847517 728.886919704 317.988843297 689.984606627 317.988843297 653.459335242 c 0
 317.988843297 621.603638104 304.027424316 589.144106826 272.995621649 589.144106826 c 0
 236.129324292 589.144106826 194.332465321 639.437874605 153.447250084 639.437874605 c 0
 120.978065549 639.437874605 89.8682494223 597.506088361 89.8682494223 557.74901347 c 0
 89.8682494223 479.942876406 173.076404597 386.493511525 235.740319095 386.493511525 c 0xd580
 250.435774875 386.493511525 267.009112017 397.571203205 279.040838652 397.571203205 c 0
 290.024740806 397.571203205 294.926366997 389.729563404 294.926366997 380.629300704 c 0
 294.926366997 368.049235603 285.559419061 353.063957475 269.94446997 353.063957475 c 0xe180
 260.207685261 353.063957475 249.363808514 357.242210568 240.485605517 357.242210568 c 0
 176.600554387 357.242210568 153.897672034 270.049312685 153.897672034 171.560586164 c 0
 153.897672034 102.551592956 185.799628498 48.2102765344 249 30 c 1
 295 271 390 602 394 622 c 0
 408.675803065 686.269896182 433.595563115 707.259074103 458.002315916 707.259074103 c 0
 500.764182344 707.259074103 536.582416795 652.296287481 536.582416795 610.466730387 c 0
 536.582416795 569.076842756 507.775720967 536.770782629 475.03347786 536.770782629 c 0
 458.634635905 536.770782629 441.248572376 544.874671936 426 564 c 1
 409 493 345 207 300 24 c 1
 378 29 411 112 411 183 c 5
 417.499637571 247.454739249 461.84401281 289.613353981 498.905547948 289.613353981 c 0
 527.039287758 289.613353981 550.976318152 265.319609648 550.976318152 208.043599426 c 0
 550.976318152 94.7737359497 449.8333138 -11.7137935076 291 -15 c 1
 271.432214759 -94.5756599806 248.303416709 -165.503015465 199.512179423 -165.503015465 c 0
 164.002789732 -165.503015465 126.574468959 -124.177843822 126.574468959 -90.0815345741 c 0
 126.574468959 -56.4696751006 156.406352904 -29.0871651531 190.116243113 -29.0871651531 c 0
 205.421099407 -29.0871651531 221.525333979 -34.731556147 236 -48 c 1
 238 -38 240 -30 243 -15 c 1
 113 -2 14 71 14 160 c 0xda80
EndSplineSet
Validated: 1
Layer: 2
EndChar

StartChar: quotesingle
Encoding: 39 39 27
Width: 157
Flags: MW
HStem: 506 152
VStem: 86 28
LayerCount: 3
Back
Fore
SplineSet
110 517 m 2
 109 503 91 503 90 517 c 2
 83 632 l 2
 81 667 123 666 120 632 c 2
 110 517 l 2
EndSplineSet
Validated: 33
Layer: 2
EndChar

StartChar: parenleft
Encoding: 40 40 28
Width: 191
Flags: HW
VStem: 44 38<223.591 486.845>
LayerCount: 3
Back
Fore
SplineSet
144 552 m 0
 120 539 82 485 82 355 c 0
 82 225 119 175 143 162 c 0
 172.348881075 145.734355067 183.817950085 124.717431404 183.817950085 106.421060569 c 0
 183.817950085 83.6872583149 166.111055007 65.1536699958 142.995130447 65.1536699958 c 0
 62.7296941051 65.1536699958 44 221.900356485 44 358 c 0
 44 493.770789411 64 648 144 648 c 4
 167 648 184.817950085 630.005862123 184.817950085 607.336474542 c 0
 184.817950085 589.157534945 173.348881075 568.265644933 144 552 c 0
EndSplineSet
Validated: 1
Layer: 2
EndChar

StartChar: parenright
Encoding: 41 41 29
Width: 207
Flags: HW
VStem: 146 39<222.142 486.711>
LayerCount: 3
Back
Fore
SplineSet
85 552 m 0
 55 568 44 589 44 607 c 0
 44 630 62 648 85 648 c 0
 165 648 185 493 185 358 c 0
 185 222 165 65 85 65 c 0
 62 65 45 83 45 106 c 0
 45 124 56 146 86 162 c 0
 109 175 146 225 146 355 c 0
 146 485 108 539 85 552 c 0
EndSplineSet
Validated: 1
Layer: 2
EndChar

StartChar: asterisk
Encoding: 42 42 30
Width: 370
Flags: W
HStem: 494 17<83 159.312 229.202 296>
VStem: 185 17<419 469.266 540.392 606>
LayerCount: 3
Back
Fore
SplineSet
199 548 m 2
 198 535 180 535 179 548 c 2
 172 664 l 2
 170 698 213 698 210 664 c 2
 199 548 l 2
166 540 m 2
 175 529 162 517 152 525 c 2
 65 602 l 2
 39 625 70 655 92 628 c 2
 166 540 l 2
152 511 m 2
 165 510 165 495 152 494 c 2
 37 484 l 2
 2 480 2 524 37 521 c 2
 152 511 l 2
155 476 m 2
 165 485 178 472 169 462 c 2
 93 375 l 2
 70 349 40 380 66 402 c 2
 155 476 l 2
230 538 m 2
 220 529 208 542 216 552 c 2
 293 638 l 2
 316 664 346 634 319 612 c 2
 230 538 l 2
238 515 m 2
 225 514 225 496 238 495 c 2
 354 488 l 2
 388 486 388 528 354 525 c 2
 238 515 l 2
231 479 m 2
 221 488 208 475 217 465 c 2
 293 378 l 2
 316 352 346 383 320 405 c 2
 231 479 l 2
202 465 m 2
 201 478 186 478 185 465 c 2
 175 350 l 2
 172 315 215 315 212 350 c 2
 202 465 l 2
EndSplineSet
Validated: 41
Layer: 2
EndChar

StartChar: plus
Encoding: 43 43 31
Width: 408
Flags: MW
HStem: 140 170 314 26<169 169> 351 170
VStem: 12 170 173 54<165 167> 188 26<297 297> 223 170
LayerCount: 3
Back
Fore
SplineSet
236 340 m 2x52
 365 355 l 2
 401 360 402 298 368 301 c 2
 236 314 l 2
 218 316 218 338 236 340 c 2x52
169 340 m 2
 186 338 186 316 169 314 c 2
 37 301 l 2
 2 298 4 360 39 355 c 2
 169 340 l 2
188 364 m 2x64
 173 494 l 2
 169 529 230 530 227 496 c 2x68
 214 364 l 2
 212 347 190 347 188 364 c 2x64
188 297 m 2x84
 190 314 212 314 214 297 c 2x84
 227 165 l 2
 230 131 169 132 173 167 c 2x88
 188 297 l 2x84
EndSplineSet
Validated: 33
Layer: 2
EndChar

StartChar: comma
Encoding: 44 44 32
Width: 169
Flags: HW
HStem: -8 120<63.8282 105.87>
VStem: 42 101.083<30.0614 101.983>
LayerCount: 3
Back
Fore
SplineSet
42 61 m 0
 43 89 65 112 93 112 c 0
 122 112 143 94 143 61 c 0
 143 43 131 28 117 19 c 0
 102 9 34 -8 29 -8 c 1
 34 -3 51 14 63 30 c 1
 50 31 42 52 42 61 c 0
EndSplineSet
Validated: 1
Layer: 2
EndChar

StartChar: hyphen
Encoding: 45 45 33
Width: 256
Flags: MW
HStem: 243 53<202 204> 253 43
VStem: 51 169
LayerCount: 3
Back
Fore
SplineSet
56 277 m 2x60
 202 296 l 2
 226 299 225 241 204 243 c 2
 56 253 l 2
 49 253 49 276 56 277 c 2x60
EndSplineSet
Validated: 33
Layer: 2
EndChar

StartChar: period
Encoding: 46 46 34
Width: 152
Flags: HW
HStem: -9 101<28.4557 110.883>
VStem: 19 101<0.117126 82.5443>
LayerCount: 3
Back
Fore
SplineSet
19 41 m 0
 19 69 42 92 70 92 c 0
 98 92 120 69 120 41 c 0
 120 13 98 -9 70 -9 c 0
 42 -9 19 13 19 41 c 0
EndSplineSet
Validated: 1
Layer: 2
EndChar

StartChar: slash
Encoding: 47 47 35
Width: 390
Flags: MW
HStem: -23 21G 566 20G
VStem: 22 395
LayerCount: 3
Back
Fore
SplineSet
388 573 m 2
 405 599 428 584 412 557 c 2
 96 22 l 2
 49 -56 -11 -24 44 58 c 2
 388 573 l 2
EndSplineSet
Validated: 33
Layer: 2
EndChar

StartChar: zero
Encoding: 48 48 36
Width: 802
Flags: HW
HStem: -6.0962 60.4619<348.907 461.77> 715 69.1073<356.386 458.48>
VStem: 18.2052 232.581<258.005 513.49> 568.091 222.836<259.257 523.33>
LayerCount: 3
Back
Fore
SplineSet
18 388 m 0
 18 586 168 784 404 784 c 0
 602 784 791 630 791 389 c 0
 791 189 643 -6 406 -6 c 0
 208 -6 18 148 18 388 c 0
407 54 m 0
 491 54 568 191 568 354 c 0
 568 546 501 715 401 715 c 0
 325 714 251 561 251 391 c 0
 251 199 306 54 407 54 c 0
EndSplineSet
Validated: 1
Layer: 2
EndChar

StartChar: one
Encoding: 49 49 37
Width: 302
Flags: W
HStem: 1 58<19.8685 123 173.876 290.785> 748 20G<238 269>
VStem: 100 66<65.3809 353.649>
LayerCount: 3
Back
Fore
SplineSet
166 181 m 0
 166 141 169 100 178 59 c 1
 243 59 l 2
 271 59 293 47 293 31 c 0
 293 15 268 1 240 1 c 2
 68 1 l 2
 40 1 18 15 18 31 c 0
 18 47 40 59 68 59 c 2
 123 59 l 1
 106 134 100 197 100 252 c 0
 100 440 177 529 192 631 c 1
 163 581 140 553 113 553 c 0
 90 553 49 578 49 607 c 0
 49 626 64 654 113 695 c 0
 123 704 215 768 261 768 c 0
 277 768 287 761 287 740 c 0
 287 603 166 402 166 181 c 0
EndSplineSet
Validated: 1
Layer: 2
EndChar

StartChar: two
Encoding: 50 50 38
Width: 529
Flags: HW
HStem: 0 233.357<386.731 490.305> 0 109.914<208.102 381.949> 1 150<42.7214 77 160.883 214.098> 576.142 21G<39.6505 111.502> 724 51<170.63 303.59>
VStem: 53 98.9366<149.711 288.594> 363 147<512.777 659.833>
LayerCount: 3
Back
Fore
SplineSet
53 205 m 0x3e
 53 284 126 412 236 442 c 0
 307 461 363 502 363 581 c 0
 363 659 315 723 232 724 c 0
 110 724 167 576 57 576 c 0
 23 576 10 596 10 620 c 0
 10 723 145 775 242 775 c 0
 390 775 510 690 510 586 c 0
 510 508 438 436 343 425 c 0
 254 414 152 335 152 216 c 0
 152 190 163 166 172 145 c 1
 186 145 239 110 302 110 c 0x5e
 329 110 357 116 386 134 c 1
 372 153 366 169 366 183 c 0
 366 215 397 233 431 233 c 0
 497 233 534 171 534 105 c 0
 534 51 513 0 490 0 c 2x9e
 100 1 l 2
 53 1 19 34 19 76 c 0
 19 118 30 151 77 151 c 1
 59 168 53 189 53 205 c 0x3e
EndSplineSet
Validated: 1
Layer: 2
EndChar

StartChar: three
Encoding: 51 51 39
Width: 566
Flags: HW
HStem: 1 43<209.777 342.964> 396 46<254.616 341.922> 576.142 21G<87.7973 159.317> 724 51<219.135 351.59>
VStem: 12.3036 139.696<169.015 289.46> 409.063 139.937<116.118 279.079> 411 147<511.967 659.833>
LayerCount: 3
Back
Fore
SplineSet
280 724 m 0xfa
 160 724 214 576 105 576 c 0
 71 576 58 595 58 619 c 0
 58 722 195 775 290 775 c 0
 438 775 558 690 558 586 c 0xfa
 558 508 492 444 397 415 c 1
 490 371 549 270 549 190 c 0
 549 86 429 1 281 1 c 0
 213 1 148 18 106 60 c 0
 73 93 12 189 12 238 c 0
 12 303 39 330 69 330 c 0
 107 330 150 286 152 217 c 0
 155 128 188 44 271 44 c 0
 358 44 409 115 409 198 c 0xfc
 409 316 363 390 282 396 c 0
 265 398 254 409 254 420 c 0
 254 430 263 440 284 442 c 0
 368 450 411 502 411 581 c 0
 411 659 363 723 280 724 c 0xfa
EndSplineSet
Validated: 1
Layer: 2
EndChar

StartChar: four
Encoding: 52 52 40
Width: 586
Flags: HW
HStem: -4 21G<343.75 447> 225.937 108.002<113.272 244.862> 332 53.1563<486.75 591.605> 556 20G<310 433.5> 593.943 166.247<130.995 247.326>
VStem: -0.000517012 63.2118<385.255 530.622> 310 119<508.493 575> 366.703 120.15<50.0257 329.806>
LayerCount: 3
Back
Fore
SplineSet
429 576 m 1xde
 438 570 475 406 480 380 c 1
 552 385 l 2
 553 385 554 385 555 385 c 0
 573 385 593 371 593 357 c 0
 593 348 585 338 562 332 c 0
 553 330 486 330 486 330 c 1
 487 317 487 303 487 289 c 0
 487 158 463 5 447 -3 c 1
 337 -4 l 1
 351 83 367 141 367 221 c 0xbd
 367 254 364 292 357 336 c 1
 337 338 324 340 318 341 c 1
 286 271 236 226 182 226 c 0
 130 226 0 267 -0 471 c 0
 0 627 91 760 209 760 c 0
 246 760 285 743 285 707 c 0
 285 624 227 594 198 594 c 0
 109 594 63 525 63 458 c 0
 63 395 104 334 186 334 c 0
 215 334 256 346 283 394 c 1
 304 377 320 376 349 376 c 1
 334 457 316 532 310 575 c 1
 429 576 l 1xde
EndSplineSet
Validated: 1
Layer: 2
EndChar

StartChar: five
Encoding: 53 53 41
Width: 617
Flags: HW
HStem: -8.68706 41.3081<242.954 357.006> 407 39.7346<254.647 352.852> 620.445 166.956<159.616 511.049>
VStem: 16.7986 84.7016<529.154 702.272> 24.1946 132.805<129.615 221.237> 420.838 160.49<137.044 312> 534.056 80.5215<564.084 714.365>
LayerCount: 3
Back
Fore
SplineSet
167 418 m 1xf2
 203 435 254 447 303 447 c 0
 438 447 581 366 581 222 c 0
 581 83 431 -9 255 -9 c 0
 137 -9 24 38 24 162 c 0
 24 220 65 244 102 244 c 0
 130 244 155 231 157 209 c 0
 167 105 235 33 305 33 c 0
 364 33 421 110 421 202 c 0xec
 421 314 372 407 300 407 c 0
 272 407 243 384 223 349 c 1
 237 333 266 309 266 283 c 0
 266 269 258 259 247 259 c 0
 220 259 143 363 124 382 c 0
 68 449 17 546 17 642 c 0
 17 762 149 787 338 787 c 0
 479 787 615 755 615 674 c 0
 615 590 543 490 529 490 c 0
 522 490 507 508 507 519 c 0
 507 537 534 547 534 581 c 0
 534 604 437 620 335 620 c 0
 221 620 102 601 102 548 c 0
 102 500 145 449 167 418 c 1xf2
EndSplineSet
Validated: 1
Layer: 2
EndChar

StartChar: six
Encoding: 54 54 42
Width: 619
Flags: W
HStem: -2 35<254.35 354.723> 407 40<257.433 354.082> 620 167<161.225 514.813>
VStem: 19 84<528.717 702> 26 168<133.221 295.32> 422 161<136.578 311.942> 535 81<565 714.5>
LayerCount: 3
Back
Fore
SplineSet
204 297 m 1xec
 198 275 194 250 194 225 c 0
 194 112 233 33 306 33 c 0
 366 33 422 109 422 201 c 0
 422 313 373 407 302 407 c 0
 273 407 246 383 225 348 c 1
 239 332 267 309 267 283 c 0
 267 269 259 259 248 259 c 0
 230 259 219 281 204 297 c 1xec
168 418 m 1
 204 435 255 447 304 447 c 0
 439 447 583 366 583 222 c 0
 583 104 464 -2 304 -2 c 0
 170 -2 26 79 26 222 c 0xec
 26 286 61 347 119 389 c 1
 66 455 19 550 19 642 c 0
 19 762 150 787 339 787 c 0
 480 787 616 755 616 674 c 0
 616 592 544 489 530 489 c 0
 521 489 509 510 509 519 c 0
 509 536 535 549 535 581 c 0
 535 604 439 620 337 620 c 0
 223 620 103 600 103 547 c 0xf2
 103 500 146 447 168 418 c 1
EndSplineSet
Validated: 1
Layer: 2
EndChar

StartChar: seven
Encoding: 55 55 43
Width: 595
Flags: HW
HStem: 236.566 86.6712<439.148 525.804> 251 85.9282<163.634 281.786> 252.28 66.72<185.943 284 439 501.224> 620.445 166.956<100.767 454.573>
VStem: 0.41838 79.5255<565.072 714.384> 512.5 84.7692<528.825 701.849>
LayerCount: 3
Back
Fore
SplineSet
490 382 m 0x3c
 486 377 467 354 439 319 c 1x3c
 463 320 483 323 501 323 c 0
 521 323 530 304 530 283 c 0
 530 260 519 237 501 237 c 0x9c
 498 237 495 237 491 239 c 0
 477 243 433 248 382 250 c 1
 285 127 157 -39 147 -51 c 0
 127 -74 105 -84 86 -84 c 0
 59 -84 39 -66 39 -39 c 0
 39 -23 46 -4 64 15 c 0
 94 48 189 149 284 252 c 1
 277 252 271 252 265 252 c 0x3c
 240 252 217 251 200 251 c 0
 171 251 157 276 157 299 c 0
 157 319 167 337 186 337 c 0x5c
 189 337 193 336 197 335 c 0
 235 326 290 321 346 319 c 1
 427 411 512 498 512 548 c 0
 512 601 393 620 279 620 c 0
 177 620 80 604 80 581 c 0
 80 549 107 535 107 518 c 0
 107 509 93 488 84 488 c 0
 74 488 0 598 0 674 c 0
 0 755 136 787 277 787 c 0
 466 787 597 762 597 641 c 0
 597 545 547 449 490 382 c 0x3c
EndSplineSet
Validated: 1
Layer: 2
EndChar

StartChar: eight
Encoding: 56 56 44
Width: 573
Flags: HW
HStem: -7.86101 31.5614<250.557 336.951> 356.347 64.3099<238.394 319.536> 723 33.5737<254.031 345.994>
VStem: 20.9676 165.104<107.822 278.613> 41.6181 154.577<495.435 652.597> 405.804 143.997<496.436 651.496> 411.85 159.485<114.759 277.493>
LayerCount: 3
Back
Fore
SplineSet
571 192 m 0xe2
 571 83 450 -8 294 -8 c 0
 161 -8 21 55 21 192 c 0xf2
 21 276 84 370 185 404 c 1
 112 430 42 484 42 571 c 0
 42 687 150 757 294 757 c 0
 414 757 550 702 550 571 c 0xec
 550 499 492 432 401 401 c 1
 487 369 571 296 571 192 c 0xe2
294 723 m 0
 245 723 196 646 196 571 c 0
 196 496 225 438 267 420 c 1
 274 420 287 421 294 421 c 0
 304 421 310 420 320 419 c 1
 365 436 406 506 406 571 c 0xec
 406 660 360 723 294 723 c 0
186 192 m 0xf2
 186 88 243 24 294 24 c 0
 353 24 412 106 412 192 c 0
 412 302 350 356 294 356 c 0
 240 356 186 301 186 192 c 0xf2
EndSplineSet
Validated: 1
Layer: 2
EndChar

StartChar: nine
Encoding: 57 57 45
Width: 558
Flags: HW
HStem: -2 43<185.863 337.272> 393 44<204.325 338.328> 721 51<203.428 345.59>
VStem: 16 130<106.792 208.462 509.02 652.275> 402.138 140.862<113.894 277.633> 405 147<509.556 655.746>
LayerCount: 3
Back
Fore
SplineSet
284 772 m 0xf8
 432 772 552 687 552 583 c 0xf4
 552 505 486 441 391 412 c 1
 484 368 543 267 543 187 c 0
 543 83 423 -2 275 -2 c 0
 207 -2 169 1 122 24 c 0
 75.6112046777 47.1943976611 19.6073253846 107.947051211 19.6073253846 165.931246555 c 0
 19.6073253846 204.996819588 48.4869198147 228.023784901 79.3334975239 228.023784901 c 0
 110.364486001 228.023784901 143.386046576 204.720671379 151 151 c 0
 162 74 181 41 265 41 c 0
 353.707474014 41 402.138101297 113.050948137 402.138101297 198.137423695 c 0
 402.138101297 314.082967793 356.449587503 393 276 393 c 0
 131 396 16 480 16 583 c 0
 16 687.591713791 154 772 284 772 c 0xf8
405 578 m 0
 405 657 357 721 274 721 c 0
 190 721 146 657 146 578 c 0
 146 500 190 437 274 437 c 0
 357 437 405 500 405 578 c 0
EndSplineSet
Validated: 1
Layer: 2
EndChar

StartChar: colon
Encoding: 58 58 46
Width: 169
Flags: W
HStem: 11 101<54.1171 136.544> 141 100<53.7539 137.562>
VStem: 45 101<20.1171 102.544 150.117 231.883>
LayerCount: 3
Back
Fore
SplineSet
45 191 m 0
 45 219 68 241 96 241 c 0
 124 241 146 219 146 191 c 0
 146 163 124 141 96 141 c 0
 68 141 45 163 45 191 c 0
45 61 m 0
 45 89 67 112 95 112 c 0
 123 112 146 89 146 61 c 0
 146 33 123 11 95 11 c 0
 67 11 45 33 45 61 c 0
EndSplineSet
Validated: 1
Layer: 2
EndChar

StartChar: semicolon
Encoding: 59 59 47
Width: 163
Flags: W
HStem: -8 21G<31.5 31.5> 141 100<53.7539 137.562>
VStem: 42 101.083<30.0614 101.983 152.293 229.707>
LayerCount: 3
Back
Fore
SplineSet
42 61 m 0
 43 89 65 112 93 112 c 0
 121.720529375 112 143.082590535 94.0836248683 143.082590535 61.4875535032 c 0
 143.082590535 43.5751025404 131.495386904 28.3793679968 117 19 c 0
 102 9 34 -8 29 -8 c 1
 34 -3 51 14 63 30 c 1
 50 31 42 52 42 61 c 0
45 191 m 0
 45 219 68 241 96 241 c 0
 124 241 146 219 146 191 c 0
 146 163 124 141 96 141 c 0
 68 141 45 163 45 191 c 0
EndSplineSet
Validated: 1
Layer: 2
EndChar

StartChar: less
Encoding: 60 60 48
Width: 318
Flags: W
HStem: 453 116.735<247.891 298.031>
VStem: 40 45<210.637 338.496>
LayerCount: 3
Back
Fore
SplineSet
256 9 m 0
 147 75 40 171 40 280 c 0
 40 361.314062759 106.975842424 569.734903394 239.150407241 569.734903394 c 4
 285.238804502 569.734903394 328.713800433 530.94332652 328.713800433 495.728957338 c 0
 328.713800433 479.258294491 319.202894669 463.570207571 296 453 c 0
 178 400 85 362 85 280 c 0
 85 200 174 128 287 60 c 0
 293.522332458 56.086600525 296.233007382 49.722849778 296.233007382 42.7200417309 c 0
 296.233007382 26.2600493507 281.257130757 6.26940739072 265.602633149 6.26940739072 c 0
 262.38912745 6.26940739072 259.147025627 7.11178462353 256 9 c 0
EndSplineSet
Validated: 1
Layer: 2
EndChar

StartChar: equal
Encoding: 61 61 49
Width: 466
Flags: W
HStem: 164 82<33.9292 142.276> 265 82<307.483 416.071>
LayerCount: 3
Back
Fore
SplineSet
45 318 m 2
 391 347 l 2
 446 352 445 262 394 265 c 2
 46 280 l 2
 29 281 28 317 45 318 c 2
404 217 m 2
 422 216 421 180 403 179 c 2
 56 164 l 2
 5 161 4 251 59 246 c 2
 404 217 l 2
EndSplineSet
Validated: 33
Layer: 2
EndChar

StartChar: greater
Encoding: 62 62 50
Width: 356
Flags: W
HStem: 453 116.735<70.8226 121.109>
VStem: 284 45<210.637 338.325>
LayerCount: 3
Back
Fore
SplineSet
113 9 m 0
 109.727093347 7.11178462353 106.390802565 6.26940739072 103.108815827 6.26940739072 c 0
 87.2255584355 6.26940739072 72.6141562634 25.9987277284 72.6141562634 42.3957787558 c 0
 72.6141562634 49.52609181 75.3771353263 56.0262811958 82 60 c 0
 195 128 284 200 284 280 c 0
 284 362 191 400 73 453 c 0
 49.7761613554 463.579748716 40.2690407808 479.286620205 40.2690407808 495.773560729 c 0
 40.2690407808 530.976074451 83.6117657813 569.734903394 129.320099892 569.734903394 c 0
 261.789360114 569.734903394 329 360.39399756 329 280 c 4
 329 171 221 75 113 9 c 0
EndSplineSet
Validated: 1
Layer: 2
EndChar

StartChar: question
Encoding: 63 63 51
Width: 624
Flags: HW
HStem: -48 170<246.183 372.247> 592.141 198.89<119.936 407.516>
VStem: 19.4224 83.5165<550.026 718.135> 213 193<-15.5015 89.5015> 236.277 76.0239<200.518 290.251> 483.118 135.032<512.187 700.642>
LayerCount: 3
Back
Fore
SplineSet
618 635 m 0xec
 618 533 574 421 504 396 c 0
 492 391 420 361 351 306 c 0
 322 282 312 263 312 246 c 0
 312 209 341 205 341 181 c 0
 341 158 321 139 298 139 c 0
 272 139 236 174 236 238 c 0
 236 279 258 311 313 357 c 0
 381 414 483 457 483 515 c 0
 483 568 340 592 229 592 c 0
 159 592 103 583 103 564 c 0
 103 536 125 528 125 517 c 0
 125 504 114 493 106 493 c 0
 92 493 19 592 19 678 c 0
 19 759 155 791 297 791 c 0
 495 791 618 767 618 635 c 0xec
213 37 m 0xf4
 213 -10 256 -48 309 -48 c 0
 362 -48 406 -10 406 37 c 0
 406 84 362 122 309 122 c 0
 256 122 213 84 213 37 c 0xf4
EndSplineSet
Validated: 9
Layer: 2
EndChar

StartChar: at
Encoding: 64 64 52
Width: 878
Flags: HW
HStem: -122 138.732<352.164 554.003> 23.4017 32.3547<654.392 758.705> 42 25<465.311 589.956> 247 34<452.697 595.419> 415.011 115.768<345.709 669.506> 706 48<357.907 574.289>
VStem: 12 99<220.764 454.244> 272.824 67.1755<383.298 480.039> 278 128<111.64 210.078> 585.91 32.0899<95.3296 135.326> 646 115<112.108 206.188> 697.076 63.7788<332.096 470.508> 842 32<206.431 431.23>
LayerCount: 3
Back
Fore
SplineSet
614 51 m 1xde68
 584 45 553 42 520 42 c 0
 386 42 278 95 278 161 c 0xbee8
 278 227 387 281 520 281 c 0
 567 281 610 274 648 262 c 1
 665 277 697 334 697 365 c 0
 697 402 599 415 506 415 c 0
 420 415 340 404 340 386 c 0
 340 366 361 355 361 343 c 0
 361 335 348 324 345 324 c 0
 333 324 273 391 273 452 c 0
 273 508 384 531 500 531 c 0
 654 531 761 517 761 424 c 0xbf58
 761 360 727 295 681 250 c 1
 730 228 761 196 761 161 c 0
 761 120 718 83 654 62 c 1
 663 58 684 56 709 56 c 0
 819 56 842 241 842 340 c 0
 842 543 680 706 477 706 c 0
 275 706 111 542 111 340 c 0
 111 150 249 17 450 17 c 0
 465 17 481 18 496 18 c 0
 553 18 582 -13 582 -47 c 0
 582 -84 549 -122 484 -122 c 0
 245 -122 12 85 12 323 c 0
 12 561 205 754 443 754 c 0
 681 754 874 561 874 323 c 0
 874 216 820 23 720 23 c 0
 674 23 627 33 614 51 c 1xde68
563 197 m 0
 581 215 591 219 602 227 c 1
 579 238 555 247 524 247 c 0
 449 247 406 208 406 158 c 0
 406 109 455 67 530 67 c 0
 556 67 571 71 592 80 c 1
 589 91 586 105 586 120 c 0
 586 130 594 135 602 135 c 0
 609 135 617 131 618 121 c 0
 619 111 619 102 620 95 c 1
 643 111 646 135 646 158 c 0
 646 178 646 192 630 207 c 1
 615 194 600 181 586 168 c 0
 580 163 575 161 570 161 c 0
 561 161 554 168 554 178 c 0
 554 184 557 191 563 197 c 0
EndSplineSet
Validated: 1
Layer: 2
EndChar

StartChar: A
Encoding: 65 65 53
Width: 597
Flags: W
HStem: -31 21G<448 494.5> -2 171<39.9084 134.884> 300 56<271.312 364> 751 20G<322.5 335>
LayerCount: 3
Back
Fore
SplineSet
398 28 m 6
 369 300 l 5
 320 300 l 6
 293 300 270 313 270 328 c 4
 270 343 293 356 320 356 c 6
 364 356 l 5
 338 634 l 5
 168 35 l 6
 162 15 127 -2 92 -2 c 4
 41 -2 16 36 16 98 c 4
 16 154 42 169 69 169 c 4
 100 169 133 150 135 147 c 5
 298 744 l 6
 303 762 316 771 329 771 c 4
 341 771 353 763 359 747 c 6
 596 115 l 6
 600 105 601 96 601 86 c 4
 601 22 524 -31 465 -31 c 4
 431 -31 403 -14 398 28 c 6
EndSplineSet
Validated: 1
Layer: 2
EndChar

StartChar: B
Encoding: 66 66 54
Width: 633
Flags: HW
HStem: -46.2728 149.116<42.1045 98.4111> -2 43<280.889 413.054> 393 44<279.678 413.98> 721 51<277.382 420.948>
VStem: 6.77689 168.223<-10.0042 56.4877> 81.8843 139.116<137.776 278.514> 91 131<509.02 655.888> 478.138 140.862<113.893 277.632> 481 146<509.556 655.746>
LayerCount: 3
Back
Fore
SplineSet
82 240 m 0xb4
 82 300 105 326 133 326 c 0
 170 326 215 281 221 212 c 1
 221 134 257 41 341 41 c 0
 429 41 478 113 478 198 c 0x75
 478 314 432 393 351 393 c 0
 207 396 91 480 91 583 c 0
 91 620 107 655 133 684 c 1
 119 726 104 756 102 765 c 1
 161 771 l 1
 167 754 173 739 177 722 c 1
 225 753 289 772 359 772 c 0
 507 772 627 687 627 583 c 0x7280
 627 505 561 441 467 412 c 1
 560 368 619 267 619 187 c 0
 619 83 499 -2 351 -2 c 0x71
 282 -2 223 21 175 57 c 1
 169 24 159 -3 149 -17 c 0
 134 -38 115 -46 96 -46 c 0
 49 -46 7 1 7 40 c 0xb9
 7 74 30 103 63 103 c 0
 74 103 86 100 99 92 c 1
 104 103 108 114 112 124 c 1
 88 161 82 194 82 240 c 0xb4
481 578 m 0x3280
 481 657 433 721 349 721 c 0
 266 721 222 657 222 578 c 0
 222 500 266 437 349 437 c 0
 433 437 481 500 481 578 c 0x3280
EndSplineSet
Validated: 1
Layer: 2
EndChar

StartChar: C
Encoding: 67 67 55
Width: 572
Flags: HW
HStem: -10.8755 58.8755<275.715 412.259> 710 60.938<286.557 395.133>
VStem: 8.93736 192.053<239.722 517.227> 457 108.462<511.073 608.14> 460 118.561<125.888 257.324>
LayerCount: 3
Back
Fore
SplineSet
330 -11 m 0xe8
 163 -11 9 150 9 379 c 0
 9 561 125 771 325 771 c 0
 414 771 500 719 549 623 c 0
 561 600 565 579 565 562 c 0
 565 521 539 498 511 498 c 0
 490 498 468 511 457 540 c 0xf0
 420 640 427 710 325 710 c 0
 263 710 201 551 201 382 c 0
 201 198 244 48 322 48 c 0
 385 48 446 50 460 188 c 0
 465 254 499 287 529 287 c 0
 555 287 579 262 579 213 c 0
 579 123 504 -11 330 -11 c 0xe8
EndSplineSet
Validated: 1
Layer: 2
EndChar

StartChar: D
Encoding: 68 68 56
Width: 585
Flags: W
HStem: -10 58<172.027 309.318> 0 21G<60 100> 646 151<49.6216 103.391> 710 62<173.835 297.273>
VStem: 109 54<255.828 657> 383 192<239.695 518.443>
LayerCount: 3
Back
Fore
SplineSet
104 657 m 1x4c
 91 649 79 646 68 646 c 0
 35 646 12 675 12 709 c 0
 12 750 58 797 106 797 c 0x6c
 126 797 143 788 154 766 c 0
 155 764 156 758 157 748 c 1
 189 764 224 772 259 772 c 0
 459 772 575 561 575 380 c 0
 575 155 423 -10 256 -10 c 0x9c
 205 -10 150 9 113 29 c 1
 108 18 103 9 97 0 c 1
 97 0 67 0 60 0 c 1
 67 14 73 32 78 51 c 1
 16 99 6 149 6 212 c 0
 6 262 30 287 56 287 c 0
 73 287 92 276 105 254 c 1
 108 303 109 354 109 403 c 0
 109 512 104 611 104 657 c 1x4c
163 298 m 0
 163 234 155 168 142 111 c 1
 168 49 214 48 263 48 c 0
 340 48 383 197 383 383 c 0
 383 551 321 710 259 710 c 0x9c
 202 710 173 700 157 663 c 1
 162 560 163 363 163 298 c 0
EndSplineSet
Validated: 1
Layer: 2
EndChar

StartChar: E
Encoding: 69 69 57
Width: 560
Flags: HW
HStem: 0 233.397<425.097 523.323> 0 107.059<181.791 413.883> 362 57<164 375.388> 643 116.204<158 428.854> 646.157 150.593<43.4224 97.4111>
VStem: 98 60<433.583 640> 109 55.3737<156 360.458> 431.128 125.23<546.58 637.119>
LayerCount: 3
Back
Fore
SplineSet
527 0 m 2x63
 111 0 l 2
 64 0 20 32 20 75 c 0
 20 117 52 156 109 156 c 1x63
 107 326 98 583 98 657 c 1
 85 649 73 646 62 646 c 0
 29 646 6 675 6 709 c 0
 6 750 52 797 100 797 c 0x6d
 120 797 137 788 148 766 c 0
 149 764 151 763 151 757 c 1
 176 757 282 759 340 759 c 0
 458 759 556 647 556 568 c 0
 556 524 527 491 454 491 c 0
 432 491 374 520 374 549 c 0
 374 579 431 603 431 623 c 0
 431 634 415 642 365 643 c 0
 352 643 183 640 158 640 c 1x35
 162 574 164 529 164 419 c 1
 327 419 l 2
 354 419 377 407 377 391 c 0
 377 375 354 362 327 362 c 2
 164 362 l 1
 164 321 164 291 164 265 c 0
 164 217 163 185 156 137 c 1
 170 133 240 107 314 107 c 0x73
 352 107 392 114 425 135 c 1
 411 154 405 170 405 184 c 0
 405 215 435 233 469 233 c 0xa3
 539 233 571 152 571 85 c 0
 571 39 555 0 527 0 c 2x63
EndSplineSet
Validated: 1
Layer: 2
EndChar

StartChar: F
Encoding: 70 70 58
Width: 520
Flags: HW
HStem: 0 58<29.8685 105 158 270.785> 362 57<164 375.388> 643 116.204<158 429.879>
VStem: 94 64<431.995 640> 108.08 60.2598<59.8233 361.067> 431.128 125.336<550.35 638.224>
LayerCount: 3
Back
Fore
SplineSet
94 658 m 1xf4
 82 650 70 647 59 647 c 0
 28 647 5 675 5 708 c 0
 5 744 57 799 101 799 c 0
 115 799 151 785 151 757 c 1
 176 757 282 759 340 759 c 0
 460 759 556 667 556 573 c 0
 556 527 527 491 453 491 c 0
 429 491 374 518 374 551 c 0
 374 581 431 603 431 623 c 0
 431 634 415 642 365 643 c 0
 352 643 183 640 158 640 c 1xf4
 162 574 164 529 164 419 c 1
 327 419 l 2
 354 419 377 407 377 391 c 0
 377 375 354 362 327 362 c 2
 164 362 l 1
 164 304 168 242 168 183 c 0xec
 168 140 166 97 158 58 c 1xf4
 223 58 l 2
 251 58 273 45 273 30 c 0
 273 14 248 0 220 0 c 0
 78 0 220 0 78 0 c 0
 50 0 28 14 28 30 c 0
 28 45 50 58 78 58 c 2
 105 58 l 1
 107 88 108 126 108 169 c 0xec
 108 340 94 582 94 658 c 1xf4
EndSplineSet
Validated: 1
Layer: 2
EndChar

StartChar: G
Encoding: 71 71 59
Width: 701
Flags: HW
HStem: -11 59<275.887 411.279> 274 109<437.622 555.5> 710 61<286.727 395.329>
VStem: 9 192<238.426 517.969> 328 67<166.089 265.94> 457 108<509.905 608.018>
LayerCount: 3
Back
Fore
SplineSet
330 -11 m 0
 163 -11 9 150 9 379 c 0
 9 561 125 771 325 771 c 0
 414 771 565 691 565 562 c 0
 565 521 539 498 511 498 c 0
 490 498 468 511 457 540 c 0
 420 640 427 710 325 710 c 0
 263 710 201 551 201 382 c 0
 201 198 244 48 322 48 c 0
 385 48 446 50 460 188 c 0
 463 226 475 252 490 268 c 1
 476 272 462 274 450 274 c 0
 417 274 395 259 395 226 c 0
 395 213 407 194 407 175 c 0
 407 163 380 155 358 155 c 0
 329 155 328 165 328 191 c 0
 328 307 427 383 533 383 c 0
 578 383 711 352 711 273 c 0
 711 231 680 167 660 167 c 0
 657 167 655 168 653 170 c 0
 630 194 603 214 577 230 c 1
 577 230 579 210 579 197 c 0
 579 117 497 -11 330 -11 c 0
EndSplineSet
Layer: 2
EndChar

StartChar: H
Encoding: 72 72 60
Width: 518
Flags: W
HStem: -4 164<141.268 229.879 415.656 495.14> 393 54<21.3144 85 140 329> 758 20G<73.5 112 310.5 359.5>
VStem: -4 144<632.538 739.199> 85 173<23.8371 132.215> 85 55<137 393 447 629> 250 165<638.321 752.855> 329 195<25.25 138.547> 329 86<0 16 139 394 447 638>
LayerCount: 3
Back
Fore
SplineSet
71 447 m 2xe4
 85 447 l 1
 85 629 l 1xe4
 73 622 62 619 52 619 c 0
 19 619 -4 650 -4 685 c 0xf0
 -4 733 46 778 101 778 c 0
 123 778 140 769 140 745 c 0
 140 722 140 447 140 447 c 1
 329 447 l 1
 329 638 l 1xe480
 316 630 304 626 294 626 c 0
 266 626 250 654 250 687 c 0
 250 740 280 783 341 783 c 0
 378 783 415 763 415 702 c 2xe2
 415 139 l 1xe080
 429 154 443 160 458 160 c 0
 492 160 524 125 524 83 c 0xe1
 524 45 489 -4 455 -4 c 0
 442 -4 429 2 415 16 c 1
 415 0 l 1
 329 0 l 1
 329 394 l 1
 140 393 l 1
 140 137 l 1xe480
 153 152 169 158 184 158 c 0
 222 158 258 120 258 77 c 0xe8
 258 34 218 -6 178 -6 c 0
 162 -6 146 0 133 14 c 1
 124 0 l 1
 85 0 l 1
 85 393 l 1
 71 393 l 2
 43 393 20 404 20 419 c 0
 20 435 43 447 71 447 c 2xe4
EndSplineSet
Layer: 2
EndChar

StartChar: I
Encoding: 73 73 61
Width: 573
Flags: HW
HStem: 1 175.25<424.053 525.306> 1 117<135.039 256 322 424> 602.124 173.876<56.1582 156.884> 660 116<157 256 322.036 445.347>
VStem: 7.13742 157.598<634.513 712.926> 9.48025 125.083<123.606 210.669> 256 66<118 660> 416.265 160.485<55.875 143.779> 445.744 125.72<567.001 653.455>
LayerCount: 3
Back
Fore
SplineSet
322 118 m 1x5a80
 424 118 l 1x5a80
 419 128 416 137 416 144 c 0
 416 166 436 176 462 176 c 0
 518 176 577 124 577 56 c 0
 577 37 569 20 547 10 c 0
 538 5 523 1 493 1 c 2x83
 200 1 l 2
 96 1 9 109 9 188 c 0
 9 234 39 270 112 270 c 0
 137 270 192 244 192 210 c 0
 192 180 135 158 135 138 c 0
 135 127 151 119 200 118 c 0
 205 118 256 118 256 118 c 1
 256 660 l 1
 157 660 l 1x57
 162 650 165 642 165 635 c 0
 165 614 144 602 118 602 c 0
 67 602 7 648 7 713 c 0
 7 732 15 750 34 768 c 0
 39 772 53 776 81 776 c 0x2a
 163 776 303 776 380 776 c 0
 485 776 571 669 571 590 c 0
 571 544 542 508 469 508 c 0
 443 508 389 534 389 568 c 0
 389 598 446 620 446 639 c 0
 446 650 429 658 380 659 c 0
 372 659 322 661 322 661 c 1
 322 118 l 1x5a80
EndSplineSet
Layer: 2
EndChar

StartChar: J
Encoding: 74 74 62
Width: 550
Flags: HW
HStem: -8.42811 122.44<202.224 271.532> 601.12 174.88<56.9688 156.523> 658 118<157 283 345 441.578>
VStem: 7.13742 157.598<632.602 712.926> 16.3881 193.953<218.809 293.371> 283 62<431.524 658> 290.745 54.2548<133.677 557.195> 445.744 125.776<567.095 653.043>
LayerCount: 3
Back
Fore
SplineSet
345 658 m 1xb5
 345 658 345 454 345 323 c 0
 345 176.117595342 324.873458364 -8.42810629172 214.194112363 -8.42810629172 c 0
 170.794601712 -8.42810629172 139.900433713 7.75701457815 36 186 c 0
 23.1236686403 208.175904008 16.3880746615 231.11940019 16.3880746615 252.359545752 c 0
 16.3880746615 289.040458787 43.8299984881 337.705462274 98.9508106455 337.705462274 c 0
 145.087313242 337.705462274 210.341013839 289.345149353 210.341013839 250.463692991 c 0
 210.341013839 232.965141449 197.124275238 217.386474423 163 209 c 1
 194.467442416 149.7241201 205.58464285 114.011678284 232.014805808 114.011678284 c 0
 241.701242101 114.011678284 253.444457212 118.808437484 269 129 c 0
 285.984793731 139.727238146 290.745159283 234.406007496 290.745159283 341.037703928 c 0xab
 290.745159283 477.0509932 283 632.511806643 283 658 c 1
 157 658 l 1xa5
 162.355077993 648.30985887 164.73517558 639.838972004 164.73517558 632.601848741 c 0
 164.73517558 611.7297185 144.938312616 601.119625033 119.614911098 601.119625033 c 0
 68.3200595262 601.119625033 7.13742371463 647.281056345 7.13742371463 712.925665391 c 0
 7.13742371463 731.720367007 14.6400274113 749.715581444 34 768 c 0
 39 772 53 775 81 776 c 2xd5
 381 776 l 2
 484.858954153 776 571.519754037 668.989262323 571.519754037 590.112798165 c 0
 571.519754037 544.077087759 541.999674445 507.625018338 469.149518827 507.625018338 c 0
 443.36021349 507.625018338 389 534 389 568 c 4
 389 598 445.743704899 619.740398553 445.743704899 638.799991849 c 0
 445.743704899 649.439260397 429.285866622 656.73625983 380 658 c 0
 372 658 345 658 345 658 c 1xb5
EndSplineSet
Layer: 2
EndChar

StartChar: K
Encoding: 75 75 63
Width: 484
Flags: HW
HStem: 0 47<280.467 340.41> 645.231 151.024<33.8932 97.4151> 752.737 20G<374.734 409.888>
VStem: 98 58<152.875 316 358.274 404.557 487 651.936> 98 30<0 72.9358> 342.277 125.893<31.3073 113.364>
LayerCount: 3
Back
Fore
SplineSet
139 765 m 0xcc
 145 755 150 632 153 487 c 1
 204 570 266 670 317 739 c 0
 335 763 362 773 388 773 c 0
 432 773 475 745 475 711 c 0
 475 699 469 685 456 672 c 2
 211 442 l 1
 284 360 468 137 468 42 c 0
 468 20 459 5 436 0 c 1
 418 0 351 0 330 0 c 0
 321 0 312 0 304 0 c 0
 288 0 280 11 280 23 c 0
 280 35 288 47 304 47 c 0
 312 47 322 47 334 47 c 1
 340 60 342 75 342 92 c 0
 342 200 234 369 189 419 c 1
 177 404 166 390 156 377 c 1xb4
 156 220 149 62 128 0 c 1
 106 0 112 0 98 0 c 1xac
 98 38 98 191 98 316 c 1
 92 311 90 307 86 303 c 0
 76 295 68 292 63 292 c 0
 56 292 53 298 53 305 c 0
 53 312 56 321 61 329 c 0
 66 339 78 363 98 396 c 1xb4
 98 477 98 547 98 597 c 0
 98 622 98 642 98 656 c 1
 86 649 73 645 62 645 c 0
 26 645 -1 677 -1 713 c 0
 -1 753 44 796 90 796 c 0
 110 796 128 787 139 765 c 0xcc
EndSplineSet
Layer: 2
EndChar

StartChar: L
Encoding: 76 76 64
Width: 447
Flags: HW
HStem: 1 233<327.887 431.398> 1 108<166.925 319.591> 645 151<33.9805 97.3965>
VStem: 98 58<154 593.906> 100 49<154 371.063>
LayerCount: 3
Back
Fore
SplineSet
98 656 m 1x70
 86 649 73 645 62 645 c 0
 26 645 -1 677 -1 713 c 0
 -1 752.598612756 44.232827693 796 90 796 c 0
 110 796 128 787 139 765 c 0
 146 753 156 565 156 375 c 0x70
 156 291 154 207 149 137 c 1
 162 137 195 109 244 109 c 0x68
 268 109 295 115 327 135 c 1
 313 154 307 170 307 184 c 0
 307 216 338 234 372 234 c 0
 437.658581895 234 475 171.465505356 475 106 c 0
 475 52 454 1 431 1 c 2xa8
 107 1 l 2
 60 1 30 34 30 76 c 0
 30 118 52 154 99 154 c 1
 100 183 100 218 100 255 c 0x68
 100 372 98 516 98 605 c 0
 98 625 98 642 98 656 c 1x70
EndSplineSet
Layer: 2
EndChar

StartChar: M
Encoding: 77 77 65
Width: 629
Flags: HW
HStem: -28.9044 21G<540.228 583.69> 0 58<15.2083 87 125 204.785> 637.707 142.958<32.8602 87.1672>
VStem: 87 38<58 256.781> 88 51.08<264.464 512> 430.93 153.07<665.419 764.499> 475 153.974<6.70054 93.4387> 475 111.678<105.577 583>
LayerCount: 3
Back
Fore
SplineSet
295 429 m 1xe8
 475 660 l 1xe9
 473 659 471 659 469 659 c 0
 448 659 431 688 431 719 c 0
 431 750 453 795 505 795 c 0
 543 795 583 762 584 694 c 0xe4
 584 684 587 530 587 381 c 0xe1
 587 257 585 136 578 104 c 1
 580 105 582 105 584 105 c 0
 607 105 629 72 629 38 c 0
 629 9 608 -29 560 -29 c 0
 521 -29 476 8 475 75 c 0xe2
 475 85 475 583 475 583 c 1
 417 511 349 431 310 383 c 1
 315 387 320 388 326 388 c 0
 352 388 384 352 384 313 c 0
 384 282 355 242 313 242 c 0
 283 242 249 262 228 309 c 0
 220 326 139 512 139 512 c 1
 139 512 139 498 139 475 c 0xe9
 139 383 138 144 125 58 c 1
 157 58 l 2
 185 58 207 46 207 30 c 0
 207 14 182 0 154 0 c 2
 63 0 l 2
 36 0 13 14 13 30 c 0
 13 45 35 58 62 58 c 2
 87 58 l 1xf0
 88 643 l 1
 83 639 78 638 72 638 c 0
 45 638 12 673 12 712 c 0
 12 743 41 781 83 781 c 0
 116 781 153 760 174 713 c 0
 179 701 295 429 295 429 c 1xe8
EndSplineSet
Layer: 2
EndChar

StartChar: N
Encoding: 78 78 66
Width: 511
Flags: W
HStem: -18.1187 143.996<430.657 483.757> 0 58<29.8685 98 141 226.288> 721 58<284.55 391 430 485.132>
VStem: 25.122 163.878<662.156 746.589> 94.7987 60.7404<139.039 512> 98 43<58 267.38> 350 158.313<14.2007 98.4125> 375.812 61.2986<269.584 507.755> 391 39<522.519 721>
LayerCount: 3
Back
Fore
SplineSet
430 120 m 1x6080
 436.524814745 124.045385142 443.407244432 125.876963496 450.273949662 125.876963496 c 0
 479.435164821 125.876963496 508.312790513 92.8445788132 508.312790513 56.0546560601 c 0
 508.312790513 24.4034834241 478.228008108 -18.1186973361 434.954660672 -18.1186973361 c 0
 404.533477947 -18.1186973361 370.902002391 1.80193008454 350 49 c 0
 342 66 223 343 154 512 c 1
 154.906508438 464.559391757 155.539097693 414.196978901 155.539097693 364.030432061 c 0xaa
 155.539097693 248.175754772 152.165288332 133.365696241 141 58 c 1
 183 58 l 2
 210 58 228 45 228 29 c 0
 228 14 208 0 180 0 c 2
 144 0 l 1
 77 0 l 2
 50 0 28 14 28 30 c 0
 28 45 50 58 78 58 c 2
 98 58 l 1x64
 97.13962039 181.894663844 94.7987346332 459.021713872 94.7987346332 591.312581616 c 0x68
 94.7987346332 612.780434095 94.86037961 630.434164903 95 643 c 1
 90.358515586 639.362079784 85.103304565 637.706968605 79.6094428007 637.706968605 c 0
 54.7992346296 637.706968605 25.12195018 671.461534976 25.12195018 708.789805185 c 0
 25.12195018 740.603469603 54.1966210851 780.665008781 97.5259337444 780.665008781 c 0
 130.325274866 780.665008781 167.826545452 760.128011736 189 713 c 0
 194 701 307 437 377 267 c 1
 376.25 306.25 375.8125 347.5625 375.8125 389.125 c 0x71
 375.8125 513.8125 379.75 640.75 391 721 c 1
 333 721 l 2
 305 721 283 734 283 750 c 0
 283 766 305 778 333 778 c 2
 395 779 l 1
 437 779 l 2
 465 779 487 766 487 750 c 0
 487 734 462 721 435 721 c 2
 430 721 l 1x6080
 430 625 437.111111111 432.555555556 437.111111111 286.481481481 c 0x61
 437.111111111 213.444444444 435.333333333 152 430 120 c 1x6080
EndSplineSet
Layer: 2
EndChar

StartChar: O
Encoding: 79 79 67
Width: 573
Flags: HW
HStem: -1.40956 60.7752<237.581 324.693> 720 69.4096<250.112 325.963>
VStem: 3.4061 169.652<232.562 523.851> 403.838 162.388<229.149 519.452>
LayerCount: 3
Back
Fore
SplineSet
3 378 m 3
 3 556 110 789 284 789 c 3
 458 789 566 556 566 378 c 3
 566 175 458 -1 284 -1 c 3
 114 -1 3 175 3 378 c 3
284 59 m 0
 345 59 404 200 404 378 c 0
 404 556 358 720 284 720 c 0
 228 720 173 556 173 378 c 0
 173 200 208 59 284 59 c 0
EndSplineSet
Layer: 2
EndChar

StartChar: P
Encoding: 80 80 68
Width: 560
Flags: HW
HStem: 0 57<12.5503 102 146 254.318> 307.162 38.4745<206.263 321.136> 645.231 151.024<33.8932 97.4151> 739 31.8751<221.963 310.83>
VStem: 12.4829 141.313<409.481 522.903> 102 44<57 266.317> 103.155 50.8453<108.731 323 523 653.812> 403.806 149.047<457.607 634.991>
LayerCount: 3
Back
Fore
SplineSet
553 545 m 0xd9
 553 417 422 307 253 307 c 0
 217 307 184 313 154 323 c 1xd3
 153 221 153 124 146 57 c 1
 206 57 l 2
 234 57 256 44 256 28 c 0
 256 13 232 0 204 0 c 2
 61 0 l 2
 33 0 11 13 11 28 c 0
 11 44 33 57 61 57 c 2
 102 57 l 1xd5
 103 84 103 120 103 160 c 0xd3
 103 215 103 280 102 346 c 1xd5
 62 371 12 417 12 476 c 0
 12 514 41 535 67 535 c 0
 78 535 89 531 97 523 c 1
 97 557 97 639 98 656 c 1
 86 649 73 645 62 645 c 0
 26 645 -1 677 -1 713 c 0
 -1 753 44 796 90 796 c 0xe9
 110 796 128 787 139 765 c 0
 141 763 143 754 144 740 c 1
 187 761 232 771 277 771 c 0
 415 771 553 685 553 545 c 0xd9
262 739 m 0
 222 739 175 686 156 622 c 1
 156 584 154 544 154 501 c 0xd9
 154 494 154 486 154 479 c 1
 166 389 199 352 259 346 c 0
 261 346 264 346 266 346 c 0
 330 346 404 427 404 525 c 0
 404 642 336 739 262 739 c 0
EndSplineSet
Layer: 2
EndChar

StartChar: Q
Encoding: 81 81 69
Width: 575
Flags: HW
HStem: -117.669 133.483<497.24 555.687> -1.40956 57.4096<243.31 321.112> 278.705 142.414<227.908 281.782> 718 71.4096<243.301 319.674>
VStem: 3.4061 165.594<247.219 546.149> 206.197 144.803<302.527 389.524> 395 169.552<268.86 549.019> 430 147.169<-86.8513 -12.0047>
LayerCount: 3
Back
Fore
SplineSet
388 266 m 1x7e
 392 301 395 338 395 377 c 0
 395 554 344 718 282 718 c 0
 220 718 169 554 169 377 c 0
 169 200 220 56 282 56 c 0
 307 56 330 80 349 120 c 1
 329 169 306 226 282 284 c 1
 277 280 272 279 266 279 c 0
 240 279 206 314 206 352 c 0
 206 381 235 421 274 421 c 0
 301 421 330 401 351 354 c 0
 352 350 371 306 388 266 c 1x7e
565 407 m 0
 565 283 522 157 460 80 c 1
 470 55 486 36 497 10 c 1
 502 14 508 16 515 16 c 0
 542 16 577 -16 577 -52 c 0
 577 -80 545 -118 508 -118 c 0
 480 -118 451 -99 430 -53 c 0xbd
 428 -46 405 -8 387 33 c 1
 358 16 327 -1 285 -1 c 0
 134 -1 3 175 3 395 c 0
 3 581 100 789 285 789 c 0
 429 789 565 623 565 407 c 0
EndSplineSet
Layer: 2
EndChar

StartChar: R
Encoding: 82 82 70
Width: 574
Flags: HW
HStem: -26.6744 21G<479.215 515.887> -1 58<15.6331 99 146 246.712> 306.683 38.8553<205.735 296.909> 645.231 151.024<33.8932 97.4151> 739 31.8751<221.963 318.977>
VStem: 19.2237 134.572<400.844 519.028> 99 47<57 266.317> 102.375 51.625<105.014 323 523 653.812> 409 157.78<5.07269 88.7266> 427.355 125.997<455.697 628.134>
LayerCount: 3
Back
Fore
SplineSet
553 543 m 0xec40
 553 457 496 378 401 337 c 1
 406 325 427 279 498 109 c 1
 503 113 508 114 514 114 c 0
 538 114 567 82 567 46 c 0
 567 15 537 -27 494 -27 c 0
 464 -27 430 -7 409 40 c 0
 402 58 363 141 294 309 c 1
 280 307 267 307 254 307 c 0
 218 307 185 313 154 323 c 1xe980
 153 221 153 124 146 57 c 1
 206 57 l 2
 234 57 248 43 248 27 c 0
 248 11 230 0 202 -1 c 2
 60 -1 l 2
 33 0 14 13 14 28 c 0
 14 44 33 57 61 57 c 2
 99 57 l 1xea
 101 107 102 182 102 263 c 0xe9
 102 290 102 318 102 346 c 1
 64 369 19 402 19 461 c 0
 19 501 45 534 72 534 c 0
 81 534 89 530 97 523 c 1
 97 557 97 639 98 656 c 1
 86 649 73 645 62 645 c 0
 26 645 -1 677 -1 713 c 0
 -1 753 44 796 90 796 c 0xf4
 110 796 128 787 139 765 c 0
 141 763 143 754 144 740 c 1
 187 761 232 771 277 771 c 0
 416 771 553 684 553 543 c 0xec40
156 622 m 1
 156 584 154 544 154 501 c 0
 154 399 198 346 268 346 c 0
 333 346 427 409 427 517 c 0xec40
 427 664 335 739 262 739 c 0
 222 739 175 686 156 622 c 1
EndSplineSet
Layer: 2
EndChar

StartChar: S
Encoding: 83 83 71
Width: 523
Flags: HW
HStem: -8.29001 37.0912<231.721 323.653> 294.993 53.4606<128.108 187.055> 408.877 54.4833<270.62 337.5> 731.568 53.7914<198.077 248.382>
VStem: 31.5557 86.8543<367.392 576.837> 52.6957 141.09<81.785 212.23> 261.106 145.111<543.308 673.539> 379.047 146.953<163.192 340.286>
LayerCount: 3
Back
Fore
SplineSet
256 577 m 0xfa
 259.415902743 593.553990217 261.105712062 612.662598703 261.105712062 631.677085702 c 0
 261.105712062 681.951566425 249.292617999 731.568064043 226.337094457 731.568064043 c 0
 203.303310717 731.568064043 178.851886819 689.57954968 148 602 c 0
 129.506958492 549.78435339 118.40995038 484.255846668 118.40995038 432.930422293 c 0xfa
 118.40995038 388.510714349 125.267830633 348.453198876 151.655296778 348.453198876 c 0
 165.018169813 348.453198876 182.751459127 361.109018878 206 391 c 0
 237.668991139 432.169688481 257.944434799 463.360167617 325.591622634 463.360167617 c 0
 437.452750979 463.360167617 525.12359124 361.056730008 526 248 c 0
 526 139.563151064 407.019857963 -8.29000772445 241.09860377 -8.29000772445 c 0
 153.346619788 -8.29000772445 52.6956824281 56.6353208576 52.6956824281 158.082125903 c 0
 52.6956824281 198.410633183 102.600798223 260.104966689 146.698457593 260.104966689 c 0
 159.379712348 260.104966689 184.656389226 243.290738491 191 201 c 0
 193.058361885 189.772571537 193.786141632 179.140403505 193.786141632 169.103495902 c 0
 193.786141632 144.867831967 189.542780863 124.102867465 189.542780863 106.808602396 c 0
 189.542780863 58.2884334027 258.38085196 28.801169658 281.189518851 28.801169658 c 0
 343.886611079 28.801169658 379.046905562 120.802522725 379.046905562 225.974098639 c 0xf5
 379.046905562 278.26877442 364 359 335 393 c 4
 327 403 317.694065213 408.876915529 307.079274092 408.876915529 c 0
 296.2452285 408.876915529 284.132888705 402.648222017 271 388 c 0
 235.912523451 348.902526131 211.766880928 294.99256318 151.679095878 294.99256318 c 0
 68.8639932447 294.99256318 31.5556583028 383.069621959 31.5556583028 484.618001499 c 0
 31.5556583028 623.243692029 96.889980516 785.35942034 215.214678865 785.35942034 c 0
 300.858554834 785.35942034 406.216316402 694.886369227 406.216316402 597.513487459 c 0
 406.216316402 537.240009396 365.840990311 495.945079556 314.458756833 495.945079556 c 0
 282.265423395 495.945079556 253.572365107 514.386709786 253.572365107 555.13093318 c 0
 253.572365107 561.814769846 254.344505743 569.098777408 256 577 c 0xfa
EndSplineSet
Layer: 2
EndChar

StartChar: T
Encoding: 84 84 72
Width: 586
Flags: HW
HStem: 1 58<169.947 268 326 410.785> 601.624 174.376<56.5629 156.388> 659 117<157 276 331 445.347>
VStem: 7.13742 157.598<633.557 712.926> 268 73.8288<61.3176 298.515> 276 55<442.693 659> 445.744 125.72<566.765 652.778>
LayerCount: 3
Back
Fore
SplineSet
331 659 m 1xb6
 332 618 342 439 342 282 c 0
 342 192 338 108 326 59 c 1
 363 59 l 2
 391 59 413 46 413 31 c 0
 413 15 389 1 361 1 c 2
 219 1 l 2
 191 1 168 15 168 31 c 0
 168 46 191 59 218 59 c 2
 268 59 l 1xba
 275 142 276 575 276 660 c 1
 238 660 197 659 157 659 c 1xb6
 162 649 165 641 165 634 c 0
 165 613 145 602 119 602 c 0
 68 602 7 648 7 713 c 0
 7 750 26 774 81 776 c 0xd6
 100 776 169 776 256 776 c 0
 284 776 335 776 380 775 c 0
 485 775 571 669 571 590 c 0
 571 544 542 508 469 508 c 0
 443 508 389 534 389 568 c 0
 389 598 447 620 446 639 c 0
 445 656 374 659 331 659 c 1xb6
EndSplineSet
Layer: 2
EndChar

StartChar: U
Encoding: 85 85 73
Width: 540
Flags: HW
HStem: -10 87<154.95 298.615> 17 203<421.027 514.986> 611 157<151.188 181.936 306.794 373.438>
VStem: 35 114<101.704 612> 36 181<622.654 734.286> 374 56<249.9 619.022>
LayerCount: 3
Back
Fore
SplineSet
339 123 m 0xb4
 350 133 372 171 372 207 c 0
 372 252 374 522 374 622 c 1
 362 615 351 612 340 612 c 0
 304 612 276 646 276 684 c 0
 276 726 319 769 367 769 c 0
 387 769 405 760 416 738 c 0
 422 727 430 611 430 470 c 0
 430 386 427 294 420 210 c 1
 436 217 451 220 464 220 c 0
 516 220 544 173 544 122 c 0
 544 65 515 17 452 17 c 0x74
 424 17 396 26 378 44 c 1
 349 8 301 -10 250 -10 c 0
 148 -10 36 73 35 195 c 0xb4
 35 240 34 506 34 535 c 0
 34 622 36 661 36 680 c 0
 38 736 80 768 119 768 c 0
 134 768 150 763 166 756 c 0
 202 740 217 707 217 677 c 0xac
 217 642 197 611 163 611 c 0
 159 611 155 611 151 612 c 1
 151 542 149 147 149 123 c 0
 149 89 174 77 207 77 c 0
 255 77 318 103 339 123 c 0xb4
EndSplineSet
Layer: 2
EndChar

StartChar: V
Encoding: 86 86 74
Width: 599
Flags: HW
HStem: -16.4089 21G<311.627 324.136> 586.284 170.9<28.1851 123.933>
VStem: 388 202.391<657.459 727.217>
LayerCount: 3
Back
Fore
SplineSet
327 121 m 1
 388 727 l 2
 392 769 420 786 454 786 c 0
 513 786 590 733 590 669 c 0
 590 659 589 650 585 640 c 2
 348 8 l 2
 342 -8 330 -16 318 -16 c 0
 305 -16 292 -7 287 11 c 2
 124 608 l 1
 123 603 94 586 62 586 c 0
 33 586 5 602 5 659 c 0
 5 721 31 757 81 757 c 0
 116 757 151 740 157 720 c 2
 327 121 l 1
EndSplineSet
Layer: 2
EndChar

StartChar: W
Encoding: 87 87 75
Width: 1031
Flags: W
HStem: -10.4089 21G<363.299 375.693 744.697 757.34> 566.278 172.969<44.1179 127.801> 755.744 13.923G<485.481 531.817 868.555 915.073>
VStem: 20.0633 167.937<625.223 715.067> 437 201.758<640.574 709.898> 820 202.608<647.459 716.798>
LayerCount: 3
Back
Fore
SplineSet
614 564 m 1
 660 392 719 231 759 111 c 1
 820 717 l 2
 823.970007512 758.685078879 851.690905605 775.743658309 885.419723896 775.743658309 c 0
 944.726288804 775.743658309 1022.60779476 723.002926612 1022.60779476 658.663090613 c 0
 1022.60779476 648.990930787 1020.84775949 639.056644125 1017 629 c 2
 782 14 l 2
 775.735322041 -2.38454235479 763.432768707 -10.4089495761 751.247351724 -10.4089495761 c 0
 738.146485547 -10.4089495761 727 -1 720 17 c 6
 720 17 623 272 561 432 c 1
 400 14 l 2
 393.735322041 -2.38454235479 381.664994683 -10.4089495761 369.720211044 -10.4089495761 c 0
 356.87805618 -10.4089495761 344.181016954 -1.13355934066 339 17 c 2
 339 17 205 362 128 584 c 1
 124 576 103.574321506 566.278484309 75.113432926 566.278484309 c 0
 47.74476072 566.278484309 20.0632967724 581.383941589 20.0632967724 639.413599264 c 0
 20.0632967724 703.880429598 46.3352207523 739.247890735 101.832328417 739.247890735 c 0
 141.441967989 739.247890735 182.22474106 720.95089452 188 701 c 0
 263 421 328 257 376 105 c 1
 437 710 l 2
 441 752.333333333 468.666666667 769.666666667 502.296296296 769.666666667 c 0
 561.337575167 769.666666667 638.758174711 716.241063718 638.758174711 650.876434149 c 0
 638.758174711 619.23904367 622.86285251 590.145414905 614 564 c 1
EndSplineSet
Layer: 2
EndChar

StartChar: X
Encoding: 88 88 76
Width: 602
Flags: HW
HStem: -16.2608 184.765<51.9862 139.809 477.151 570.656> 546.826 171.699<31.2015 103.524>
LayerCount: 3
Back
Fore
SplineSet
120 581 m 1
 108 557 89 547 71 547 c 0
 37 547 3 581 3 627 c 0
 3 673 37 719 75 719 c 0
 84 719 94 716 104 710 c 0
 115 704 198 571 287 421 c 1
 409 704 l 2
 422 733 443 745 466 745 c 0
 521 745 590 679 590 615 c 0
 590 597 585 579 572 563 c 2
 362 292 l 1
 399 228 434 167 460 118 c 1
 466 153 490 169 517 169 c 0
 555 169 598 137 598 85 c 0
 598 50 580 -16 533 -16 c 0
 516 -16 487 -13 469 16 c 2
 469 16 396 135 327 246 c 1
 146 12 l 2
 130 -8 110 -12 94 -12 c 0
 47 -12 16 45 16 80 c 0
 16 133 60 166 98 166 c 0
 125 166 149 150 154 116 c 1
 259 357 l 1
 198 457 142 548 120 581 c 1
EndSplineSet
Layer: 2
EndChar

StartChar: Y
Encoding: 89 89 77
Width: 578
Flags: W
HStem: -5 58<177.868 276 336 418.699> 546.826 171.699<31.2015 111.24>
VStem: 276 68<54.543 277.846> 276 60<53 138.78>
LayerCount: 3
Back
Fore
SplineSet
120 581 m 1xd0
 108.002145854 557.004291708 89.8526462337 546.826125559 71.4036177372 546.826125559 c 0
 37.6887604159 546.826125559 2.97359370436 580.817222877 2.97359370436 626.588300533 c 0
 2.97359370436 672.864715556 36.9374766737 718.525346596 74.7080653305 718.525346596 c 0
 132.827785689 718.525346596 173.05839222 632.845218134 287 422 c 1
 409 704 l 2
 421.544574214 732.778729079 442.559462887 744.556326992 465.943102962 744.556326992 c 0
 521.689587227 744.556326992 590.898710959 677.619140456 590.898710959 614.51986222 c 0
 590.898710959 596.481808011 585.242912269 578.757389282 572 563 c 2
 337 280 l 5
 341 234 344 191 344 140 c 4xe0
 344 114 341.723631105 85.9950498992 336 53 c 1
 371 53 l 1
 398 49 421 41 421 25 c 0
 421 9 396 -5 369 -5 c 2
 226 -5 l 2
 198 -5 176 9 176 25 c 0
 176 41 198 53 226 53 c 2
 276 53 l 1
 276 110 276 239 276 324 c 1
 252 362 175 497 120 581 c 1xd0
EndSplineSet
Layer: 2
EndChar

StartChar: Z
Encoding: 90 90 78
Width: 654
Flags: HW
HStem: -4 203.373<533.998 627.125> -4 73.3941<11.7241 78 291 444.33> 547.76 211.001<55.5951 156.747>
VStem: 3.9794 180.194<603.728 677.236> 76.5567 230.1<69.2196 177.859> 500.261 171.166<39.8976 148.1>
LayerCount: 3
Back
Fore
SplineSet
307 116 m 0x6c
 307 97 303 77 291 65 c 1
 368 65 454 43 514 39 c 1
 504 58 500 78 500 96 c 0
 500 152 539 199 582 199 c 0xac
 629 199 671 129 671 75 c 0
 671 46 660 20 630 4 c 0
 622 0 578 -3 517 -4 c 2
 71 -4 l 2
 31 -4 8 11 8 31 c 0
 8 65 26 69 52 69 c 0
 78 69 l 1
 77 85 l 0x6c
 77 195 175 306 280 413 c 0
 366 501 416 550 522 651 c 1
 410 660 258 669 174 678 c 1
 181 662 184 646 184 632 c 0
 184 583 147 548 106 548 c 0
 55 548 4 614 4 679 c 0x74
 4 710 17 739 49 754 c 0
 56 757 84 759 124 759 c 0
 233 759 436 745 577 706 c 1
 577 706 616 740 620 743 c 0
 627 748 638 750 645 750 c 0
 655 750 656 741 656 734 c 0
 656 721 646 706 629 689 c 1
 641 685 651 680 661 675 c 1
 661 632 l 1
 651 637 620 642 581 646 c 1
 526 596 430 502 389 458 c 0
 294 356 265 311 178 209 c 1
 192 222 209 227 225 227 c 0
 281 227 307 173 307 116 c 0x6c
EndSplineSet
Layer: 2
EndChar

StartChar: bracketleft
Encoding: 91 91 79
Width: 282
Flags: HW
HStem: -6.35398 164.312<148.626 228.532> 615.35 157.004<141.678 226.264>
VStem: 94.5556 164.853<24.9587 134.644 639.389 738.772> 94.5556 61.8537<140.56 591.213> 95 33<0 13.7209 752.283 766>
LayerCount: 3
Back
Fore
SplineSet
95 0 m 1xc8
 95 16 95 95 95 197 c 0xd0
 95 402 95 699 95 766 c 1xc8
 124 766 l 1
 124 766 128 758 129 752 c 1
 142 766 159 772 175 772 c 0
 216 772 256 731 256 688 c 0
 256 648 223 615 188 615 c 0
 172 615 155 622 141 638 c 1
 148 625 156 509 156 366 c 0xd0
 156 293 154 213 148 137 c 1
 161 152 176 158 191 158 c 0
 226 158 259 122 259 80 c 0xe0
 259 36 219 -6 178 -6 c 0
 162 -6 146 0 133 14 c 1
 131 8 129 5 128 0 c 1
 106 0 110 0 95 0 c 1xc8
EndSplineSet
Layer: 2
EndChar

StartChar: backslash
Encoding: 92 92 80
Width: 390
Flags: HW
HStem: -22.6414 21G<390.326 403.57> 566.494 20G<29.3257 35.3601>
LayerCount: 3
Back
Fore
SplineSet
52 573 m 2
 395 58 l 2
 411 35 417 15 417 1 c 0
 417 -14 410 -23 398 -23 c 0
 383 -23 362 -9 344 22 c 2
 27 557 l 2
 23 563 22 569 22 574 c 0
 22 582 26 586 32 586 c 0
 38 586 45 582 52 573 c 2
EndSplineSet
Layer: 2
EndChar

StartChar: bracketright
Encoding: 93 93 81
Width: 214
Flags: HW
HStem: -6.35398 164.312<47.5196 128.364> 615.35 157.004<50.8743 133.722>
VStem: 16.6014 164.843<24.8798 134.626 639.389 737.188> 119.873 61.5716<148.034 599.072> 152 29<0 13.7173 752.283 766>
LayerCount: 3
Back
Fore
SplineSet
181 0 m 1xc8
 149 0 l 1
 149 0 145 8 144 14 c 1
 130.144077678 -0.251805816876 113.937299233 -6.35397707343 97.8614383661 -6.35397707343 c 0
 56.2264605087 -6.35397707343 17 36 17 80 c 0xe0
 17 122 49.6544541815 157.958098467 85.3188474261 157.958098467 c 0
 100.158079946 157.958098467 115.44939651 151.698959718 129 137 c 1
 122.360498127 215.276232605 119.872856349 297.704325305 119.872856349 372.634749888 c 0xd0
 119.872856349 512.129758774 128.49447467 625.639501873 135 638 c 1
 120.562258681 622.094013801 103.968774334 615.349935468 87.9597537653 615.349935468 c 0
 52.5289259156 615.349935468 19.9608958682 648.383518337 19.9608958682 688.240185036 c 0
 19.9608958682 731.484772554 61.1950624418 772.353977073 101.578917626 772.353977073 c 0
 117.572342481 772.353977073 133.539961173 766.251805817 147 752 c 1
 148 758 152 766 152 766 c 1
 174 766 167 766 181 766 c 1xc8
 181 698.666666667 181.444444444 401.555555556 181.444444444 197.037037037 c 0xd0
 181.444444444 94.7777777778 181 16 181 0 c 1xc8
EndSplineSet
Layer: 2
EndChar

StartChar: asciicircum
Encoding: 94 94 82
Width: 343
Flags: HW
HStem: 311.94 29.0599<282.178 288.39>
VStem: 63.5105 79.2375<295.897 351.465>
LayerCount: 3
Back
Fore
SplineSet
89 381 m 1
 198 528 l 1
 211 493 221 364 313 341 c 1
 301 331 287 312 267 312 c 0
 229 312 188 375 188 441 c 0
 188 452 189 463 192 474 c 1
 120 352 l 1
 136 346 143 336 143 325 c 0
 143 309 127 292 104 292 c 0
 85 292 64 299 64 328 c 0
 64 341 70 358 89 381 c 1
EndSplineSet
Layer: 2
EndChar

StartChar: underscore
Encoding: 95 95 83
Width: 245
Flags: HW
HStem: -66 33<14.1363 78.1538>
LayerCount: 3
Back
Fore
SplineSet
20 -33 m 2
 236 -7 l 2
 271 -3 270 -82 238 -80 c 2
 21 -66 l 2
 10 -65 9 -34 20 -33 c 2
EndSplineSet
Layer: 2
EndChar

StartChar: grave
Encoding: 96 96 84
Width: 272
Flags: MW
HStem: 532 35
VStem: 68 105
LayerCount: 3
Back
Fore
SplineSet
248 554 m 1
 203 500 35 552 73 638 c 0
 93 685 138 690 165 664 c 0
 187 642 159 595 165 583 c 0
 182 548 229 585 248 554 c 1
EndSplineSet
Validated: 33
Layer: 2
EndChar

StartChar: a
Encoding: 97 97 85
Width: 570
Flags: HWO
HStem: -31 20 17 200<248 301 242 305> 93 311 254 150 512 20G
VStem: 152 267<106 129.5 106 146.5>
LayerCount: 3
Back
Fore
SplineSet
546.75409695 413.198102285 m 0
 546.75409695 341.672871961 509.073747756 270.073747756 459 220 c 1
 513 196 547 161 547 122 c 0
 547 76 500 35 428 11 c 1
 439 6 453 5 481 5 c 0
 505 5 507 -31 484 -31 c 0
 430 -31 400 -23 383 -1 c 1
 351 -8 316 -11 279 -11 c 0
 131 -11 11 49 11 122 c 0
 11 195 131 254 279 254 c 0xdc
 331 254 380 247 421 234 c 1
 440.209126817 250.904031599 476.219194832 312.126639791 476.219194832 347.432694424 c 0
 476.219194832 388.150684161 367.271990301 403.543182897 263.482829882 403.543182897 c 0
 169.077095274 403.543182897 78.9389026883 390.808096931 78.9389026883 372.813063242 c 0
 78.9389026883 347.965711595 102.695837829 337.863250576 102.695837829 324.176828112 c 0
 102.695837829 315.467750769 89.5600110657 301.766246921 81.1908691825 301.766246921 c 0
 73.1703035596 301.766246921 4.5125406169 386.044044177 4.5125406169 445.75034628 c 0
 4.5125406169 507.493102739 127.429851742 532.526391879 255.564427898 532.526391879 c 0
 427.827939829 532.526391879 546.75409695 517.409363424 546.75409695 413.198102285 c 0
326 159 m 0
 348 177 358 186 370 195 c 1
 345 208 318 217 284 217 c 0
 200 217 152 174 152 119 c 0
 152 64 206 17 290 17 c 0
 320 17 336 22 359 32 c 1
 356 44 354 58 353 74 c 0
 351 97 385 100 388 77 c 0
 389 66 389 56 391 48 c 1
 416 66 419 93 419 119 c 4
 419 140 420 156 402 173 c 5
 385 158 368 144 352 130 c 0
 345.542152765 124.287288984 339.269381525 121.905945882 333.840574455 121.905945882 c 0
 323.730182456 121.905945882 316.546982274 130.165358174 316.546982274 140.547612559 c 0
 316.546982274 147.035266241 318.723013174 153.046101688 326 159 c 0
EndSplineSet
Layer: 2
EndChar

StartChar: b
Encoding: 98 98 86
Width: 609
Flags: MW
HStem: -15 20
VStem: 231 224
LayerCount: 3
Back
Fore
SplineSet
73 180 m 0
 50 254 61 330 95 393 c 1
 92 506 89 614 89 656 c 1
 15 612 -43 718 33 775 c 0
 67 801 117 809 139 765 c 0
 145 755 153 622 155 468 c 1
 183 493 217 512 255 524 c 0
 401 568 555 486 599 341 c 0
 643 196 562 42 416 -2 c 0
 315 -33 212 -5 142 65 c 1
 139 38 133 16 128 0 c 1
 106 0 113 0 98 0 c 1
 101 9 102 54 101 118 c 1
 90 137 80 158 73 180 c 0
231 240 m 0
 240 112 271 40 335 32 c 0
 401 23 464 135 455 263 c 0
 446 391 407 491 337 491 c 0
 279 491 222 368 231 240 c 0
EndSplineSet
Validated: 33
Layer: 2
EndChar

StartChar: c
Encoding: 99 99 87
Width: 492
Flags: MW
HStem: -12 41 496 43
VStem: 4 167
LayerCount: 3
Back
Fore
SplineSet
489 111 m 0
 481 82 470 34 360 0 c 0
 215 -44 61 38 16 183 c 0
 -28 328 55 478 199 526 c 0
 300 560 414 525 469 435 c 0
 521 350 417 318 390 376 c 0
 358 446 364 496 277 496 c 0
 219 496 162 367 171 239 c 0
 180 111 209 29 274 29 c 0
 328 29 381 31 393 129 c 0
 402 228 522 219 489 111 c 0
EndSplineSet
Validated: 33
Layer: 2
EndChar

StartChar: d
Encoding: 100 100 88
Width: 597
Flags: MW
HStem: -12 20
VStem: 185 222
LayerCount: 3
Back
Fore
SplineSet
555 343 m 0
 582 255 562 164 510 95 c 1
 510 43 511 7 513 -1 c 1
 499 -1 506 -1 484 -1 c 1
 479 13 475 32 471 55 c 1
 443 31 410 11 372 0 c 0
 227 -45 73 37 29 182 c 0
 -16 328 66 482 211 526 c 0
 299 553 389 533 457 481 c 1
 460 629 467 754 472 764 c 0
 495 808 545 799 579 774 c 0
 655 717 597 610 522 655 c 1
 522 616 520 523 517 421 c 1
 534 398 546 372 555 343 c 0
185 259 m 0
 194 131 223 38 286 30 c 0
 352 22 416 134 407 262 c 0
 398 390 359 490 289 490 c 0
 231 490 176 387 185 259 c 0
EndSplineSet
Validated: 33
Layer: 2
EndChar

StartChar: e
Encoding: 101 101 89
Width: 557
Flags: MW
HStem: -17 31<250 333.5 250 356> 260 30<241.5 281> 489 36<241.5 325>
VStem: 5 147<365.5 417 362.5 429.5> 14 140<116 116> 411 130<362.5 417>
LayerCount: 3
Back
Fore
SplineSet
5 393 m 0xec
 5 466 125 525 273 525 c 0
 421 525 541 466 541 393 c 0
 541 321 425 262 281 260 c 0
 198 260 152 201 154 116 c 0xf4
 156 61 208 14 292 14 c 0
 375 14 411 78 411 133 c 1
 423 223 564 254 550 136 c 1
 550 63 430 -17 282 -17 c 0
 134 -17 14 43 14 116 c 0
 14 172 73 242 166 273 c 1
 71 294 5 338 5 393 c 0xec
152 390 m 0
 152 335 200 290 283 290 c 0
 367 290 411 335 411 390 c 0
 411 444 367 489 283 489 c 0
 200 489 152 444 152 390 c 0
EndSplineSet
Validated: 33
Layer: 2
EndChar

StartChar: f
Encoding: 102 102 90
Width: 383
Flags: MW
HStem: 1 20 504 144 764 20G
VStem: 64 67
LayerCount: 3
Back
Fore
SplineSet
131 1 m 1
 131 23 129 208 128 377 c 1
 69 372 40 337 87 269 c 0
 101 250 23 219 15 241 c 0
 -25 350 35 448 127 487 c 1
 127 559 127 620 128 649 c 0
 128 770 404 874 393 658 c 0
 392 639 347 570 318 597 c 0
 283 631 205 698 185 583 c 0
 184 577 185 546 186 502 c 1
 239 509 296 498 347 459 c 0
 381 433 358 303 329 321 c 0
 284 348 233 366 189 373 c 1
 191 239 188 77 162 1 c 1
 141 1 145 1 131 1 c 1
EndSplineSet
Validated: 33
Layer: 2
EndChar

StartChar: g
Encoding: 103 103 91
Width: 572
Flags: MW
HStem: -13 20 15 112 15 204<259.5 311 259.5 329> 252 19<213 306 213 306> 301 135<206 311.5> 370 130
VStem: 145 303<387 409> 168 252<89 126 89 145.5>
LayerCount: 3
Back
Fore
SplineSet
555 403 m 0xda
 555 356 504 315 429 292 c 1
 437 271 438 250 434 229 c 1
 506 206 553 165 553 119 c 0
 553 46 433 -13 285 -13 c 0
 137 -13 17 46 17 119 c 0
 17 193 137 252 285 252 c 0
 327 252 366 247 401 239 c 1
 403 253 401 268 396 282 c 1
 362 275 325 271 287 271 c 0
 139 271 19 330 19 403 c 0
 19 444 55 480 112 504 c 1
 101 527 95 552 102 582 c 0
 107 605 171 603 163 581 c 0
 152 556 150 534 155 517 c 1
 194 529 237 536 287 536 c 0
 435 536 555 477 555 403 c 0xda
448 400 m 0
 448 455 380 500 297 500 c 0xd6
 258 500 222 490 195 474 c 1
 202 472 208 471 215 471 c 0
 239 471 239 436 215 436 c 0
 197 436 180 441 164 449 c 1
 152 434 145 418 145 400 c 0
 145 345 213 301 297 301 c 0
 326 301 352 306 375 315 c 1
 369 323 360 332 351 340 c 0
 334 355 356 381 374 366 c 0
 387 354 398 343 406 332 c 1
 432 349 448 374 448 400 c 0
347 158 m 0
 359 168 373 181 381 191 c 1
 358 209 328 219 294 219 c 0
 225 219 168 174 168 117 c 0
 168 61 225 15 294 15 c 0
 364 15 420 61 420 117 c 0xb9
 420 135 416 151 406 166 c 1
 398 155 384 144 371 132 c 0
 354 116 330 142 347 158 c 0
EndSplineSet
Validated: 33
Layer: 2
EndChar

StartChar: h
Encoding: 104 104 92
Width: 503
Flags: MW
HStem: -1 20
LayerCount: 3
Back
Fore
SplineSet
128 0 m 1
 106 0 113 0 98 0 c 1
 104 17 101 170 97 324 c 1
 92 320 86 315 83 312 c 0
 48 285 13 303 21 330 c 0
 24 339 54 366 95 397 c 1
 93 511 89 613 89 656 c 1
 15 612 -43 718 33 775 c 0
 67 801 117 809 139 765 c 0
 145 754 153 604 155 438 c 1
 268 510 421 579 482 514 c 0
 519 475 415 113 390 0 c 1
 345 0 337 -1 261 -1 c 1
 196 -9 187 54 272 46 c 1
 355 233 351 381 283 434 c 0
 264 449 206 410 155 371 c 1
 155 216 149 62 128 0 c 1
EndSplineSet
Validated: 33
Layer: 2
EndChar

StartChar: i
Encoding: 105 105 93
Width: 230
Flags: MW
HStem: -22 20 36 279 465 180 474 171<85 134.5>
VStem: 20 180<535.5 582.5>
LayerCount: 3
Back
Fore
SplineSet
56 36 m 2
 121 36 l 1
 123 103 127 239 127 325 c 1
 52 280 -7 387 68 444 c 0
 103 470 153 478 175 435 c 0
 186 413 170 180 155 36 c 1
 220 36 l 2
 244 37 245 0 221 0 c 2
 150 0 l 1
 142 -32 123 -25 120 0 c 1
 56 0 l 2
 33 0 33 36 56 36 c 2
20 559 m 0
 20 606 60 645 110 645 c 0
 159 645 200 606 200 559 c 0
 200 512 159 474 110 474 c 0
 60 474 20 512 20 559 c 0
EndSplineSet
Validated: 33
Layer: 2
EndChar

StartChar: j
Encoding: 106 106 94
Width: 282
Flags: MW
HStem: 466 201 496 171<158 207.5>
VStem: 93 180<558 605.5>
LayerCount: 3
Back
Fore
SplineSet
265 432 m 0
 274 414 237 255 218 115 c 1
 193 -18 135 -159 122 -172 c 0
 87 -207 42 -183 17 -148 c 0
 -18 -98 68 29 75 -134 c 0
 76 -150 97 -137 101 -128 c 0
 121 -66 146 53 162 145 c 0
 171 207 181 276 181 327 c 1
 106 283 40 391 115 448 c 0
 150 474 242 476 265 432 c 0
93 582 m 0
 93 629 133 667 183 667 c 0
 232 667 273 629 273 582 c 0
 273 534 232 496 183 496 c 0
 133 496 93 534 93 582 c 0
EndSplineSet
Validated: 33
Layer: 2
EndChar

StartChar: k
Encoding: 107 107 95
Width: 496
Flags: MW
HStem: -1 20 349 191
VStem: 20 136 101 55 210 171
LayerCount: 3
Back
Fore
SplineSet
482 514 m 0
 500 495 512 306 371 358 c 1
 328 393 334 388 302 413 c 0
 288 424 274 419 233 399 c 1
 322 298 393 59 380 0 c 1
 361 0 282 0 262 0 c 0
 196 -8 187 54 272 46 c 1
 316 145 251 325 199 383 c 1
 182 375 168 368 156 361 c 1
 155 210 148 60 128 0 c 1
 106 0 113 0 98 0 c 1
 104 17 103 170 101 325 c 1
 94 321 88 317 83 312 c 0
 48 285 13 303 21 330 c 0
 24 339 55 367 99 400 c 1
 98 512 97 614 98 656 c 1
 23 611 -43 718 33 775 c 0
 67 801 117 809 139 765 c 0
 145 754 153 605 154 438 c 1
 267 510 421 579 482 514 c 0
EndSplineSet
Validated: 33
Layer: 2
EndChar

StartChar: l
Encoding: 108 108 96
Width: 262
Flags: MW
HStem: -6 164 776 20G
VStem: 98 50
LayerCount: 3
Back
Fore
SplineSet
128 0 m 1
 106 0 113 0 98 0 c 1
 97 47 97 549 97 649 c 1
 22 605 -43 718 33 775 c 0
 67 801 117 809 139 765 c 0
 149 747 166 361 148 137 c 1
 206 201 298 105 242 29 c 0
 217 -6 167 -22 133 14 c 1
 131 8 129 5 128 0 c 1
EndSplineSet
Validated: 33
Layer: 2
EndChar

StartChar: m
Encoding: 109 109 97
Width: 832
Flags: MW
HStem: -1 20
LayerCount: 3
Back
Fore
SplineSet
111 405 m 1
 111 415 111 431 111 440 c 1
 36 395 -32 499 43 556 c 0
 78 582 128 591 150 547 c 0
 154 540 158 499 160 441 c 1
 272 512 422 578 482 514 c 0
 491 505 492 478 489 442 c 1
 601 513 749 579 810 514 c 0
 846 475 742 114 717 1 c 1
 672 1 664 0 588 0 c 1
 523 -8 515 55 599 46 c 1
 682 233 679 381 610 434 c 0
 590 450 528 406 476 366 c 1
 453 240 406 72 390 0 c 1
 345 0 337 -1 261 -1 c 1
 196 -9 187 54 272 46 c 1
 355 233 351 381 283 434 c 0
 264 448 209 415 161 377 c 1
 162 249 155 81 128 0 c 1
 106 0 113 0 98 0 c 1
 106 25 108 203 108 334 c 1
 98 326 89 318 83 312 c 0
 48 285 13 303 21 330 c 0
 24 340 61 369 111 405 c 1
EndSplineSet
Validated: 33
Layer: 2
EndChar

StartChar: n
Encoding: 110 110 98
Width: 509
Flags: MW
HStem: -1 20
LayerCount: 3
Back
Fore
SplineSet
21 330 m 0
 24 340 57 370 105 405 c 1
 105 417 105 427 105 437 c 1
 30 392 -32 499 43 556 c 0
 78 582 128 591 150 547 c 0
 154 540 158 498 160 440 c 1
 273 512 422 579 483 514 c 0
 519 475 416 113 391 0 c 1
 346 0 338 -1 262 -1 c 1
 196 -9 188 54 273 46 c 1
 355 233 352 381 284 434 c 0
 265 449 211 414 161 376 c 1
 163 248 155 81 128 0 c 1
 106 0 113 0 98 0 c 1
 106 25 105 200 104 330 c 1
 96 323 89 317 83 312 c 0
 49 285 13 303 21 330 c 0
EndSplineSet
Validated: 33
Layer: 2
EndChar

StartChar: o
Encoding: 111 111 99
Width: 572
Flags: MW
HStem: -15 20 515 20G
VStem: 173 224
LayerCount: 3
Back
Fore
SplineSet
18 179 m 0
 -26 325 56 479 201 523 c 0
 347 567 500 486 545 340 c 0
 589 195 507 41 362 -3 c 0
 217 -48 63 34 18 179 c 0
173 236 m 0
 182 108 213 35 276 27 c 0
 342 19 406 131 397 259 c 0
 388 387 348 487 279 487 c 0
 221 487 164 364 173 236 c 0
EndSplineSet
Validated: 33
Layer: 2
EndChar

StartChar: p
Encoding: 112 112 100
Width: 664
Flags: MW
HStem: -229 20
VStem: 266 224
LayerCount: 3
Back
Fore
SplineSet
260 541 m 0
 257 537 253 523 246 503 c 1
 261 511 277 518 294 523 c 0
 440 567 593 486 638 340 c 0
 682 195 600 41 455 -3 c 0
 333 -41 206 11 141 115 c 1
 118 24 97 -56 87 -91 c 1
 171 -67 211 -189 123 -224 c 0
 83 -240 -8 -210 9 -163 c 0
 15 -146 58 29 105 204 c 1
 86 295 115 387 176 450 c 1
 190 495 202 532 212 555 c 0
 236 594 267 561 260 541 c 0
266 236 m 0
 275 108 306 35 369 27 c 0
 435 19 499 131 490 259 c 0
 481 387 441 487 372 487 c 0
 314 487 257 364 266 236 c 0
EndSplineSet
Validated: 33
Layer: 2
EndChar

StartChar: q
Encoding: 113 113 101
Width: 618
Flags: MW
HStem: -229 20 487 48 553 20G
VStem: 19 160 402 167
LayerCount: 3
Back
Fore
SplineSet
409 541 m 0
 401 561 433 594 456 555 c 0
 467 532 478 495 493 450 c 1
 553 387 582 295 564 204 c 1
 611 29 653 -146 660 -163 c 0
 676 -210 586 -240 546 -224 c 0
 458 -189 497 -67 581 -91 c 1
 571 -56 551 24 527 115 c 1
 463 11 336 -41 213 -3 c 0
 68 41 -14 195 31 340 c 0
 75 486 229 567 374 523 c 0
 391 518 407 511 422 503 c 1
 416 523 411 537 409 541 c 0
402 236 m 0
 411 364 355 487 297 487 c 0
 227 487 188 387 179 259 c 0
 170 131 233 19 299 27 c 0
 362 35 394 108 402 236 c 0
EndSplineSet
Validated: 33
Layer: 2
EndChar

StartChar: r
Encoding: 114 114 102
Width: 481
Flags: MW
HStem: -21 20 0 35<64.5 122 76 120 163 212> 243 297 554 20G
VStem: 59 170
LayerCount: 3
Back
Fore
SplineSet
482 514 m 0
 505 490 473 415 440 280 c 1
 406 200 294 265 311 332 c 0
 325 390 316 422 283 434 c 0
 263 441 218 415 174 383 c 1
 176 271 175 125 163 35 c 1
 212 35 l 2
 235 35 235 0 212 0 c 2
 158 0 l 1
 156 -13 117 -37 120 -4 c 0
 121 -2 120 -4 120 0 c 1
 76 0 l 2
 53 0 53 35 76 35 c 2
 122 35 l 1
 123 104 123 242 123 344 c 1
 106 332 92 320 83 312 c 0
 48 285 13 303 21 330 c 0
 24 341 68 380 122 417 c 0
 122 421 123 428 123 431 c 1
 48 387 -19 495 57 552 c 0
 91 578 141 587 163 543 c 0
 167 536 170 500 172 449 c 1
 283 517 424 576 482 514 c 0
EndSplineSet
Validated: 37
Layer: 2
EndChar

StartChar: s
Encoding: 115 115 103
Width: 449
Flags: MW
HStem: -17 24 198 37 279 38 341 206
VStem: 7 70 191 115
LayerCount: 3
Back
Fore
SplineSet
228 399 m 0
 237 440 230 504 207 508 c 0
 191 511 170 488 141 416 c 0
 120 362 111 289 123 254 c 0
 132 229 153 225 188 266 c 0
 204 284 220 307 245 313 c 0
 361 340 459 240 441 140 c 0
 432 90 395 39 317 4 c 0
 230 -36 127 -19 89 55 c 0
 83 67 63 87 66 103 c 0
 69 126 99 163 127 171 c 0
 147 177 166 169 176 130 c 0
 187 87 163 57 184 38 c 0
 272 -39 323 41 326 145 c 0
 327 183 314 245 290 269 c 0
 276 282 260 283 240 264 c 0
 212 236 192 198 146 198 c 0
 73 197 44 271 49 352 c 0
 55 442 106 541 188 547 c 0
 269 552 377 462 340 378 c 0
 317 326 210 324 228 399 c 0
EndSplineSet
Validated: 33
Layer: 2
EndChar

StartChar: t
Encoding: 116 116 104
Width: 368
Flags: MW
HStem: -8 20 53 268 395 36 559 20G
VStem: 140 52
LayerCount: 3
Back
Fore
SplineSet
42 396 m 2
 108 395 l 1
 108 413 109 428 109 442 c 1
 34 397 -32 499 43 556 c 0
 78 582 155 595 155 546 c 0
 155 537 153 475 150 395 c 1
 328 396 l 2
 378 396 378 321 328 321 c 2
 145 320 l 1
 143 240 140 152 140 85 c 0
 140 42 198 32 192 122 c 0
 184 257 365 211 348 113 c 0
 344 92 297 35 210 -5 c 0
 178 -19 94 9 94 50 c 0
 94 77 99 208 103 320 c 1
 42 321 l 2
 -8 321 -8 396 42 396 c 2
EndSplineSet
Validated: 33
Layer: 2
EndChar

StartChar: u
Encoding: 117 117 105
Width: 548
Flags: MW
HStem: -8 20 -1 166
VStem: 26 127
LayerCount: 3
Back
Fore
SplineSet
43 18 m 0
 1 56 48 418 56 531 c 1
 101 531 111 531 186 531 c 1
 251 539 267 477 181 485 c 1
 127 298 153 151 230 97 c 0
 252 82 306 95 351 118 c 1
 416 511 l 2
 421 540 473 599 469 570 c 2
 407 152 l 1
 480 200 608 103 520 18 c 0
 506 3 476 -5 454 0 c 0
 400 12 517 157 388 73 c 1
 381 13 l 2
 378 -16 331 -2 336 26 c 2
 344 67 l 1
 245 12 107 -41 43 18 c 0
EndSplineSet
Validated: 33
Layer: 2
EndChar

StartChar: v
Encoding: 118 118 106
Width: 454
Flags: MW
HStem: -9 20 439 131
VStem: 294 145
LayerCount: 3
Back
Fore
SplineSet
123 542 m 2
 241 77 l 1
 241 77 329 346 279 509 c 0
 250 603 448 538 439 445 c 0
 421 263 404 186 274 7 c 0
 258 -15 222 -14 215 13 c 2
 100 455 l 2
 105 451 -1 392 20 526 c 0
 30 594 116 571 123 542 c 2
EndSplineSet
Validated: 37
Layer: 2
EndChar

StartChar: w
Encoding: 119 119 107
Width: 870
Flags: MW
HStem: -9 20<702 702> -3 165 378 156
VStem: 26 127 351 122
LayerCount: 3
Back
Fore
SplineSet
771 500 m 1x78
 726 149 l 1
 800 196 929 102 841 16 c 0
 826 2 797 -7 774 -1 c 0
 720 10 838 155 709 71 c 1
 702 11 l 2xb8
 698 -18 651 -4 657 25 c 2
 664 65 l 1
 566 10 428 -42 364 16 c 0
 355 24 351 40 348 68 c 1
 250 13 107 -41 43 18 c 0
 1 56 48 418 56 531 c 1
 101 531 111 531 186 531 c 1
 251 539 267 477 181 485 c 1
 127 298 153 151 230 97 c 0
 249 84 291 92 331 108 c 0
 338 111 344 114 351 118 c 1
 349 243 371 448 376 530 c 1
 421 530 431 530 507 530 c 1
 571 538 587 476 501 484 c 1
 448 297 474 149 551 96 c 0
 573 80 626 93 671 116 c 1
 715 388 l 1
 641 344 576 458 651 515 c 0
 686 541 749 544 771 500 c 1x78
EndSplineSet
Validated: 33
Layer: 2
EndChar

StartChar: x
Encoding: 120 120 108
Width: 588
Flags: MW
HStem: -31 20 138 239
LayerCount: 3
Back
Fore
SplineSet
416 538 m 1
 416 537 591 538 591 538 c 1
 559 468 483 327 419 206 c 1
 482 122 540 44 574 0 c 1
 553 0 529 0 505 0 c 1
 464 55 426 106 392 153 c 1
 347 73 290 -10 271 -18 c 0
 205 -46 184 -26 142 34 c 1
 68 128 49 4 25 16 c 0
 0 28 -5 40 28 85 c 0
 45 108 93 174 139 112 c 0
 160 82 174 60 190 75 c 0
 219 104 273 192 313 259 c 1
 266 323 227 377 198 418 c 1
 164 338 45 383 73 474 c 0
 86 515 116 536 165 529 c 0
 190 525 255 421 342 306 c 1
 377 368 420 448 446 498 c 1
 439 498 423 498 416 498 c 0
 386 498 386 538 416 538 c 1
EndSplineSet
Validated: 33
Layer: 2
EndChar

StartChar: y
Encoding: 121 121 109
Width: 533
Flags: MW
HStem: -225 40 -225 195 -225 316 -1 166
VStem: 0 184 26 127
LayerCount: 3
Back
Fore
SplineSet
150 -225 m 0
 101 -225 59 -220 25 -176 c 0
 -31 -100 14 -42 92 -31 c 0
 127 -26 204 -33 180 -94 c 0
 157 -152 110 -103 110 -169 c 1
 173 -221 288 -138 326 -2 c 0
 330 10 333 20 336 33 c 2
 344 67 l 1
 245 12 107 -41 43 18 c 0
 1 56 48 418 56 531 c 1
 101 531 111 531 186 531 c 1
 251 539 267 477 181 485 c 1
 127 298 153 151 230 97 c 0
 252 82 306 95 351 118 c 1
 416 511 l 2
 421 540 473 599 469 570 c 2
 407 152 l 1
 480 200 609 103 520 18 c 0
 506 3 476 -5 454 0 c 0
 400 12 523 163 394 79 c 1
 383 25 l 1
 351 -112 293 -225 150 -225 c 0
EndSplineSet
Validated: 33
Layer: 2
EndChar

StartChar: z
Encoding: 122 122 110
Width: 525
Flags: MW
HStem: 0 20 164 299 519 20G
LayerCount: 3
Back
Fore
SplineSet
240 107 m 0
 243 89 245 62 229 49 c 1
 291 49 358 33 406 30 c 1
 364 107 457 190 511 113 c 0
 535 78 543 27 498 6 c 0
 491 3 457 1 409 0 c 0
 294 0 151 0 56 0 c 0
 24 0 6 11 6 25 c 0
 6 57 31 52 61 52 c 1
 45 127 199 273 221 295 c 2
 221 295 328 392 412 463 c 1
 324 469 204 475 137 482 c 1
 175 404 70 349 20 430 c 0
 -3 466 -7 517 38 535 c 0
 59 544 303 540 456 501 c 1
 485 525 487 526 490 528 c 0
 499 534 513 534 514 532 c 0
 524 520 515 506 497 490 c 1
 506 487 514 483 522 479 c 1
 522 465 522 464 522 449 c 1
 514 453 490 457 459 459 c 1
 415 424 340 357 307 326 c 0
 232 254 209 223 140 151 c 1
 166 171 202 169 224 145 c 0
 235 133 237 120 240 107 c 0
EndSplineSet
Validated: 33
Layer: 2
EndChar

StartChar: braceleft
Encoding: 123 123 111
Width: 240
Flags: MW
HStem: -10 141 -4 21G<55 62.5 55 88> 626 141
VStem: 67 39 71 47
LayerCount: 3
Back
Fore
SplineSet
55 -4 m 1x70
 55 19 96 310 29 357 c 1
 99 397 61 709 61 760 c 1
 75 760 68 760 90 760 c 1
 91 756 93 752 95 747 c 1
 129 782 179 766 205 731 c 0
 260 655 141 587 99 652 c 1xa8
 123 540 134 432 73 354 c 1
 114 310 108 176 102 105 c 1
 161 170 259 101 203 25 c 0
 178 -10 127 -26 93 10 c 1xb0
 92 4 90 0 88 -4 c 1
 67 -4 70 -4 55 -4 c 1x70
EndSplineSet
Validated: 33
Layer: 2
EndChar

StartChar: bar
Encoding: 124 124 112
Width: 165
Flags: MW
HStem: -9 21G
VStem: 37 98<58 61> 60 45<652 652>
LayerCount: 3
Back
Fore
SplineSet
105 652 m 2xa0
 135 61 l 2
 139 -34 33 -29 37 58 c 2xc0
 60 652 l 2
 62 682 104 682 105 652 c 2xa0
EndSplineSet
Validated: 33
Layer: 2
EndChar

StartChar: braceright
Encoding: 125 125 113
Width: 247
Flags: MW
HStem: -10 141 -4 21G<160 193 160 171> 626 141
VStem: 131 47 142 40
LayerCount: 3
Back
Fore
SplineSet
193 -4 m 1x68
 178 -4 182 -4 160 -4 c 1x68
 159 0 157 4 156 10 c 1xa8
 121 -26 71 -10 46 25 c 0xb0
 -10 101 88 170 146 105 c 1xa8
 140 176 135 310 176 354 c 1
 115 432 125 540 149 652 c 1
 108 587 -12 655 44 731 c 0
 69 766 120 782 154 747 c 1
 155 752 157 756 159 760 c 1
 180 760 173 760 188 760 c 1xb0
 188 709 150 397 220 357 c 1
 153 310 194 19 193 -4 c 1x68
EndSplineSet
Validated: 33
Layer: 2
EndChar

StartChar: asciitilde
Encoding: 126 126 114
Width: 408
Flags: MW
HStem: 186 31 293 31
VStem: 10 98
LayerCount: 3
Back
Fore
SplineSet
143 293 m 1
 76 290 130 213 96 197 c 1
 49 168 -11 211 18 250 c 0
 29 265 61 291 89 311 c 1
 183 361 184 256 232 217 c 1
 300 221 251 288 279 311 c 0
 324 348 407 279 346 241 c 1
 287 199 l 1
 192 149 192 254 143 293 c 1
EndSplineSet
Validated: 33
Layer: 2
EndChar

StartChar: Adieresis
Encoding: 196 196 115
Width: 604
Flags: MW
HStem: -31 20 751 20G 803 152 810 153
VStem: 171 144 355 142
LayerCount: 3
Back
Fore
SplineSet
398 28 m 2
 369 300 l 1
 320 300 l 2
 293 300 270 313 270 328 c 0
 270 343 293 356 320 356 c 2
 364 356 l 1
 338 634 l 1
 168 35 l 2
 157 -3 35 -33 20 55 c 0
 -9 230 142 152 135 147 c 1
 298 744 l 2
 308 779 347 781 359 747 c 2
 596 115 l 2
 639 0 412 -98 398 28 c 2
266 872 m 0
 266 900 289 922 316 922 c 0
 344 922 367 900 367 872 c 0
 367 844 344 821 316 821 c 0
 289 821 266 844 266 872 c 0
142 872 m 0
 142 900 165 922 192 922 c 0
 220 922 243 900 243 872 c 0
 243 844 220 821 192 821 c 0
 165 821 142 844 142 872 c 0
EndSplineSet
Validated: 37
Layer: 2
EndChar

StartChar: Aring
Encoding: 197 197 116
Width: 604
Flags: MW
HStem: -31 20 751 20G
LayerCount: 3
Back
Fore
SplineSet
398 28 m 2
 369 300 l 1
 320 300 l 2
 293 300 270 313 270 328 c 0
 270 343 293 356 320 356 c 2
 364 356 l 1
 338 634 l 1
 168 35 l 2
 157 -3 35 -33 20 55 c 0
 -9 230 142 152 135 147 c 1
 298 744 l 2
 308 779 347 781 359 747 c 2
 596 115 l 2
 639 0 412 -98 398 28 c 2
421 865 m 0
 421 822 386 787 343 787 c 0
 300 787 266 822 266 865 c 0
 266 908 300 943 343 943 c 0
 386 943 421 908 421 865 c 0
392 875 m 0
 392 897 374 914 353 914 c 0
 332 914 314 897 314 875 c 0
 314 854 332 837 353 837 c 0
 374 837 392 854 392 875 c 0
EndSplineSet
Validated: 37
Layer: 2
EndChar

StartChar: Ccedilla
Encoding: 199 199 117
Width: 605
Flags: MW
HStem: -220 131 -19 21G<116 116> -11 59 710 61
VStem: 31 193 262 38 483 118
LayerCount: 3
Back
Fore
SplineSet
216 -6 m 0xbe
 279 -19 374 -150 205 -213 c 0
 95 -253 81 -116 153 -96 c 0
 184 -87 216 -78 242 -132 c 1
 280 -118 264 -47 190 -37 c 1
 116 -19 l 1
 180 51 l 1xde
 117 99 68 173 45 266 c 0
 -7 472 90 685 257 753 c 0
 374 801 506 751 571 623 c 0
 631 503 510 458 479 540 c 0
 442 640 449 710 347 710 c 0
 280 710 214 527 224 345 c 0
 235 164 269 48 344 48 c 0
 407 48 468 50 483 188 c 1
 493 329 632 317 594 164 c 0
 584 122 572 54 444 6 c 0
 371 -21 295 -15 229 18 c 1
 220 6 216 -2 216 -6 c 0xbe
EndSplineSet
Validated: 33
Layer: 2
EndChar

StartChar: Eacute
Encoding: 201 201 118
Width: 567
Flags: MW
HStem: 0 20 107 255 234 257 419 224<164 365 327 365>
VStem: 161 270 164 210
LayerCount: 3
Back
Fore
SplineSet
527 0 m 2xd8
 111 0 l 2
 64 0 20 32 20 75 c 0
 20 117 59 162 109 156 c 1
 107 326 98 583 98 657 c 1
 23 612 -34 718 42 775 c 0
 76 801 126 810 148 766 c 0
 149 764 151 763 151 757 c 1
 180 757 320 760 365 759 c 0
 534 759 658 480 441 491 c 0xa8
 422 492 353 537 381 566 c 0
 415 601 482 640 365 643 c 0
 352 643 183 640 158 640 c 1
 162 574 164 529 164 419 c 1
 327 419 l 2
 354 419 377 407 377 391 c 0
 377 375 354 362 327 362 c 2
 164 362 l 1xd4
 164 247 167 211 156 137 c 1
 177 131 328 74 425 135 c 1
 355 227 485 267 543 200 c 0
 599 134 565 0 527 0 c 2xd8
191 838 m 0
 201 876 235 869 263 890 c 0
 306 921 319 988 370 974 c 0
 395 967 407 953 423 932 c 0
 481 854 178 787 191 838 c 0
EndSplineSet
Validated: 33
Layer: 2
EndChar

StartChar: Ntilde
Encoding: 209 209 119
Width: 514
Flags: MW
HStem: -18 20 0 58<77 78 78 98 141 144 144 180 180 183> 638 143 721 58<333 437 391 437 430 435 435 437 395 448.5>
VStem: 28 200<22 37 21.5 37.5> 283 204<742 758>
LayerCount: 3
Back
Fore
SplineSet
430 120 m 1xac
 446 216 430 577 430 721 c 1
 435 721 l 2
 462 721 487 734 487 750 c 0
 487 766 465 779 437 779 c 2
 395 779 l 1
 333 778 l 2
 305 778 283 766 283 750 c 0
 283 734 305 721 333 721 c 2
 391 721 l 1x9c
 376 614 374 424 377 267 c 1
 307 437 194 701 189 713 c 0
 158 782 92 794 57 768 c 0
 -18 711 58 614 95 643 c 1
 94 553 97 202 98 58 c 1
 78 58 l 2
 50 58 28 45 28 30 c 0
 28 14 50 0 77 0 c 2
 144 0 l 1
 180 0 l 2
 208 0 228 14 228 29 c 0
 228 45 210 58 183 58 c 2
 141 58 l 1x6c
 157 166 157 355 154 512 c 1
 223 343 342 66 350 49 c 0
 381 -21 440 -31 475 -5 c 0
 551 52 480 151 430 120 c 1xac
251 868 m 1
 206 866 242 808 219 796 c 0
 188 774 148 807 167 835 c 0
 175 847 196 866 214 882 c 1
 277 920 278 840 310 811 c 1
 355 813 322 865 341 882 c 0
 371 910 426 857 386 829 c 2
 346 797 l 1
 283 759 283 839 251 868 c 1
EndSplineSet
Validated: 41
Layer: 2
EndChar

StartChar: Odieresis
Encoding: 214 214 120
Width: 590
Flags: MW
HStem: -1 20 778 152
VStem: 124 144 174 229 308 142
LayerCount: 3
Back
Fore
SplineSet
16 279 m 0xe8
 -30 487 54 708 203 772 c 0
 351 836 509 718 554 509 c 0
 599 301 516 80 367 16 c 0
 218 -48 61 70 16 279 c 0xe8
174 359 m 0xd0
 183 175 215 71 279 60 c 0
 347 48 412 208 403 392 c 0
 394 576 353 720 282 720 c 0
 222 720 165 543 174 359 c 0xd0
219 847 m 0
 219 875 242 897 269 897 c 0
 297 897 320 875 320 847 c 0
 320 819 297 796 269 796 c 0
 242 796 219 819 219 847 c 0
95 847 m 0
 95 875 118 897 145 897 c 0
 173 897 196 875 196 847 c 0
 196 819 173 796 145 796 c 0
 118 796 95 819 95 847 c 0
EndSplineSet
Validated: 33
Layer: 2
EndChar

StartChar: Udieresis
Encoding: 220 220 121
Width: 549
Flags: MW
HStem: -10 20 749 20G 799 152
VStem: 66 144 149 223<81.5 229.5> 151 221 250 142
LayerCount: 3
Back
Fore
SplineSet
339 123 m 0xf2
 350 133 372 171 372 207 c 0
 372 252 374 522 374 622 c 1
 299 578 234 691 309 748 c 0
 344 774 394 782 416 738 c 0
 426 720 439 435 420 210 c 1
 535 258 574 119 519 43 c 0
 493 8 413 8 378 44 c 1
 290 -65 33 -5 35 195 c 0
 35 240 34 506 34 535 c 0
 34 622 36 661 36 680 c 0
 37 708 53 734 58 738 c 0
 92 774 127 774 166 756 c 0
 247 719 225 598 151 612 c 1xe4
 151 542 149 147 149 123 c 0xe8
 149 40 304 89 339 123 c 0xf2
161 868 m 0
 161 896 184 918 211 918 c 0
 239 918 262 896 262 868 c 0
 262 840 239 817 211 817 c 0
 184 817 161 840 161 868 c 0
37 868 m 0
 37 896 60 918 87 918 c 0
 115 918 138 896 138 868 c 0
 138 840 115 817 87 817 c 0
 60 817 37 840 37 868 c 0
EndSplineSet
Validated: 33
Layer: 2
EndChar

StartChar: aacute
Encoding: 225 225 122
Width: 568
Flags: MW
HStem: -31 20 17 200<248 301 242 305> 93 311 254 150 512 20G
VStem: 152 267<106 129.5 106 146.5>
LayerCount: 3
Back
Fore
SplineSet
540 464 m 0xac
 564 377 521 282 459 220 c 1
 513 196 547 161 547 122 c 0
 547 76 500 35 428 11 c 1
 439 6 453 5 481 5 c 0
 505 5 507 -31 484 -31 c 0
 430 -31 400 -23 383 -1 c 1
 351 -8 316 -11 279 -11 c 0
 131 -11 11 49 11 122 c 0
 11 195 131 254 279 254 c 0xdc
 331 254 380 247 421 234 c 1
 446 256 459 301 474 337 c 0
 511 427 73 412 79 372 c 0
 83 342 113 334 99 314 c 0
 95 308 90 308 84 303 c 0
 73 291 25 369 7 430 c 0
 -37 574 517 548 540 464 c 0xac
326 161 m 0
 347 182 358 186 370 195 c 1
 345 208 318 217 284 217 c 0
 200 217 152 174 152 119 c 0
 152 64 206 17 290 17 c 0
 320 17 336 22 359 32 c 1
 356 44 354 58 353 74 c 0
 351 97 385 100 388 77 c 0
 389 66 389 56 391 48 c 1
 416 66 419 93 419 119 c 0
 419 140 420 156 402 173 c 1
 385 158 368 144 352 130 c 0
 326 107 303 138 326 161 c 0
166 582 m 0
 176 620 210 613 238 634 c 0
 281 665 294 732 345 718 c 0
 370 711 382 697 398 676 c 0
 456 598 153 531 166 582 c 0
EndSplineSet
Validated: 33
Layer: 2
EndChar

StartChar: agrave
Encoding: 224 224 123
Width: 565
Flags: MW
HStem: -31 20 17 200<248 301 242 305> 93 311 254 150 512 20G
VStem: 152 267<106 129.5 106 146.5>
LayerCount: 3
Back
Fore
SplineSet
540 464 m 0xac
 564 377 521 282 459 220 c 1
 513 196 547 161 547 122 c 0
 547 76 500 35 428 11 c 1
 439 6 453 5 481 5 c 0
 505 5 507 -31 484 -31 c 0
 430 -31 400 -23 383 -1 c 1
 351 -8 316 -11 279 -11 c 0
 131 -11 11 49 11 122 c 0
 11 195 131 254 279 254 c 0xdc
 331 254 380 247 421 234 c 1
 446 256 459 301 474 337 c 0
 511 427 73 412 79 372 c 0
 83 342 113 334 99 314 c 0
 95 308 90 308 84 303 c 0
 73 291 25 369 7 430 c 0
 -37 574 517 548 540 464 c 0xac
326 161 m 0
 347 182 358 186 370 195 c 1
 345 208 318 217 284 217 c 0
 200 217 152 174 152 119 c 0
 152 64 206 17 290 17 c 0
 320 17 336 22 359 32 c 1
 356 44 354 58 353 74 c 0
 351 97 385 100 388 77 c 0
 389 66 389 56 391 48 c 1
 416 66 419 93 419 119 c 0
 419 140 420 156 402 173 c 1
 385 158 368 144 352 130 c 0
 326 107 303 138 326 161 c 0
386 602 m 1
 341 548 173 600 211 686 c 0
 231 733 276 738 303 712 c 0
 325 690 297 643 303 631 c 0
 320 596 367 633 386 602 c 1
EndSplineSet
Validated: 33
Layer: 2
EndChar

StartChar: acircumflex
Encoding: 226 226 124
Width: 571
Flags: MW
HStem: -31 20 17 200<248 301 242 305> 93 311 254 150 512 20G
VStem: 152 267<106 129.5 106 146.5>
LayerCount: 3
Back
Fore
SplineSet
540 464 m 0xac
 564 377 521 282 459 220 c 1
 513 196 547 161 547 122 c 0
 547 76 500 35 428 11 c 1
 439 6 453 5 481 5 c 0
 505 5 507 -31 484 -31 c 0
 430 -31 400 -23 383 -1 c 1
 351 -8 316 -11 279 -11 c 0
 131 -11 11 49 11 122 c 0
 11 195 131 254 279 254 c 0xdc
 331 254 380 247 421 234 c 1
 446 256 459 301 474 337 c 0
 511 427 73 412 79 372 c 0
 83 342 113 334 99 314 c 0
 95 308 90 308 84 303 c 0
 73 291 25 369 7 430 c 0
 -37 574 517 548 540 464 c 0xac
326 161 m 0
 347 182 358 186 370 195 c 1
 345 208 318 217 284 217 c 0
 200 217 152 174 152 119 c 0
 152 64 206 17 290 17 c 0
 320 17 336 22 359 32 c 1
 356 44 354 58 353 74 c 0
 351 97 385 100 388 77 c 0
 389 66 389 56 391 48 c 1
 416 66 419 93 419 119 c 0
 419 140 420 156 402 173 c 1
 385 158 368 144 352 130 c 0
 326 107 303 138 326 161 c 0
290 655 m 1
 216 564 l 2
 194 537 152 582 179 604 c 2
 282 685 l 2
 288 689 294 689 300 684 c 2
 300 684 377 621 402 600 c 0
 429 578 384 536 363 564 c 2
 290 655 l 1
EndSplineSet
Validated: 33
Layer: 2
EndChar

StartChar: adieresis
Encoding: 228 228 125
Width: 569
Flags: MW
HStem: -31 20 17 200<248 301 242 305> 93 311 254 150 512 20G 561 152
VStem: 111 144 152 267<106 129.5 106 146.5> 295 142
LayerCount: 3
Back
Fore
SplineSet
540 464 m 0xae80
 564 377 521 282 459 220 c 1
 513 196 547 161 547 122 c 0
 547 76 500 35 428 11 c 1
 439 6 453 5 481 5 c 0
 505 5 507 -31 484 -31 c 0
 430 -31 400 -23 383 -1 c 1
 351 -8 316 -11 279 -11 c 0
 131 -11 11 49 11 122 c 0
 11 195 131 254 279 254 c 0xde80
 331 254 380 247 421 234 c 1
 446 256 459 301 474 337 c 0
 511 427 73 412 79 372 c 0
 83 342 113 334 99 314 c 0
 95 308 90 308 84 303 c 0
 73 291 25 369 7 430 c 0
 -37 574 517 548 540 464 c 0xae80
326 161 m 0
 347 182 358 186 370 195 c 1
 345 208 318 217 284 217 c 0xde80
 200 217 152 174 152 119 c 0xad
 152 64 206 17 290 17 c 0xde80
 320 17 336 22 359 32 c 1
 356 44 354 58 353 74 c 0
 351 97 385 100 388 77 c 0
 389 66 389 56 391 48 c 1
 416 66 419 93 419 119 c 0xad
 419 140 420 156 402 173 c 1
 385 158 368 144 352 130 c 0
 326 107 303 138 326 161 c 0
206 630 m 0
 206 658 229 680 256 680 c 0
 284 680 307 658 307 630 c 0
 307 602 284 579 256 579 c 0
 229 579 206 602 206 630 c 0
82 630 m 0
 82 658 105 680 132 680 c 0
 160 680 183 658 183 630 c 0
 183 602 160 579 132 579 c 0
 105 579 82 602 82 630 c 0
EndSplineSet
Validated: 33
Layer: 2
EndChar

StartChar: atilde
Encoding: 227 227 126
Width: 574
Flags: MW
HStem: -31 20 17 200<248 301 242 305> 93 311 254 150 512 20G
VStem: 152 267<106 129.5 106 146.5>
LayerCount: 3
Back
Fore
SplineSet
540 464 m 0xac
 564 377 521 282 459 220 c 1
 513 196 547 161 547 122 c 0
 547 76 500 35 428 11 c 1
 439 6 453 5 481 5 c 0
 505 5 507 -31 484 -31 c 0
 430 -31 400 -23 383 -1 c 1
 351 -8 316 -11 279 -11 c 0
 131 -11 11 49 11 122 c 0
 11 195 131 254 279 254 c 0xdc
 331 254 380 247 421 234 c 1
 446 256 459 301 474 337 c 0
 511 427 73 412 79 372 c 0
 83 342 113 334 99 314 c 0
 95 308 90 308 84 303 c 0
 73 291 25 369 7 430 c 0
 -37 574 517 548 540 464 c 0xac
326 161 m 0
 347 182 358 186 370 195 c 1
 345 208 318 217 284 217 c 0
 200 217 152 174 152 119 c 0
 152 64 206 17 290 17 c 0
 320 17 336 22 359 32 c 1
 356 44 354 58 353 74 c 0
 351 97 385 100 388 77 c 0
 389 66 389 56 391 48 c 1
 416 66 419 93 419 119 c 0
 419 140 420 156 402 173 c 1
 385 158 368 144 352 130 c 0
 326 107 303 138 326 161 c 0
256 632 m 1
 211 630 247 572 224 560 c 0
 193 538 153 571 172 599 c 0
 180 611 201 630 219 646 c 1
 282 684 283 604 315 575 c 1
 360 577 327 629 346 646 c 0
 376 674 431 621 391 593 c 2
 351 561 l 1
 288 523 288 603 256 632 c 1
EndSplineSet
Validated: 33
Layer: 2
EndChar

StartChar: aring
Encoding: 229 229 127
Width: 570
Flags: MW
HStem: -31 20 17 200<248 301 242 305> 93 311 254 150 512 20G
VStem: 152 267<106 129.5 106 146.5>
LayerCount: 3
Back
Fore
SplineSet
540 464 m 0xac
 564 377 521 282 459 220 c 1
 513 196 547 161 547 122 c 0
 547 76 500 35 428 11 c 1
 439 6 453 5 481 5 c 0
 505 5 507 -31 484 -31 c 0
 430 -31 400 -23 383 -1 c 1
 351 -8 316 -11 279 -11 c 0
 131 -11 11 49 11 122 c 0
 11 195 131 254 279 254 c 0xdc
 331 254 380 247 421 234 c 1
 446 256 459 301 474 337 c 0
 511 427 73 412 79 372 c 0
 83 342 113 334 99 314 c 0
 95 308 90 308 84 303 c 0
 73 291 25 369 7 430 c 0
 -37 574 517 548 540 464 c 0xac
326 161 m 0
 347 182 358 186 370 195 c 1
 345 208 318 217 284 217 c 0
 200 217 152 174 152 119 c 0
 152 64 206 17 290 17 c 0
 320 17 336 22 359 32 c 1
 356 44 354 58 353 74 c 0
 351 97 385 100 388 77 c 0
 389 66 389 56 391 48 c 1
 416 66 419 93 419 119 c 0
 419 140 420 156 402 173 c 1
 385 158 368 144 352 130 c 0
 326 107 303 138 326 161 c 0
352 624 m 0
 352 581 317 546 274 546 c 0
 231 546 197 581 197 624 c 0
 197 667 231 702 274 702 c 0
 317 702 352 667 352 624 c 0
323 634 m 0
 323 656 305 673 284 673 c 0
 263 673 245 656 245 634 c 0
 245 613 263 596 284 596 c 0
 305 596 323 613 323 634 c 0
EndSplineSet
Validated: 33
Layer: 2
EndChar

StartChar: ccedilla
Encoding: 231 231 128
Width: 502
Flags: MW
HStem: -136 84 -19 20 -12 41 -7 21G<84 84> 496 43
VStem: 4 167 80 58 163 22 393 102
LayerCount: 3
Back
Fore
SplineSet
16 183 m 0x2c80
 -28 328 55 478 199 526 c 0
 300 560 414 525 469 435 c 0
 521 350 417 318 390 376 c 0
 358 446 364 496 277 496 c 0
 219 496 162 367 171 239 c 0x2c80
 180 111 209 29 274 29 c 0
 328 29 381 31 393 129 c 0
 402 228 522 219 489 111 c 0
 481 82 470 34 360 0 c 0
 285 -23 209 -13 146 22 c 1x2b80
 140 12 138 4 138 1 c 0xc980
 173 -7 225 -91 133 -131 c 0
 72 -157 65 -69 104 -56 c 0xab80
 121 -51 138 -45 153 -79 c 1
 173 -71 165 -25 124 -19 c 1x4980
 84 -7 l 1
 120 39 l 1x1980
 72 73 35 123 16 183 c 0x2c80
EndSplineSet
Validated: 33
Layer: 2
EndChar

StartChar: eacute
Encoding: 233 233 129
Width: 561
Flags: MW
HStem: -17 31<250 333.5 250 356> 260 30<241.5 281> 489 36<241.5 325>
VStem: 5 147<365.5 417 362.5 429.5> 14 140<116 116> 411 130<362.5 417>
LayerCount: 3
Back
Fore
SplineSet
5 393 m 0xf4
 5 338 71 294 166 273 c 1
 73 242 14 172 14 116 c 0
 14 43 134 -17 282 -17 c 0
 430 -17 550 63 550 136 c 1
 564 254 423 223 411 133 c 1
 411 78 375 14 292 14 c 0
 208 14 156 61 154 116 c 0xec
 152 201 198 260 281 260 c 0
 425 262 541 321 541 393 c 0
 541 466 421 525 273 525 c 0
 125 525 5 466 5 393 c 0xf4
152 390 m 0
 152 444 200 489 283 489 c 0
 367 489 411 444 411 390 c 0
 411 335 367 290 283 290 c 0
 200 290 152 335 152 390 c 0
169 560 m 0
 179 598 213 591 241 612 c 0
 284 643 297 710 348 696 c 0
 373 689 385 675 401 654 c 0
 459 576 156 509 169 560 c 0
EndSplineSet
Validated: 41
Layer: 2
EndChar

StartChar: egrave
Encoding: 232 232 130
Width: 561
Flags: MW
HStem: -17 31<250 333.5 250 356> 260 30<241.5 281> 489 36<241.5 325>
VStem: 5 147<365.5 417 362.5 429.5> 14 140<116 116> 411 130<362.5 417>
LayerCount: 3
Back
Fore
SplineSet
5 393 m 0xec
 5 466 125 525 273 525 c 0
 421 525 541 466 541 393 c 0
 541 321 425 262 281 260 c 0
 198 260 152 201 154 116 c 0xf4
 156 61 208 14 292 14 c 0
 375 14 411 78 411 133 c 1
 423 223 564 254 550 136 c 1
 550 63 430 -17 282 -17 c 0
 134 -17 14 43 14 116 c 0
 14 172 73 242 166 273 c 1
 71 294 5 338 5 393 c 0xec
152 390 m 0
 152 335 200 290 283 290 c 0
 367 290 411 335 411 390 c 0
 411 444 367 489 283 489 c 0
 200 489 152 444 152 390 c 0
369 598 m 1
 324 544 156 596 194 682 c 0
 214 729 259 734 286 708 c 0
 308 686 280 639 286 627 c 0
 303 592 350 629 369 598 c 1
EndSplineSet
Validated: 33
Layer: 2
EndChar

StartChar: ecircumflex
Encoding: 234 234 131
Width: 564
Flags: MW
HStem: -17 31<250 333.5 250 356> 260 30<241.5 281> 489 36<241.5 325>
VStem: 5 147<365.5 417 362.5 429.5> 14 140<116 116> 411 130<362.5 417>
LayerCount: 3
Back
Fore
SplineSet
5 393 m 0xec
 5 466 125 525 273 525 c 0
 421 525 541 466 541 393 c 0
 541 321 425 262 281 260 c 0
 198 260 152 201 154 116 c 0xf4
 156 61 208 14 292 14 c 0
 375 14 411 78 411 133 c 1
 423 223 564 254 550 136 c 1
 550 63 430 -17 282 -17 c 0
 134 -17 14 43 14 116 c 0
 14 172 73 242 166 273 c 1
 71 294 5 338 5 393 c 0xec
152 390 m 0
 152 335 200 290 283 290 c 0
 367 290 411 335 411 390 c 0
 411 444 367 489 283 489 c 0
 200 489 152 444 152 390 c 0
305 639 m 1
 231 548 l 2
 209 521 167 566 194 588 c 2
 297 669 l 2
 303 673 309 673 315 668 c 2
 315 668 392 605 417 584 c 0
 444 562 399 520 378 548 c 2
 305 639 l 1
EndSplineSet
Validated: 33
Layer: 2
EndChar

StartChar: edieresis
Encoding: 235 235 132
Width: 559
Flags: MW
HStem: -17 31<250 333.5 250 356> 260 30<241.5 281> 489 36<241.5 325> 554 152
VStem: 5 147<365.5 417 362.5 429.5> 14 140<116 116> 131 144 315 142 411 130<362.5 417>
LayerCount: 3
Back
Fore
SplineSet
5 393 m 0xf9
 5 466 125 525 273 525 c 0
 421 525 541 466 541 393 c 0xf280
 541 321 425 262 281 260 c 0
 198 260 152 201 154 116 c 0xf5
 156 61 208 14 292 14 c 0
 375 14 411 78 411 133 c 1xf280
 423 223 564 254 550 136 c 1
 550 63 430 -17 282 -17 c 0
 134 -17 14 43 14 116 c 0xf5
 14 172 73 242 166 273 c 1
 71 294 5 338 5 393 c 0xf9
152 390 m 0
 152 335 200 290 283 290 c 0
 367 290 411 335 411 390 c 0xf280
 411 444 367 489 283 489 c 0
 200 489 152 444 152 390 c 0
226 623 m 0
 226 651 249 673 276 673 c 0
 304 673 327 651 327 623 c 0
 327 595 304 572 276 572 c 0
 249 572 226 595 226 623 c 0
102 623 m 0
 102 651 125 673 152 673 c 0
 180 673 203 651 203 623 c 0
 203 595 180 572 152 572 c 0
 125 572 102 595 102 623 c 0
EndSplineSet
Validated: 33
Layer: 2
EndChar

StartChar: iacute
Encoding: 237 237 133
Width: 265
Flags: MW
HStem: -22 20 36 279
LayerCount: 3
Back
Fore
SplineSet
80 36 m 2
 145 36 l 1
 147 103 151 239 151 325 c 1
 76 280 17 387 92 444 c 0
 127 470 177 478 199 435 c 0
 210 413 194 180 179 36 c 1
 244 36 l 2
 268 37 269 0 245 0 c 2
 174 0 l 1
 166 -32 147 -25 144 0 c 1
 80 0 l 2
 57 0 57 36 80 36 c 2
10 522 m 0
 20 560 54 553 82 574 c 0
 125 605 138 672 189 658 c 0
 214 651 226 637 242 616 c 0
 300 538 -3 471 10 522 c 0
EndSplineSet
Validated: 33
Layer: 2
EndChar

StartChar: igrave
Encoding: 236 236 134
Width: 256
Flags: MW
HStem: -22 20 36 279
LayerCount: 3
Back
Fore
SplineSet
74 36 m 2
 139 36 l 1
 141 103 145 239 145 325 c 1
 70 280 11 387 86 444 c 0
 121 470 171 478 193 435 c 0
 204 413 188 180 173 36 c 1
 238 36 l 2
 262 37 263 0 239 0 c 2
 168 0 l 1
 160 -32 141 -25 138 0 c 1
 74 0 l 2
 51 0 51 36 74 36 c 2
236 521 m 1
 191 467 23 519 61 605 c 0
 81 652 126 657 153 631 c 0
 175 609 147 562 153 550 c 0
 170 515 217 552 236 521 c 1
EndSplineSet
Validated: 33
Layer: 2
EndChar

StartChar: icircumflex
Encoding: 238 238 135
Width: 262
Flags: MW
HStem: -22 20 36 279
LayerCount: 3
Back
Fore
SplineSet
56 36 m 2
 121 36 l 1
 123 103 127 239 127 325 c 1
 52 280 -7 387 68 444 c 0
 103 470 153 478 175 435 c 0
 186 413 170 180 155 36 c 1
 220 36 l 2
 244 37 245 0 221 0 c 2
 150 0 l 1
 142 -32 123 -25 120 0 c 1
 56 0 l 2
 33 0 33 36 56 36 c 2
126 589 m 1
 52 498 l 2
 30 471 -12 516 15 538 c 2
 118 619 l 2
 124 623 130 623 136 618 c 2
 136 618 213 555 238 534 c 0
 265 512 220 470 199 498 c 2
 126 589 l 1
EndSplineSet
Validated: 33
Layer: 2
EndChar

StartChar: idieresis
Encoding: 239 239 136
Width: 293
Flags: MW
HStem: -22 20 36 279 474 152 481 153
VStem: 13 144 197 142
LayerCount: 3
Back
Fore
SplineSet
112 36 m 2
 177 36 l 1
 179 103 183 239 183 325 c 1
 108 280 49 387 124 444 c 0
 159 470 209 478 231 435 c 0
 242 413 226 180 211 36 c 1
 276 36 l 2
 300 37 301 0 277 0 c 2
 206 0 l 1
 198 -32 179 -25 176 0 c 1
 112 0 l 2
 89 0 89 36 112 36 c 2
108 543 m 0
 108 571 131 593 158 593 c 0
 186 593 209 571 209 543 c 0
 209 515 186 492 158 492 c 0
 131 492 108 515 108 543 c 0
-16 543 m 0
 -16 571 7 593 34 593 c 0
 62 593 85 571 85 543 c 0
 85 515 62 492 34 492 c 0
 7 492 -16 515 -16 543 c 0
EndSplineSet
Validated: 33
Layer: 2
EndChar

StartChar: ntilde
Encoding: 241 241 137
Width: 515
Flags: MW
HStem: -1 20
LayerCount: 3
Back
Fore
SplineSet
21 330 m 0
 24 340 57 370 105 405 c 1
 105 417 105 427 105 437 c 1
 30 392 -32 499 43 556 c 0
 78 582 128 591 150 547 c 0
 154 540 158 498 160 440 c 1
 273 512 422 579 483 514 c 0
 519 475 416 113 391 0 c 1
 346 0 338 -1 262 -1 c 1
 196 -9 188 54 273 46 c 1
 355 233 352 381 284 434 c 0
 265 449 211 414 161 376 c 1
 163 248 155 81 128 0 c 1
 106 0 113 0 98 0 c 1
 106 25 105 200 104 330 c 1
 96 323 89 317 83 312 c 0
 49 285 13 303 21 330 c 0
EndSplineSet
Validated: 33
Layer: 2
EndChar

StartChar: oacute
Encoding: 243 243 138
Width: 568
Flags: MW
HStem: -15 20 515 20G
VStem: 173 224
LayerCount: 3
Back
Fore
SplineSet
18 179 m 0
 -26 325 56 479 201 523 c 0
 347 567 500 486 545 340 c 0
 589 195 507 41 362 -3 c 0
 217 -48 63 34 18 179 c 0
173 236 m 0
 182 108 213 35 276 27 c 0
 342 19 406 131 397 259 c 0
 388 387 348 487 279 487 c 0
 221 487 164 364 173 236 c 0
166 581 m 0
 176 619 210 612 238 633 c 0
 281 664 294 731 345 717 c 0
 370 710 382 696 398 675 c 0
 456 597 153 530 166 581 c 0
EndSplineSet
Validated: 33
Layer: 2
EndChar

StartChar: ograve
Encoding: 242 242 139
Width: 564
Flags: MW
HStem: -15 20 515 20G
VStem: 173 224
LayerCount: 3
Back
Fore
SplineSet
18 179 m 0
 -26 325 56 479 201 523 c 0
 347 567 500 486 545 340 c 0
 589 195 507 41 362 -3 c 0
 217 -48 63 34 18 179 c 0
173 236 m 0
 182 108 213 35 276 27 c 0
 342 19 406 131 397 259 c 0
 388 387 348 487 279 487 c 0
 221 487 164 364 173 236 c 0
386 601 m 1
 341 547 173 599 211 685 c 0
 231 732 276 737 303 711 c 0
 325 689 297 642 303 630 c 0
 320 595 367 632 386 601 c 1
EndSplineSet
Validated: 33
Layer: 2
EndChar

StartChar: ocircumflex
Encoding: 244 244 140
Width: 557
Flags: MW
HStem: -15 20 515 20G
VStem: 173 224
LayerCount: 3
Back
Fore
SplineSet
18 179 m 0
 -26 325 56 479 201 523 c 0
 347 567 500 486 545 340 c 0
 589 195 507 41 362 -3 c 0
 217 -48 63 34 18 179 c 0
173 236 m 0
 182 108 213 35 276 27 c 0
 342 19 406 131 397 259 c 0
 388 387 348 487 279 487 c 0
 221 487 164 364 173 236 c 0
288 788 m 1
 214 697 l 2
 192 670 150 715 177 737 c 2
 280 818 l 2
 286 822 292 822 298 817 c 2
 298 817 375 754 400 733 c 0
 427 711 382 669 361 697 c 2
 288 788 l 1
EndSplineSet
Validated: 33
Layer: 2
EndChar

StartChar: odieresis
Encoding: 246 246 141
Width: 567
Flags: MW
HStem: -15 20 515 20G 548 152
VStem: 125 144 173 224 309 142
LayerCount: 3
Back
Fore
SplineSet
18 179 m 0xf4
 -26 325 56 479 201 523 c 0
 347 567 500 486 545 340 c 0
 589 195 507 41 362 -3 c 0
 217 -48 63 34 18 179 c 0xf4
173 236 m 0xe8
 182 108 213 35 276 27 c 0
 342 19 406 131 397 259 c 0
 388 387 348 487 279 487 c 0
 221 487 164 364 173 236 c 0xe8
220 617 m 0
 220 645 243 667 270 667 c 0
 298 667 321 645 321 617 c 0
 321 589 298 566 270 566 c 0
 243 566 220 589 220 617 c 0
96 617 m 0
 96 645 119 667 146 667 c 0
 174 667 197 645 197 617 c 0
 197 589 174 566 146 566 c 0
 119 566 96 589 96 617 c 0
EndSplineSet
Validated: 33
Layer: 2
EndChar

StartChar: otilde
Encoding: 245 245 142
Width: 581
Flags: MW
HStem: -15 20 515 20G
VStem: 173 224
LayerCount: 3
Back
Fore
SplineSet
18 179 m 0
 -26 325 56 479 201 523 c 0
 347 567 500 486 545 340 c 0
 589 195 507 41 362 -3 c 0
 217 -48 63 34 18 179 c 0
173 236 m 0
 182 108 213 35 276 27 c 0
 342 19 406 131 397 259 c 0
 388 387 348 487 279 487 c 0
 221 487 164 364 173 236 c 0
EndSplineSet
Validated: 33
Layer: 2
EndChar

StartChar: uacute
Encoding: 250 250 143
Width: 554
Flags: MW
HStem: -8 20 -1 166
VStem: 26 127
LayerCount: 3
Back
Fore
SplineSet
43 18 m 0
 107 -41 245 12 344 67 c 1
 336 26 l 2
 331 -2 378 -16 381 13 c 2
 388 73 l 1
 517 157 400 12 454 0 c 0
 476 -5 506 3 520 18 c 0
 608 103 480 200 407 152 c 1
 469 570 l 2
 473 599 421 540 416 511 c 2
 351 118 l 1
 306 95 252 82 230 97 c 0
 153 151 127 298 181 485 c 1
 267 477 251 539 186 531 c 1
 111 531 101 531 56 531 c 1
 48 418 1 56 43 18 c 0
162 613 m 0
 172 651 206 644 234 665 c 0
 277 696 290 763 341 749 c 0
 366 742 378 728 394 707 c 0
 452 629 149 562 162 613 c 0
EndSplineSet
Validated: 41
Layer: 2
EndChar

StartChar: ugrave
Encoding: 249 249 144
Width: 554
Flags: MW
HStem: -8 20 -1 166
VStem: 26 127
LayerCount: 3
Back
Fore
SplineSet
43 18 m 0
 1 56 48 418 56 531 c 1
 101 531 111 531 186 531 c 1
 251 539 267 477 181 485 c 1
 127 298 153 151 230 97 c 0
 252 82 306 95 351 118 c 1
 416 511 l 2
 421 540 473 599 469 570 c 2
 407 152 l 1
 480 200 608 103 520 18 c 0
 506 3 476 -5 454 0 c 0
 400 12 517 157 388 73 c 1
 381 13 l 2
 378 -16 331 -2 336 26 c 2
 344 67 l 1
 245 12 107 -41 43 18 c 0
350 609 m 1
 305 555 137 607 175 693 c 0
 195 740 240 745 267 719 c 0
 289 697 261 650 267 638 c 0
 284 603 331 640 350 609 c 1
EndSplineSet
Validated: 33
Layer: 2
EndChar

StartChar: ucircumflex
Encoding: 251 251 145
Width: 559
Flags: MW
HStem: -8 20 -1 166
VStem: 26 127
LayerCount: 3
Back
Fore
SplineSet
43 18 m 0
 1 56 48 418 56 531 c 1
 101 531 111 531 186 531 c 1
 251 539 267 477 181 485 c 1
 127 298 153 151 230 97 c 0
 252 82 306 95 351 118 c 1
 416 511 l 2
 421 540 473 599 469 570 c 2
 407 152 l 1
 480 200 608 103 520 18 c 0
 506 3 476 -5 454 0 c 0
 400 12 517 157 388 73 c 1
 381 13 l 2
 378 -16 331 -2 336 26 c 2
 344 67 l 1
 245 12 107 -41 43 18 c 0
EndSplineSet
Validated: 33
Layer: 2
EndChar

StartChar: udieresis
Encoding: 252 252 146
Width: 554
Flags: MW
HStem: -8 20 -1 166 571 152 578 153
VStem: 26 127 110 144 294 142
LayerCount: 3
Back
Fore
SplineSet
43 18 m 0
 1 56 48 418 56 531 c 1
 101 531 111 531 186 531 c 1
 251 539 267 477 181 485 c 1
 127 298 153 151 230 97 c 0
 252 82 306 95 351 118 c 1
 416 511 l 2
 421 540 473 599 469 570 c 2
 407 152 l 1
 480 200 608 103 520 18 c 0
 506 3 476 -5 454 0 c 0
 400 12 517 157 388 73 c 1
 381 13 l 2
 378 -16 331 -2 336 26 c 2
 344 67 l 1
 245 12 107 -41 43 18 c 0
205 640 m 0
 205 668 228 690 255 690 c 0
 283 690 306 668 306 640 c 0
 306 612 283 589 255 589 c 0
 228 589 205 612 205 640 c 0
81 640 m 0
 81 668 104 690 131 690 c 0
 159 690 182 668 182 640 c 0
 182 612 159 589 131 589 c 0
 104 589 81 612 81 640 c 0
EndSplineSet
Validated: 33
Layer: 2
EndChar

StartChar: dagger
Encoding: 264 8224 147
Width: 380
Flags: MW
HStem: 332 47<64 149 75 149 75 156 340 350.5>
VStem: 146 121 179 62<119 119>
LayerCount: 3
Back
Fore
SplineSet
264 379 m 1xc0
 340 379 l 2
 361 379 361 332 340 332 c 2
 260 333 l 1xc0
 241 119 l 2
 237 74 184 74 179 119 c 2
 156 332 l 1xa0
 75 332 l 2
 53 332 54 379 75 379 c 2
 149 379 l 1
 143 455 l 2
 136 546 279 550 271 461 c 2
 264 379 l 1xc0
EndSplineSet
Validated: 33
Layer: 2
EndChar

StartChar: degree
Encoding: 176 176 148
Width: 124
Flags: MW
HStem: 609 37
VStem: 52 79
LayerCount: 3
Back
Fore
SplineSet
80 736 m 0
 101 746 124 727 131 693 c 0
 138 658 125 622 104 612 c 0
 82 601 59 620 52 655 c 0
 46 689 58 725 80 736 c 0
88 699 m 0
 69 697 58 690 57 675 c 0
 56 659 72 644 91 646 c 0
 111 649 126 658 126 674 c 0
 126 688 107 701 88 699 c 0
EndSplineSet
Validated: 33
Layer: 2
EndChar

StartChar: cent
Encoding: 162 162 149
Width: 511
Flags: MW
HStem: -12 41 496 43 528 171
VStem: 4 167 340 142 393 102
LayerCount: 3
Back
Fore
SplineSet
489 111 m 0xd4
 481 82 470 34 360 0 c 0xd4
 215 -44 61 38 16 183 c 0
 -28 328 55 478 199 526 c 0
 238 540 280 542 319 535 c 1xd8
 331 579 339 607 340 613 c 0
 369 740 438 699 464 659 c 0
 521 572 431 481 371 556 c 1
 370 548 368 537 365 524 c 1
 408 507 444 476 469 435 c 0
 521 350 417 318 390 376 c 0xb8
 373 415 367 446 351 468 c 1
 325 354 283 170 250 33 c 1
 258 31 265 29 274 29 c 0
 328 29 381 31 393 129 c 0
 402 228 522 219 489 111 c 0xd4
308 495 m 1
 300 496 288 496 277 496 c 0
 219 496 162 367 171 239 c 0
 176 171 188 115 206 78 c 1
 236 223 279 387 308 495 c 1
EndSplineSet
Validated: 33
Layer: 2
EndChar

StartChar: sterling
Encoding: 163 163 150
Width: 481
Flags: MW
HStem: 1 107 1 132<83.5 186.5 176 180 180 186.5 176 431> 390 45<26 98 41 98 41 99 151 280> 723 64
VStem: 99 51<333.5 361.5 361.5 390 333.5 390> 307 168
LayerCount: 3
Back
Fore
SplineSet
270 723 m 0xbc
 213 717 162 588 151 435 c 1
 280 435 l 2
 310 435 310 390 280 390 c 2
 150 390 l 1
 150 390 150 368 150 355 c 0
 150 312 145 234 176 133 c 1xbc
 197 133 230 75 327 135 c 1x7c
 258 228 388 268 445 201 c 0
 502 134 468 1 431 1 c 0
 367 1 232 1 180 1 c 0
 158 1 122 1 107 1 c 0
 60 1 30 34 30 76 c 0
 30 118 52 154 99 154 c 1
 99 161 99 390 99 390 c 1
 41 390 l 2
 11 390 11 435 41 435 c 2
 98 435 l 1
 98 435 98 620 98 628 c 1
 227 848 369 812 458 691 c 0
 538 582 378 521 361 608 c 0
 342 709 319 727 270 723 c 0xbc
EndSplineSet
Validated: 33
Layer: 2
EndChar

StartChar: section
Encoding: 167 167 151
Width: 486
Flags: MW
HStem: -15 42 197 55 315 57 356 44 408 47 494 44 737 48
VStem: 29 70 108 100 307 125 352 126
LayerCount: 3
Back
Fore
SplineSet
222 478 m 0xefc0
 194 449 175 409 128 408 c 0
 -27 406 -3 776 217 785 c 0
 355 791 440 700 402 611 c 0
 379 556 272 553 289 632 c 0
 301 687 254 767 173 725 c 0
 156 717 134 669 123 640 c 0
 90 553 89 430 135 459 c 0
 154 470 163 477 173 489 c 0
 189 508 202 524 227 530 c 0xcf40
 400 573 458 432 422 321 c 1
 498 239 515 89 356 12 c 0
 270 -30 87 -29 49 50 c 0
 43 63 24 113 22 131 c 0
 10 226 106 275 129 177 c 0
 140 130 155 56 181 43 c 0
 265 1 349 41 352 151 c 0
 352 172 354 198 349 226 c 1
 332 214 319 207 297 203 c 0
 293 202 228 188 205 203 c 1
 70 246 112 341 124 359 c 0
 148 400 202 428 208 356 c 1xdfa0
 208 356 202 338 205 309 c 0
 213 228 281 237 302 311 c 1
 291 317 281 316 263 312 c 0
 234 306 231 359 269 367 c 0
 281 369 296 372 307 372 c 1
 303 436 273 532 222 478 c 0xefc0
EndSplineSet
Validated: 33
Layer: 2
EndChar

StartChar: bullet
Encoding: 265 8226 152
Width: 581
Flags: MW
HStem: -15 42 487 48
VStem: 6 167 397 160
LayerCount: 3
Back
Fore
SplineSet
18 179 m 0
 -26 325 56 479 201 523 c 0
 347 567 500 486 545 340 c 0
 589 195 507 41 362 -3 c 0
 217 -48 63 34 18 179 c 0
173 236 m 0
 182 108 213 35 276 27 c 0
 342 19 406 131 397 259 c 0
 388 387 348 487 279 487 c 0
 221 487 164 364 173 236 c 0
EndSplineSet
Validated: 33
Layer: 2
EndChar

StartChar: paragraph
Encoding: 182 182 153
Width: 683
Flags: MW
HStem: -6 164 -4 164 0 160 232 42 733 49
VStem: 28 167 240 55<137 232 137 240 137 240> 484 87<0 16 139 203.5 203.5 299 299 299>
LayerCount: 3
Back
Fore
SplineSet
661 30 m 0x5f
 636 -4 605 -19 571 16 c 1x5f
 574 10 575 5 571 0 c 1
 484 0 l 1x3f
 484 299 484 299 484 299 c 1
 456 274 422 255 384 243 c 0
 355 234 323 231 295 232 c 1
 295 232 295 178 295 137 c 1
 354 201 454 105 398 29 c 0x9f
 372 -6 322 -22 288 14 c 1
 285 8 279 0 279 0 c 1
 240 0 l 1x3f
 240 240 l 1
 148 262 70 330 40 426 c 0
 -4 571 78 725 223 770 c 0
 368 814 522 732 567 587 c 0
 582 538 583 488 571 441 c 1
 571 441 571 268 571 139 c 1
 629 204 717 107 661 30 c 0x5f
419 505 m 0
 410 633 370 733 300 733 c 0
 243 733 186 610 195 482 c 0
 204 354 235 282 298 274 c 0x9f
 364 265 428 377 419 505 c 0
EndSplineSet
Validated: 33
Layer: 2
EndChar

StartChar: germandbls
Encoding: 223 223 154
Width: 614
Flags: MW
HStem: -22 25 1 21G<131 162 131 138> 193 38 274 38 671 112
VStem: 3 61 131 54 228 55 343 99
LayerCount: 3
Back
Fore
SplineSet
185 583 m 1xbf80
 187 458 191 85 162 1 c 1
 141 1 145 1 131 1 c 1x7f80
 131 23 129 208 128 377 c 1
 69 372 40 337 87 269 c 0
 101 250 23 219 15 241 c 0
 -25 350 35 448 127 487 c 1
 127 559 127 620 128 649 c 0
 128 732 268 805 347 777 c 1
 541 685 389 481 313 411 c 0
 270 372 283 284 295 250 c 0
 304 225 325 221 360 261 c 0
 376 279 392 302 417 308 c 0
 533 335 631 236 613 135 c 0
 604 85 567 34 489 -1 c 0
 402 -41 299 -24 261 51 c 0
 255 63 235 82 238 99 c 0
 241 121 271 159 299 167 c 0
 319 172 338 164 348 126 c 0
 359 82 335 52 356 34 c 0
 444 -44 495 36 498 140 c 0
 499 178 486 241 461 264 c 0
 448 277 432 279 412 259 c 0
 384 231 364 193 318 193 c 0
 245 192 219 266 231 346 c 0
 249 454 391 588 327 645 c 0
 288 680 205 698 185 583 c 1xbf80
EndSplineSet
Validated: 33
Layer: 2
EndChar

StartChar: registered
Encoding: 174 174 155
Width: 658
Flags: MW
HStem: 78 35<259.5 353.5 259.5 412> 154 34<212 243 220 243 220 260 271 305> 340 21 578 20G<341 363> 598 18 630 35<319 402.5>
VStem: 37 35<300.5 415.5 300.5 453> 245 31 440 76 589 40<338 443>
LayerCount: 3
Back
Fore
SplineSet
629 376 m 0xf7c0
 629 214 493 78 331 78 c 0
 169 78 37 209 37 372 c 0
 37 534 169 665 331 665 c 0
 493 665 629 538 629 376 c 0xf7c0
589 372 m 0
 589 514 474 630 331 630 c 0xebc0
 307 630 283 627 261 621 c 1
 263 618 266 616 267 613 c 0
 268 612 269 606 270 598 c 1
 364 645 480 597 508 522 c 0
 533 456 497 387 425 356 c 1
 428 349 440 321 482 219 c 1
 495 229 517 216 522 197 c 1
 564 243 589 304 589 372 c 0
440 478 m 0
 430 560 385 598 341 598 c 0
 317 597 289 565 278 527 c 1
 278 500 276 472 276 441 c 1
 284 387 303 365 339 361 c 0
 381 357 449 401 440 478 c 0
455 146 m 1
 445 152 436 163 429 178 c 0
 425 188 402 239 360 340 c 1
 329 336 301 339 276 348 c 1
 276 287 276 228 271 188 c 1
 307 188 l 2xebc0
 324 188 333 180 333 170 c 0
 333 161 322 154 305 154 c 2
 260 154 l 1
 220 154 l 2
 204 154 192 162 192 171 c 0
 192 180 204 188 220 188 c 2xf7c0
 243 188 l 1
 245 228 246 295 245 361 c 1
 224 374 220 376 206 397 c 0
 176 440 215 492 242 468 c 1
 242 488 242 537 242 547 c 1
 211 529 181 554 182 583 c 1
 116 536 72 459 72 372 c 0
 72 229 188 113 331 113 c 0
 376 113 418 126 455 146 c 1
EndSplineSet
Validated: 33
Layer: 2
EndChar

StartChar: copyright
Encoding: 169 169 156
Width: 637
Flags: MW
HStem: 145 36 578 37
VStem: 127 116
LayerCount: 3
Back
Fore
SplineSet
318 675 m 0
 480 675 616 548 616 386 c 0
 616 224 480 88 318 88 c 0
 155 88 24 220 24 382 c 0
 24 544 155 675 318 675 c 0
318 640 m 0
 175 640 59 525 59 382 c 0
 59 239 175 123 318 123 c 0
 460 123 576 239 576 382 c 0
 576 525 460 640 318 640 c 0
465 250 m 0
 459 225 452 184 375 156 c 0
 274 118 166 187 136 312 c 0
 105 435 163 563 263 604 c 0
 333 633 412 603 451 526 c 0
 487 454 415 427 396 476 c 0
 374 536 378 578 317 578 c 0
 277 578 237 468 243 359 c 0
 250 250 270 181 315 181 c 0
 353 181 390 182 398 265 c 0
 405 349 488 342 465 250 c 0
EndSplineSet
Validated: 33
Layer: 2
EndChar

StartChar: trademark
Encoding: 266 8482 157
Width: 577
Flags: MW
HStem: 445 21<222 236 222 225.5 296 354 296 313 443 501 443 460> 590 34<26.5 67 38 65 86 166 38 84> 638 50 639 67
VStem: 61 21<459 499> 68 21 105 70 184 66 227 24<586 595> 329 69 476 70
LayerCount: 3
Back
Fore
SplineSet
38 624 m 2xc8e0
 67 624 l 1xc4e0
 68 631 68 638 68 644 c 1
 34 624 4 670 38 696 c 0
 54 708 89 713 89 691 c 0xd4e0
 89 687 88 659 86 624 c 1
 166 624 l 2
 189 624 189 590 166 590 c 2xc4e0
 84 590 l 1
 83 554 82 514 82 484 c 0xc8e0
 82 464 108 460 105 500 c 0
 101 561 183 541 175 497 c 0xcae0
 174 487 153 461 113 444 c 0
 99 437 61 450 61 468 c 0
 61 480 63 539 65 590 c 1
 38 590 l 2
 15 590 15 624 38 624 c 2xc8e0
228 627 m 1
 228 632 228 639 228 643 c 1
 194 623 164 670 198 695 c 0xd960
 213 707 236 711 246 691 c 0xd8e0
 247 688 249 670 250 644 c 1
 301 676 368 705 395 676 c 0
 399 672 400 660 398 644 c 1
 449 676 515 705 542 676 c 0xe8e0
 559 659 512 496 501 445 c 1
 481 445 477 445 443 445 c 1
 413 441 410 470 448 466 c 1
 485 550 484 617 453 641 c 0
 444 648 416 628 393 610 c 1
 382 553 361 477 354 445 c 1
 333 445 330 445 296 445 c 1
 266 441 263 469 301 466 c 1
 338 550 336 616 306 640 c 0
 297 647 272 632 251 615 c 1
 251 557 248 482 236 445 c 1
 226 445 229 445 222 445 c 1
 226 456 227 537 227 595 c 1
 222 592 218 588 215 586 c 0
 200 573 184 581 188 593 c 0
 189 598 205 611 228 627 c 1
EndSplineSet
Validated: 33
Layer: 2
EndChar

StartChar: acute
Encoding: 180 180 158
Width: 308
Flags: MW
HStem: 516 156
VStem: 34 239
LayerCount: 3
Back
Fore
SplineSet
34 534 m 0
 44 572 78 565 106 586 c 0
 149 617 162 684 213 670 c 0
 238 663 250 649 266 628 c 0
 324 550 21 483 34 534 c 0
EndSplineSet
Validated: 33
Layer: 2
EndChar

StartChar: dieresis
Encoding: 168 168 159
Width: 295
Flags: MW
HStem: 507 152 514 153
VStem: 66 144 250 142
LayerCount: 3
Back
Fore
SplineSet
161 576 m 0
 161 604 184 626 211 626 c 0
 239 626 262 604 262 576 c 0
 262 548 239 525 211 525 c 0
 184 525 161 548 161 576 c 0
37 576 m 0
 37 604 60 626 87 626 c 0
 115 626 138 604 138 576 c 0
 138 548 115 525 87 525 c 0
 60 525 37 548 37 576 c 0
EndSplineSet
Validated: 1
Layer: 2
EndChar

StartChar: notequal
Encoding: 267 8800 160
Width: 304
Flags: MW
HStem: 171 67 178 38 262 66 269 37 351 25
VStem: 11 250 21 249 136 30
LayerCount: 3
Back
Fore
SplineSet
252 183 m 2x9c
 114 174 l 1
 98 135 l 2
 93 123 74 131 79 143 c 2
 92 173 l 1
 35 169 l 2
 3 167 2 247 37 243 c 2
 117 233 l 1
 130 266 l 1x9c
 29 273 l 2
 18 274 18 305 29 307 c 2x9a
 153 321 l 1
 166 352 l 1
 148 351 l 2
 134 350 132 369 145 371 c 0
 161 374 203 386 193 363 c 2x99
 177 324 l 1
 244 332 l 2
 279 336 278 257 247 259 c 2
 152 265 l 1xa9
 137 231 l 1
 253 217 l 2x6c
 264 216 263 184 252 183 c 2x9c
EndSplineSet
Validated: 33
Layer: 2
EndChar

StartChar: AE
Encoding: 198 198 161
Width: 945
Flags: MW
HStem: -2 170 0 109 147 21<135 135> 300 56<306.5 364 320 364 320 369> 352 57<508 618 508 508> 630 117<449 657 449 462>
VStem: 723 125 791 168
LayerCount: 3
Back
Fore
SplineSet
398 28 m 2x6d
 369 300 l 1
 320 300 l 2
 293 300 270 313 270 328 c 0
 270 343 293 356 320 356 c 2
 364 356 l 1
 338 634 l 1
 168 35 l 2
 157 -3 35 -33 20 55 c 0x95
 -9 230 142 152 135 147 c 1
 298 744 l 2
 301 754 310 768 316 773 c 0
 350 799 418 799 440 755 c 0
 441 754 442 753 443 747 c 1
 472 747 612 747 657 747 c 0
 825 747 949 469 733 481 c 0
 714 482 645 527 673 556 c 0
 706 591 774 627 657 630 c 0x6e
 643 630 475 630 449 630 c 1
 403 582 430 549 454 492 c 2
 486 409 l 1
 618 409 l 2
 646 409 668 396 668 380 c 0
 668 365 646 352 618 352 c 2
 508 352 l 1
 592 126 l 1
 651 110 745 93 811 135 c 1
 742 227 871 267 929 200 c 0
 986 134 951 0 914 0 c 2
 551 0 l 1
 493 -43 407 -49 398 28 c 2x6d
EndSplineSet
Validated: 37
Layer: 2
EndChar

StartChar: Oslash
Encoding: 216 216 162
Width: 845
Flags: MW
HStem: -6 61 -6 170 136 28 715 71
VStem: 52 234 390 91
LayerCount: 3
Back
Fore
SplineSet
325 767 m 0x5c
 497 820 723 768 780 574 c 1
 734 595 666 588 616 537 c 0
 533 450 462 360 435 326 c 0
 384 265 353 215 360 191 c 0
 371 151 400 162 417 179 c 1
 391 191 380 220 400 243 c 0x5c
 428 275 481 238 481 203 c 0
 481 133 374 113 339 168 c 0
 322 196 311 237 380 326 c 1
 564 615 l 1
 550 652 516 715 434 715 c 0
 353 714 273 538 286 354 c 0
 298 170 342 66 431 55 c 0xbc
 523 43 613 203 600 387 c 0
 598 417 583 513 677 551 c 0
 755 583 798 537 808 504 c 0
 870 296 755 75 551 11 c 0
 347 -53 131 65 69 273 c 0
 6 482 121 703 325 767 c 0x5c
EndSplineSet
Validated: 33
Layer: 2
EndChar

StartChar: infinity
Encoding: 268 8734 163
Width: 678
Flags: MW
HStem: 180 7 292 16
VStem: 17 111 318 35 533 106
LayerCount: 3
Back
Fore
SplineSet
254 180 m 0
 157 169 55 188 25 223 c 0
 -4 258 50 295 147 305 c 0
 213 313 283 307 330 276 c 1
 351 283 373 302 402 306 c 0
 499 316 601 297 631 262 c 0
 661 227 606 190 509 180 c 0
 444 173 378 186 333 210 c 1
 313 203 284 183 254 180 c 0
128 237 m 0
 131 214 155 189 197 187 c 0
 241 185 320 211 318 242 c 0
 316 273 264 292 217 292 c 0
 179 291 124 268 128 237 c 0
353 237 m 0
 355 206 410 189 452 187 c 0
 496 185 539 212 533 242 c 0
 527 273 485 292 438 292 c 0
 400 291 351 268 353 237 c 0
EndSplineSet
Validated: 33
Layer: 2
EndChar

StartChar: plusminus
Encoding: 177 177 164
Width: 402
Flags: MW
HStem: 51 54 140 170 314 26<169 169> 351 170
VStem: 12 170 173 54<165 167> 188 26<297 297> 223 170
LayerCount: 3
Back
Fore
SplineSet
236 340 m 2xa9
 365 355 l 2
 401 360 402 298 368 301 c 2
 236 314 l 2
 218 316 218 338 236 340 c 2xa9
169 340 m 2
 186 338 186 316 169 314 c 2
 37 301 l 2
 2 298 4 360 39 355 c 2
 169 340 l 2
188 364 m 2x92
 173 494 l 2
 169 529 230 530 227 496 c 2x94
 214 364 l 2
 212 347 190 347 188 364 c 2x92
188 297 m 2xc2
 190 314 212 314 214 297 c 2xc2
 227 165 l 2
 230 131 169 132 173 167 c 2xc4
 188 297 l 2xc2
43 99 m 2x82
 357 112 l 2
 380 113 380 51 357 51 c 2
 43 64 l 2
 20 65 20 98 43 99 c 2x82
EndSplineSet
Validated: 33
Layer: 2
EndChar

StartChar: lessequal
Encoding: 269 8804 165
Width: 402
Flags: MW
HStem: 4 82<379 383> 4 671
VStem: 56 45<344.5 425.5 344.5 439.5>
LayerCount: 3
Back
Fore
SplineSet
271 114 m 0x60
 163 179 56 276 56 385 c 0
 56 494 105 583 208 659 c 0
 286 717 401 598 312 558 c 0
 193 505 101 466 101 385 c 0
 101 304 190 233 302 165 c 0
 328 150 297 99 271 114 c 0x60
34 57 m 2xa0
 379 86 l 2
 434 91 434 1 383 4 c 2
 35 19 l 2
 17 20 16 56 34 57 c 2xa0
EndSplineSet
Validated: 33
Layer: 2
EndChar

StartChar: greaterequal
Encoding: 270 8805 166
Width: 418
Flags: MW
HStem: 4 82<59 63> 4 671 19 38<407 408>
VStem: 341 45<344.5 425.5>
LayerCount: 3
Back
Fore
SplineSet
171 114 m 0x50
 145 99 114 150 140 165 c 0
 252 233 341 304 341 385 c 0
 341 466 249 505 130 558 c 0
 41 598 156 717 234 659 c 0
 337 583 386 494 386 385 c 0
 386 276 279 179 171 114 c 0x50
408 57 m 2x30
 426 56 425 20 407 19 c 2x30
 59 4 l 2
 8 1 7 91 63 86 c 2x90
 408 57 l 2x30
EndSplineSet
Validated: 33
Layer: 2
EndChar

StartChar: yen
Encoding: 165 165 167
Width: 590
Flags: MW
HStem: -5 58<212 276 226 276 226 291 336 369> 169 74 179 46 270 75 280 46 547 171
VStem: 276 60<53 67>
LayerCount: 3
Back
Fore
SplineSet
572 563 m 2xae
 387 342 l 1
 475 350 l 2
 531 354 530 265 479 267 c 2
 338 274 l 1
 338 259 338 246 339 232 c 1
 489 220 l 2
 507 218 506 183 488 182 c 2
 343 177 l 1xb6
 345 141 344 102 336 53 c 1
 371 53 l 2
 398 53 421 41 421 25 c 0
 421 9 396 -5 369 -5 c 2
 291 -5 l 1
 226 -5 l 2
 198 -5 176 9 176 25 c 0
 176 41 198 53 226 53 c 2
 276 53 l 1
 276 81 276 125 277 173 c 1
 140 166 l 2
 89 164 89 253 144 249 c 2
 275 238 l 1xce
 275 252 277 263 277 277 c 1
 131 283 l 2
 114 284 113 319 130 321 c 2
 271 332 l 1
 242 379 171 502 120 581 c 1
 81 503 -23 571 9 660 c 0
 24 701 61 735 104 710 c 0
 122 700 180 620 287 422 c 1
 409 704 l 2
 460 821 652 657 572 563 c 2xae
EndSplineSet
Validated: 33
Layer: 2
EndChar

StartChar: mu
Encoding: 181 181 168
Width: 559
Flags: MW
HStem: -8 99 -3 94 0 21G 99 66 485 46 558 20G
VStem: 26 126 336 48 439 111
LayerCount: 3
Back
Fore
SplineSet
43 18 m 0x8f80
 1 56 48 418 56 531 c 1
 101 531 111 531 186 531 c 1
 251 539 267 477 181 485 c 1
 127 298 153 151 230 97 c 0x8f80
 252 82 306 95 351 118 c 1
 416 511 l 2
 421 540 473 599 469 570 c 2
 407 152 l 1
 480 200 608 103 520 18 c 0
 506 3 476 -5 454 0 c 0
 400 12 517 157 388 73 c 1x3f80
 381 13 l 2
 378 -16 331 -2 336 26 c 2x4f80
 344 67 l 1
 245 12 107 -41 43 18 c 0x8f80
EndSplineSet
Validated: 33
Layer: 2
EndChar

StartChar: partialdiff
Encoding: 271 8706 169
Width: 565
Flags: MW
HStem: -2 35 407 59
VStem: 8 165 439 124
LayerCount: 3
Back
Fore
SplineSet
17 293 m 0
 52 403 143 479 274 466 c 1
 269 468 293 407 293 407 c 1
 222 407 182 326 173 221 c 0
 164 117 229 26 295 33 c 0
 359 39 430 108 439 212 c 0
 447 307 280 646 150 703 c 0
 136 710 149 728 165 724 c 0
 425 646 601 275 556 157 c 0
 511 38 356 -29 209 8 c 0
 62 44 -21 172 17 293 c 0
EndSplineSet
Validated: 37
Layer: 2
EndChar

StartChar: summation
Encoding: 272 8721 170
Width: 572
Flags: MW
HStem: 0 105 643 114
VStem: 16 135 405 168 431 125
LayerCount: 3
Back
Fore
SplineSet
132 635 m 1xe8
 175 580 244 471 305 381 c 1
 230 269 155 200 172 130 c 1
 193 124 328 74 425 135 c 1
 355 227 485 267 543 200 c 0
 599 134 565 0 527 0 c 2xf0
 111 0 l 2
 64 0 20 32 20 75 c 0
 20 143 173 289 207 381 c 1
 157 489 -63 687 45 768 c 0
 73 788 145 808 151 757 c 1
 180 757 320 760 365 759 c 0
 534 759 657 480 441 491 c 0
 422 492 353 537 381 566 c 0
 415 601 482 640 365 643 c 0
 352 643 140 649 132 635 c 1xe8
EndSplineSet
Validated: 33
Layer: 2
EndChar

StartChar: product
Encoding: 273 8719 171
Width: 533
Flags: MW
HStem: -6 164 -4 164 0 160 448 164
VStem: 85 55<137 448 137 448 137 448> 329 86<0 16 139 449 449 449>
LayerCount: 3
Back
Fore
SplineSet
415 139 m 1x5c
 474 204 562 107 506 30 c 0x5c
 481 -4 450 -19 415 16 c 1
 412 10 415 0 415 0 c 1
 329 0 l 1x3c
 329 449 l 1
 140 448 l 1
 140 448 140 214 140 137 c 1
 198 201 298 105 242 29 c 0x9c
 217 -6 167 -22 133 14 c 1
 129 8 124 0 124 0 c 1
 85 0 l 1x3c
 85 448 l 1
 71 448 l 2
 43 448 20 479 20 527 c 0
 20 575 43 613 71 613 c 2
 140 613 l 1
 415 613 l 1
 415 613 416 368 415 139 c 1x5c
EndSplineSet
Validated: 33
Layer: 2
EndChar

StartChar: pi
Encoding: 274 960 172
Width: 370
Flags: MW
HStem: -4 115 -2 115 1 112 315 115<31 89 41 50 89 221 41 89>
VStem: 50 39<96 315 96 315 96 315> 78 94 221 61<1 12 98 315 315 315>
LayerCount: 3
Back
Fore
SplineSet
282 98 m 1x5a
 323 144 384 76 345 22 c 0x5a
 328 -2 306 -13 282 12 c 1
 280 8 282 1 282 1 c 1
 221 1 l 1x3a
 221 315 l 1
 89 315 l 1
 89 315 89 150 89 96 c 1
 130 142 200 74 161 21 c 0x9a
 143 -4 108 -15 84 10 c 1
 82 7 78 1 78 1 c 1x36
 50 1 l 1x3a
 50 315 l 1
 41 315 l 2
 21 315 5 336 5 369 c 0
 5 403 21 430 41 430 c 2
 89 430 l 1
 282 430 l 1
 282 430 282 258 282 98 c 1x5a
EndSplineSet
Validated: 33
Layer: 2
EndChar

StartChar: integral
Encoding: 275 8747 173
Width: 481
Flags: MW
HStem: -47 136 647 134
VStem: 216 44
LayerCount: 3
Back
Fore
SplineSet
269 583 m 0
 250 475 268 223 267 87 c 0
 266 -34 -9 -138 2 79 c 0
 3 98 48 167 77 139 c 0
 112 105 189 38 210 154 c 0
 229 262 197 507 198 644 c 0
 199 765 488 874 476 658 c 0
 475 639 431 570 402 597 c 0
 366 631 289 698 269 583 c 0
EndSplineSet
Validated: 33
Layer: 2
EndChar

StartChar: ordfeminine
Encoding: 170 170 174
Width: 279
Flags: MW
HStem: 480 15<212 222.5 212 223.5> 488 11<124.5 144.5> 505 25 561 20G 566 20G 580 14<122.5 146> 653 52
VStem: 30 56<529 551 529 556> 167 13<519 528> 193 51<535 544.5>
LayerCount: 3
Back
Fore
SplineSet
241 678 m 0x4bc0
 251 643 234 605 209 581 c 1
 231 571 244 557 244 541 c 0
 244 523 225 507 196 497 c 1
 201 495 206 495 218 495 c 0
 227 495 228 480 219 480 c 0x93c0
 197 480 185 483 179 492 c 1
 166 489 152 488 137 488 c 0
 78 488 30 512 30 541 c 0
 30 571 78 594 137 594 c 0x47c0
 158 594 177 591 194 586 c 1
 204 595 209 613 215 627 c 0
 230 663 55 657 57 641 c 0
 59 629 71 626 65 618 c 0
 63 616 61 616 59 614 c 0
 55 609 35 640 28 664 c 0
 11 722 232 712 241 678 c 0x4bc0
156 557 m 0x5380
 164 565 169 567 174 571 c 1
 163 576 153 580 139 580 c 0
 106 580 86 562 86 540 c 0
 86 518 108 499 141 499 c 0x4780
 153 499 160 501 169 505 c 1
 168 510 167 516 167 522 c 0x2780
 166 531 180 533 180 523 c 0
 181 519 181 515 182 512 c 1
 192 519 193 530 193 540 c 0
 193 549 193 555 186 562 c 1x33c0
 179 556 173 550 166 544 c 0
 156 535 147 548 156 557 c 0x5380
EndSplineSet
Validated: 33
Layer: 2
EndChar

StartChar: ordmasculine
Encoding: 186 186 175
Width: 265
Flags: MW
HStem: 527 16 727 19
VStem: 15 66 171 63
LayerCount: 3
Back
Fore
SplineSet
19 604 m 0
 1 662 34 724 92 742 c 0
 150 760 212 727 230 669 c 0
 247 611 215 549 157 531 c 0
 98 513 37 546 19 604 c 0
81 627 m 0
 85 576 97 547 122 543 c 0
 149 540 174 585 171 636 c 0
 167 687 151 727 123 727 c 0
 100 727 77 678 81 627 c 0
EndSplineSet
Validated: 33
Layer: 2
EndChar

StartChar: Omega
Encoding: 276 8486 176
Width: 636
Flags: MW
HStem: 464 45<270 382.5>
VStem: 80 42<222.5 304 219.5 316.5> 529 42<221.5 303>
LayerCount: 3
Back
Fore
SplineSet
80 243 m 0
 80 390 189 509 325 509 c 0
 460 509 571 389 571 242 c 0
 571 201 562 162 547 127 c 1
 582 117 607 97 626 67 c 0
 650 29 592 -25 565 20 c 0
 543 55 539 72 491 69 c 0
 468 68 462 96 476 119 c 0
 499 155 529 195 529 242 c 0
 529 364 439 464 326 464 c 0
 214 464 122 365 122 243 c 0
 122 196 152 156 175 120 c 0
 189 97 183 69 160 70 c 0
 111 73 108 56 86 20 c 0
 58 -24 1 30 25 68 c 0
 44 97 69 117 104 128 c 1
 89 163 80 202 80 243 c 0
EndSplineSet
Validated: 33
Layer: 2
EndChar

StartChar: ae
Encoding: 230 230 177
Width: 988
Flags: MW
HStem: -31 36<467 493 467 495.5> -15 30<674.5 758 674.5 780> -11 28<248 297.5> -1 21G 217 37<242 301> 262 30<666 706> 403 129 491 36<666 749.5>
VStem: 11 141<91.5 146.5 91.5 158.5> 353 35 419 160<119 119> 835 131<363.5 418.5> 836 138<107.5 135>
LayerCount: 3
Back
Fore
SplineSet
974 138 m 1x46e8
 974 65 854 -15 706 -15 c 0x46f0
 617 -15 539 6 490 39 c 1
 473 28 451 19 428 11 c 1
 439 6 453 5 481 5 c 0x86f0
 505 5 507 -31 484 -31 c 0x16f0
 430 -31 400 -23 383 -1 c 1
 351 -8 316 -11 279 -11 c 0
 131 -11 11 49 11 122 c 0
 11 195 131 254 279 254 c 0
 331 254 380 247 421 234 c 1
 446 256 459 301 474 337 c 0
 511 427 73 412 79 372 c 0
 83 342 113 334 99 314 c 0
 95 308 90 308 84 303 c 0
 73 291 25 369 7 430 c 0x2ef0
 -32 557 399 551 514 490 c 1
 562 513 626 527 698 527 c 0
 846 527 966 468 966 394 c 0x45f0
 966 323 850 264 706 262 c 0
 622 262 576 203 579 118 c 0
 581 63 633 15 716 15 c 0
 800 15 836 80 836 135 c 1
 848 224 989 256 974 138 c 1x46e8
835 391 m 0x46e8
 835 446 791 491 708 491 c 0
 624 491 576 446 576 391 c 0
 576 336 624 292 708 292 c 0x25f0
 791 292 835 336 835 391 c 0x46e8
590 275 m 1
 562 281 539 289 517 299 c 1
 501 269 482 243 459 220 c 1
 467 217 475 213 482 208 c 1
 508 236 545 260 590 275 c 1
419 119 m 0
 419 140 420 156 402 173 c 1
 385 158 368 144 352 130 c 0
 326 107 303 138 326 161 c 0
 347 182 358 186 370 195 c 1x25f0
 345 208 318 217 284 217 c 0
 200 217 152 174 152 119 c 0
 152 64 206 17 290 17 c 0
 320 17 336 22 359 32 c 1
 356 44 354 58 353 74 c 0x4ef0
 351 97 385 100 388 77 c 0
 389 66 389 56 391 48 c 1
 416 66 419 93 419 119 c 0
EndSplineSet
Validated: 33
Layer: 2
EndChar

StartChar: oslash
Encoding: 248 248 178
Width: 581
Flags: MW
HStem: -15 42 85 117 309 100 490 45
VStem: 6 167 225 34 419 138
LayerCount: 3
Back
Fore
SplineSet
331 182 m 0
 342 168 345 128 325 107 c 0
 306 89 290 79 267 90 c 0
 245 101 236 102 230 119 c 0
 218 151 229 197 259 257 c 0
 276 292 320 359 403 399 c 0
 463 427 528 396 545 340 c 0
 589 195 507 41 362 -3 c 0
 217 -48 63 34 18 179 c 0
 -26 325 56 479 201 523 c 0
 263 542 406 557 507 422 c 1
 469 450 399 447 388 416 c 1
 391 459 359 480 345 485 c 0
 318 496 304 487 279 487 c 0
 221 487 164 364 173 236 c 0
 182 108 213 35 276 27 c 0
 342 19 449 166 411 289 c 0
 390 360 264 226 259 188 c 1
 282 214 318 199 331 182 c 0
EndSplineSet
Validated: 33
Layer: 2
EndChar

StartChar: questiondown
Encoding: 191 191 179
Width: 606
Flags: MW
HStem: -48 198 621 170<302 355.5>
VStem: 20 135 232 193<682.5 729.5> 535 83
LayerCount: 3
Back
Fore
SplineSet
27 41 m 0
 1 154 47 315 134 347 c 0
 146 351 217 382 287 437 c 0
 363 498 302 537 298 549 c 0
 281 601 379 650 399 526 c 0
 408 473 389 440 324 386 c 0
 252 325 185 291 160 246 c 0
 102 142 541 127 535 180 c 0
 530 219 505 215 516 235 c 0
 520 242 525 242 531 250 c 0
 544 265 596 164 615 85 c 0
 662 -103 52 -68 27 41 c 0
425 706 m 0
 425 659 382 621 329 621 c 0
 275 621 232 659 232 706 c 0
 232 753 275 791 329 791 c 0
 382 791 425 753 425 706 c 0
EndSplineSet
Validated: 33
Layer: 2
EndChar

StartChar: exclamdown
Encoding: 161 161 180
Width: 221
Flags: MW
HStem: -2 21G<62.5 153> 554 20G 600 156<94 135.5>
VStem: 29 163 40 149<656.5 699.5> 41 59
LayerCount: 3
Back
Fore
SplineSet
100 488 m 1xd0
 4 449 42 600 94 574 c 0
 101 571 111 565 117 554 c 0
 121 546 125 536 129 523 c 0
 136 497 143 462 152 404 c 0xc4
 164 324 172 277 184 217 c 0
 200 131 200 -2 106 -2 c 0
 19 -2 11 90 54 257 c 0
 59 278 71 351 86 407 c 0
 94 440 100 488 100 488 c 1xd0
189 678 m 0xe8
 189 635 156 600 115 600 c 0
 73 600 40 635 40 678 c 0
 40 721 73 756 115 756 c 0
 156 756 189 721 189 678 c 0xe8
EndSplineSet
Validated: 33
Layer: 2
EndChar

StartChar: logicalnot
Encoding: 172 172 181
Width: 475
Flags: MW
HStem: 210 35<37 406 37 376>
VStem: 339 62
LayerCount: 3
Back
Fore
SplineSet
37 210 m 2
 13 211 14 245 37 245 c 2
 406 245 l 2
 424 245 427 227 420 216 c 0
 374 140 420 145 446 94 c 0
 466 53 378 24 353 67 c 0
 337 96 325 116 376 210 c 1
 376 210 37 210 37 210 c 2
EndSplineSet
Validated: 33
Layer: 2
EndChar

StartChar: radical
Encoding: 277 8730 182
Width: 502
Flags: MW
HStem: 127 224 127 429
VStem: 1 500
LayerCount: 3
Back
Fore
SplineSet
435 407 m 2x60
 331 378 l 1
 248 332 191 167 172 142 c 0
 132 90 44 182 14 226 c 0
 -33 294 62 404 103 321 c 2
 166 194 l 1xa0
 195 249 230 364 262 410 c 1
 371 533 l 2
 447 618 583 448 435 407 c 2x60
EndSplineSet
Validated: 33
Layer: 2
EndChar

StartChar: florin
Encoding: 278 402 183
Width: 634
Flags: MW
HStem: 569 134
VStem: 21 636
LayerCount: 3
Back
Fore
SplineSet
398 505 m 0
 395 499 332 340 314 296 c 0
 260 161 114 -116 37 -54 c 0
 8 -31 19 6 57 -5 c 0
 115 -23 230 241 300 411 c 0
 330 482 356 543 369 573 c 0
 419 694 740 791 637 575 c 0
 628 555 554 488 537 516 c 0
 516 551 467 620 398 505 c 0
EndSplineSet
Validated: 33
Layer: 2
EndChar

StartChar: approxequal
Encoding: 279 8776 184
Width: 439
Flags: MW
HStem: 161 23 240 23 277 22 355 23
VStem: 6 107 9 106 291 108 294 108
LayerCount: 3
Back
Fore
SplineSet
155 240 m 1xf5
 80 237 140 181 103 169 c 0
 51 148 -15 180 17 208 c 0
 29 219 64 238 95 254 c 1
 199 290 200 213 253 184 c 1
 328 187 274 237 305 254 c 0
 355 280 446 229 379 201 c 2
 313 171 l 1
 209 134 209 212 155 240 c 1xf5
152 355 m 1xba
 78 352 138 296 101 284 c 0
 49 263 -18 295 14 323 c 0
 27 334 61 353 92 369 c 1
 197 405 197 328 251 299 c 1
 325 302 271 352 303 369 c 0
 352 395 443 345 377 317 c 2
 311 286 l 1
 207 250 206 327 152 355 c 1xba
EndSplineSet
Validated: 33
Layer: 2
EndChar

StartChar: Delta
Encoding: 280 8710 185
Width: 385
Flags: MW
HStem: 280 46<91.5 285 131 285 131 316> 552 20G
VStem: 65 288
LayerCount: 3
Back
Fore
SplineSet
211 514 m 1
 131 326 l 1
 285 326 l 1
 211 514 l 1
348 348 m 2
 364 320 338 280 316 280 c 2
 102 280 l 2
 81 280 52 320 71 351 c 2
 203 567 l 2
 207 573 215 574 219 567 c 2
 348 348 l 2
EndSplineSet
Validated: 33
Layer: 2
EndChar

StartChar: guillemotleft
Encoding: 171 171 186
Width: 454
Flags: MW
HStem: 209 213
VStem: 82 28<297 327.5 297 332.5> 243 28<297 327.5 297 332.5>
LayerCount: 3
Back
Fore
SplineSet
377 210 m 0
 310 234 243 271 243 312 c 0
 243 353 274 387 338 415 c 0
 386 437 457 393 402 377 c 0
 329 357 271 343 271 312 c 0
 271 282 326 255 396 229 c 0
 412 223 393 204 377 210 c 0
215 210 m 0
 148 234 82 271 82 312 c 0
 82 353 113 387 176 415 c 0
 224 437 293 400 241 377 c 0
 167 347 110 343 110 312 c 0
 110 282 165 255 235 229 c 0
 250 223 231 204 215 210 c 0
EndSplineSet
Validated: 33
Layer: 2
EndChar

StartChar: guillemotright
Encoding: 187 187 187
Width: 460
Flags: MW
HStem: 209 213
VStem: 233 28<297 327.5> 394 28<297 327.5>
LayerCount: 3
Back
Fore
SplineSet
127 210 m 0
 111 204 92 223 108 229 c 0
 178 255 233 282 233 312 c 0
 233 343 175 357 102 377 c 0
 47 393 118 437 166 415 c 0
 230 387 261 353 261 312 c 0
 261 271 194 234 127 210 c 0
288 210 m 0
 272 204 253 223 269 229 c 0
 339 255 394 282 394 312 c 0
 394 343 337 347 263 377 c 0
 210 400 279 437 328 415 c 0
 391 387 422 353 422 312 c 0
 422 271 356 234 288 210 c 0
EndSplineSet
Validated: 33
Layer: 2
EndChar

StartChar: ellipsis
Encoding: 281 8230 188
Width: 407
Flags: MW
HStem: -12 101<56 84 180 208 301 329>
VStem: 19 101<24 52> 143 101<24 52> 264 101<24 52>
LayerCount: 3
Back
Fore
SplineSet
143 38 m 0
 143 66 166 89 194 89 c 0
 222 89 244 66 244 38 c 0
 244 10 222 -12 194 -12 c 0
 166 -12 143 10 143 38 c 0
19 38 m 0xd0
 19 66 42 89 70 89 c 0
 98 89 120 66 120 38 c 0
 120 10 98 -12 70 -12 c 0
 42 -12 19 10 19 38 c 0xd0
264 38 m 0
 264 66 287 89 315 89 c 0
 343 89 365 66 365 38 c 0
 365 10 343 -12 315 -12 c 0
 287 -12 264 10 264 38 c 0
EndSplineSet
Validated: 1
Layer: 2
EndChar

StartChar: Agrave
Encoding: 192 192 189
Width: 604
Flags: MW
HStem: -31 20 751 20G
LayerCount: 3
Back
Fore
SplineSet
398 28 m 2
 369 300 l 1
 320 300 l 2
 293 300 270 313 270 328 c 0
 270 343 293 356 320 356 c 2
 364 356 l 1
 338 634 l 1
 168 35 l 2
 157 -3 35 -33 20 55 c 0
 -9 230 142 152 135 147 c 1
 298 744 l 2
 308 779 347 781 359 747 c 2
 596 115 l 2
 639 0 412 -98 398 28 c 2
431 836 m 1
 386 782 218 834 256 920 c 0
 276 967 321 972 348 946 c 0
 370 924 342 877 348 865 c 0
 365 830 412 867 431 836 c 1
EndSplineSet
Validated: 37
Layer: 2
EndChar

StartChar: Atilde
Encoding: 195 195 190
Width: 604
Flags: MW
HStem: -31 20 751 20G
LayerCount: 3
Back
Fore
SplineSet
398 28 m 2
 369 300 l 1
 320 300 l 2
 293 300 270 313 270 328 c 0
 270 343 293 356 320 356 c 2
 364 356 l 1
 338 634 l 1
 168 35 l 2
 157 -3 35 -33 20 55 c 0
 -9 230 142 152 135 147 c 1
 298 744 l 2
 308 779 347 781 359 747 c 2
 596 115 l 2
 639 0 412 -98 398 28 c 2
322 864 m 1
 277 862 313 804 290 792 c 0
 259 770 219 803 238 831 c 0
 246 843 267 862 285 878 c 1
 348 916 349 836 381 807 c 1
 426 809 393 861 412 878 c 0
 442 906 497 853 457 825 c 2
 417 793 l 1
 354 755 354 835 322 864 c 1
EndSplineSet
Validated: 37
Layer: 2
EndChar

StartChar: Otilde
Encoding: 213 213 191
Width: 592
Flags: MW
HStem: -1 20
VStem: 174 229
LayerCount: 3
Back
Fore
SplineSet
16 279 m 0
 -30 487 54 708 203 772 c 0
 351 836 509 718 554 509 c 0
 599 301 516 80 367 16 c 0
 218 -48 61 70 16 279 c 0
174 359 m 0
 183 175 215 71 279 60 c 0
 347 48 412 208 403 392 c 0
 394 576 353 720 282 720 c 0
 222 720 165 543 174 359 c 0
271 877 m 1
 226 875 262 817 239 805 c 0
 208 783 168 816 187 844 c 0
 195 856 216 875 234 891 c 1
 297 929 298 849 330 820 c 1
 375 822 342 874 361 891 c 0
 391 919 446 866 406 838 c 2
 366 806 l 1
 303 768 303 848 271 877 c 1
EndSplineSet
Validated: 33
Layer: 2
EndChar

StartChar: OE
Encoding: 282 338 192
Width: 903
Flags: MW
HStem: -4 108 359 57<566 658 566 658 565 658> 638 115<482 508.5> 720 69 750 20G
VStem: 3 171 403 162 736 168 762 125
LayerCount: 3
Back
Fore
SplineSet
367 16 m 0xcf
 218 -48 61 70 16 279 c 0
 -30 487 54 708 203 772 c 0xd7
 260 796 318 794 371 770 c 1xcf
 405 796 457 806 479 762 c 0
 480 761 482 760 482 753 c 1
 511 753 651 756 696 755 c 0
 865 755 988 476 772 488 c 0
 753 489 684 534 712 563 c 0
 746 598 813 636 696 639 c 0
 684 640 511 638 506 638 c 1xe680
 527 601 544 557 554 509 c 0
 561 478 564 447 566 416 c 1
 658 416 l 2
 685 416 708 403 708 387 c 0
 708 372 685 359 658 359 c 2
 565 359 l 1
 559 274 535 194 495 131 c 1
 532 119 667 76 756 131 c 1
 686 224 816 264 874 197 c 0
 930 130 896 -4 858 -4 c 2
 441 -3 l 2
 417 -3 393 6 376 20 c 0
 373 19 370 18 367 16 c 0xcf
174 359 m 0
 183 175 215 71 279 60 c 0
 347 48 412 208 403 392 c 0
 394 576 353 720 282 720 c 0xd7
 222 720 165 543 174 359 c 0
EndSplineSet
Validated: 33
Layer: 2
EndChar

StartChar: oe
Encoding: 283 339 193
Width: 944
Flags: MW
HStem: -15 20 515 20G
VStem: 173 224
LayerCount: 3
Back
Fore
SplineSet
930 136 m 1
 930 63 810 -17 662 -17 c 0
 572 -17 493 5 444 39 c 1
 420 21 392 6 362 -3 c 0
 217 -48 63 34 18 179 c 0
 -26 325 56 479 201 523 c 0
 289 550 380 531 448 479 c 1
 497 508 571 525 653 525 c 0
 801 525 921 466 921 393 c 0
 921 321 805 262 661 260 c 0
 578 260 532 201 534 116 c 0
 536 61 588 14 672 14 c 0
 755 14 791 78 791 133 c 1
 803 223 944 254 930 136 c 1
791 390 m 0
 791 444 747 489 663 489 c 0
 580 489 532 444 532 390 c 0
 532 335 580 290 663 290 c 0
 747 290 791 335 791 390 c 0
397 259 m 0
 388 387 348 487 279 487 c 0
 221 487 164 364 173 236 c 0
 182 108 213 35 276 27 c 0
 342 19 406 131 397 259 c 0
EndSplineSet
Validated: 33
Layer: 2
EndChar

StartChar: endash
Encoding: 284 8211 194
Width: 292
Flags: MW
HStem: 171 81<222 222>
VStem: 17 232
LayerCount: 3
Back
Fore
SplineSet
24 220 m 2
 222 252 l 2
 254 258 261 168 222 171 c 2
 24 187 l 2
 14 188 14 218 24 220 c 2
EndSplineSet
Validated: 33
Layer: 2
EndChar

StartChar: emdash
Encoding: 285 8212 195
Width: 599
Flags: MW
HStem: 200 86<495 495> 217 35<28 28>
VStem: 11 547
LayerCount: 3
Back
Fore
SplineSet
28 252 m 2x60
 495 286 l 2
 570 292 587 196 495 200 c 2xa0
 28 217 l 2
 5 218 5 250 28 252 c 2x60
EndSplineSet
Validated: 33
Layer: 2
EndChar

StartChar: quotedblleft
Encoding: 286 8220 196
Width: 301
Flags: MW
HStem: 582 120<143 219>
VStem: 31 238 32 100 156 100
LayerCount: 3
Back
Fore
SplineSet
132 632 m 0xa0
 132 604 109 583 81 583 c 0
 54 583 38 595 32 622 c 0
 27 645 41 664 57 674 c 0
 72 684 140 702 146 702 c 1
 141 696 123 679 111 664 c 1
 124 662 132 641 132 632 c 0xa0
256 632 m 0x90
 255 604 233 582 205 582 c 0
 177 582 162 595 156 622 c 0
 151 645 164 664 181 674 c 0
 196 684 264 702 269 702 c 1
 264 696 247 679 235 664 c 1
 248 662 256 641 256 632 c 0x90
EndSplineSet
Validated: 33
Layer: 2
EndChar

StartChar: quotedblright
Encoding: 287 8221 197
Width: 294
Flags: MW
HStem: 553 20G<18 20.5 147 149.5> 611 82
VStem: 18 243 31 100 160 100
LayerCount: 3
Back
Fore
SplineSet
31 643 m 0xd0
 32 671 54 693 82 693 c 0
 110 693 125 680 131 653 c 0
 136 630 123 611 106 601 c 0
 91 591 23 573 18 573 c 1
 22 579 40 596 52 611 c 1
 39 613 31 634 31 643 c 0xd0
160 643 m 0xc8
 161 671 183 693 211 693 c 0
 239 693 254 680 260 653 c 0
 265 630 252 611 235 601 c 0
 220 591 152 573 147 573 c 1
 152 579 169 596 181 611 c 1
 168 613 160 634 160 643 c 0xc8
EndSplineSet
Validated: 33
Layer: 2
EndChar

StartChar: quoteleft
Encoding: 288 8216 198
Width: 177
Flags: MW
HStem: 583 120<67.5 146>
VStem: 31 115 32 100
LayerCount: 3
Back
Fore
SplineSet
132 633 m 0xa0
 132 605 109 583 81 583 c 0
 54 583 38 596 32 623 c 0
 27 646 41 665 57 675 c 0
 72 685 140 703 146 703 c 1
 141 697 123 680 111 665 c 1
 124 663 132 642 132 633 c 0xa0
EndSplineSet
Validated: 33
Layer: 2
EndChar

StartChar: quoteright
Encoding: 289 8217 199
Width: 165
Flags: MW
HStem: 553 20G<18 20.5>
VStem: 18 114 31 100
LayerCount: 3
Back
Fore
SplineSet
31 643 m 0xa0
 32 671 54 693 82 693 c 0
 110 693 125 680 131 653 c 0
 136 630 123 611 106 601 c 0
 91 591 23 573 18 573 c 1
 22 579 40 596 52 611 c 1
 39 613 31 634 31 643 c 0xa0
EndSplineSet
Validated: 33
Layer: 2
EndChar

StartChar: divide
Encoding: 247 247 200
Width: 471
Flags: MW
HStem: 33 101<221 249> 194 81<420 420> 210 33<26 26> 335 101<221 249>
VStem: 184 101<69 97 372 400>
LayerCount: 3
Back
Fore
SplineSet
184 386 m 0xd8
 184 414 207 436 235 436 c 0
 263 436 285 414 285 386 c 0
 285 358 263 335 235 335 c 0
 207 335 184 358 184 386 c 0xd8
184 83 m 0
 184 111 207 134 235 134 c 0
 263 134 285 111 285 83 c 0
 285 55 263 33 235 33 c 0
 207 33 184 55 184 83 c 0
26 243 m 2xb8
 420 275 l 2
 484 281 498 191 420 194 c 2xd8
 26 210 l 2
 7 211 7 241 26 243 c 2xb8
EndSplineSet
Validated: 33
Layer: 2
EndChar

StartChar: ydieresis
Encoding: 255 255 201
Width: 550
Flags: MW
HStem: -225 40 -225 195 -225 316 -1 166 592 152 599 153
VStem: 0 184 26 127 114 144 298 142
LayerCount: 3
Back
Fore
SplineSet
150 -225 m 0
 101 -225 59 -220 25 -176 c 0
 -31 -100 14 -42 92 -31 c 0
 127 -26 204 -33 180 -94 c 0
 157 -152 110 -103 110 -169 c 1
 173 -221 288 -138 326 -2 c 0
 330 10 333 20 336 33 c 2
 344 67 l 1
 245 12 107 -41 43 18 c 0
 1 56 48 418 56 531 c 1
 101 531 111 531 186 531 c 1
 251 539 267 477 181 485 c 1
 127 298 153 151 230 97 c 0
 252 82 306 95 351 118 c 1
 416 511 l 2
 421 540 473 599 469 570 c 2
 407 152 l 1
 480 200 609 103 520 18 c 0
 506 3 476 -5 454 0 c 0
 400 12 523 163 394 79 c 1
 383 25 l 1
 351 -112 293 -225 150 -225 c 0
209 661 m 0
 209 689 232 711 259 711 c 0
 287 711 310 689 310 661 c 0
 310 633 287 610 259 610 c 0
 232 610 209 633 209 661 c 0
85 661 m 0
 85 689 108 711 135 711 c 0
 163 711 186 689 186 661 c 0
 186 633 163 610 135 610 c 0
 108 610 85 633 85 661 c 0
EndSplineSet
Validated: 33
Layer: 2
EndChar

StartChar: Ydieresis
Encoding: 290 376 202
Width: 589
Flags: MW
HStem: -5 58<212 276 226 276 226 291 336 369> 547 172 744 152
VStem: 109 144 176 245<17 33> 276 61<280 280 280 324 280 324> 293 142
LayerCount: 3
Back
Fore
SplineSet
120 581 m 1xf2
 81 503 -23 571 9 660 c 0
 24 701 61 735 104 710 c 0
 122 700 180 620 287 422 c 1
 409 704 l 2
 460 821 651 657 572 563 c 2
 337 280 l 1xf4
 336 209 353 151 336 53 c 1
 371 53 l 1
 398 49 421 41 421 25 c 0
 421 9 396 -5 369 -5 c 2
 291 -5 l 1
 226 -5 l 2
 198 -5 176 9 176 25 c 0xe8
 176 41 198 53 226 53 c 2
 276 53 l 1
 276 110 276 239 276 324 c 1xf4
 252 362 175 497 120 581 c 1xf2
204 813 m 0
 204 841 227 863 254 863 c 0
 282 863 305 841 305 813 c 0
 305 785 282 762 254 762 c 0
 227 762 204 785 204 813 c 0
80 813 m 0
 80 841 103 863 130 863 c 0
 158 863 181 841 181 813 c 0
 181 785 158 762 130 762 c 0
 103 762 80 785 80 813 c 0
EndSplineSet
Validated: 33
Layer: 2
EndChar

StartChar: fraction
Encoding: 291 8260 203
Width: 676
Flags: MW
HStem: -30 21G
VStem: -41 765
LayerCount: 3
Back
Fore
SplineSet
666 609 m 2
 698 636 744 622 715 595 c 2
 104 19 l 2
 19 -62 -105 -37 -2 49 c 2
 666 609 l 2
EndSplineSet
Validated: 33
Layer: 2
EndChar

StartChar: currency
Encoding: 164 164 204
Width: 481
Flags: MW
HStem: -15 20 515 20G
VStem: 173 224
LayerCount: 3
Back
Fore
SplineSet
406 233 m 1
 436 210 l 2
 471 184 420 129 393 161 c 2
 367 192 l 1
 311 150 233 148 175 186 c 1
 154 158 l 2
 128 124 73 175 105 202 c 2
 134 226 l 1
 91 282 90 361 130 419 c 1
 105 439 l 2
 72 465 125 518 152 484 c 2
 171 460 l 1
 228 501 304 502 361 462 c 1
 383 490 l 2
 410 523 462 470 429 443 c 2
 403 421 l 1
 443 365 444 290 406 233 c 1
311 306 m 2
 381 252 l 1
 411 298 411 358 380 403 c 1
 306 342 l 2
 290 329 270 348 284 364 c 2
 343 439 l 1
 297 469 236 469 191 438 c 1
 252 362 l 2
 266 346 247 326 230 339 c 2
 154 400 l 1
 122 353 124 292 157 246 c 1
 227 306 l 2
 243 320 263 301 250 284 c 2
 194 211 l 1
 241 180 301 182 347 214 c 1
 289 283 l 2
 275 299 294 319 311 306 c 2
EndSplineSet
Validated: 33
Layer: 2
EndChar

StartChar: guilsinglleft
Encoding: 292 8249 205
Width: 293
Flags: MW
HStem: 209 213
VStem: 82 28<297 327.5 297 332.5>
LayerCount: 3
Back
Fore
SplineSet
215 210 m 0
 148 234 82 271 82 312 c 0
 82 353 113 387 176 415 c 0
 224 437 293 400 241 377 c 0
 167 347 110 343 110 312 c 0
 110 282 165 255 235 229 c 0
 250 223 231 204 215 210 c 0
EndSplineSet
Validated: 33
Layer: 2
EndChar

StartChar: guilsinglright
Encoding: 293 8250 206
Width: 244
Flags: MW
HStem: 209 213
VStem: 178 28<297 327.5>
LayerCount: 3
Back
Fore
SplineSet
73 210 m 0
 57 204 38 223 54 229 c 0
 123 255 178 282 178 312 c 0
 178 343 121 347 48 377 c 0
 -5 400 64 437 112 415 c 0
 176 387 206 353 206 312 c 0
 206 271 140 234 73 210 c 0
EndSplineSet
Validated: 33
Layer: 2
EndChar

StartChar: fi
Encoding: 294 64257 207
Width: 430
Flags: MW
HStem: 1 36<241 318 253 317 317 318 253 347 352 417 417 418> 373 129 647 136
VStem: 3 61 127 59 131 58 318 34<37 37> 323 52
LayerCount: 3
Back
Fore
SplineSet
186 502 m 1xf9
 239 509 329 497 372 439 c 1xf5
 383 417 366 181 352 37 c 1
 417 37 l 2
 440 37 441 1 418 1 c 2
 347 1 l 1
 339 -32 320 -24 317 1 c 1
 253 1 l 2
 229 1 229 37 253 37 c 2xb6
 318 37 l 1
 319 104 323 237 323 324 c 1
 277 351 233 366 189 373 c 1
 191 239 188 77 162 1 c 1
 141 1 145 1 131 1 c 1xf5
 131 23 129 208 128 377 c 1
 69 372 40 337 87 269 c 0
 101 250 23 219 15 241 c 0
 -25 350 35 448 127 487 c 1
 127 559 127 620 128 649 c 0
 128 770 404 874 393 658 c 0
 392 639 347 570 318 597 c 0
 283 631 205 698 185 583 c 0
 184 577 185 546 186 502 c 1xf9
EndSplineSet
Validated: 33
Layer: 2
EndChar

StartChar: fl
Encoding: 295 64258 208
Width: 558
Flags: MW
HStem: -9 164 -3 21G<385 414 385 392.5> 1 21G<131 162 131 138> 373 129 645 130
VStem: 3 61 127 59 131 58 384 63
LayerCount: 3
Back
Fore
SplineSet
185 583 m 0x4e80
 184 577 185 546 186 502 c 1x9e80
 239 509 296 498 347 459 c 0
 381 433 358 303 329 321 c 0
 284 348 233 366 189 373 c 1
 191 239 188 77 162 1 c 1
 141 1 145 1 131 1 c 1x3d80
 131 23 129 208 128 377 c 1
 69 372 40 337 87 269 c 0
 101 250 23 219 15 241 c 0
 -25 350 35 448 127 487 c 1
 127 559 127 620 128 649 c 0
 128 743 343 848 438 704 c 0
 448 685 453 358 434 134 c 1
 493 199 585 102 529 26 c 0
 504 -9 454 -25 419 11 c 1x9e80
 418 5 416 2 414 -3 c 1
 393 -3 400 -3 385 -3 c 1
 384 44 384 453 384 554 c 1
 375 632 205 698 185 583 c 0x4e80
EndSplineSet
Validated: 33
Layer: 2
EndChar

StartChar: daggerdbl
Encoding: 296 8225 209
Width: 374
Flags: MW
HStem: 170 47<99 166 110 166 110 170 253 305> 332 47<64 149 75 149 75 156 264 340>
VStem: 146 121 161 95 174 70
LayerCount: 3
Back
Fore
SplineSet
253 217 m 1xd0
 305 217 l 2
 326 217 326 170 305 170 c 2xd0
 249 170 l 1
 241 63 l 2
 238 18 183 18 179 63 c 2
 170 170 l 1
 110 170 l 2
 88 170 88 217 110 217 c 2xc8
 166 217 l 1
 156 332 l 1
 75 332 l 2
 53 332 54 379 75 379 c 2xd0
 149 379 l 1
 143 455 l 2
 136 546 279 550 271 461 c 2
 264 379 l 1
 340 379 l 2
 361 379 361 332 340 332 c 2xe0
 260 332 l 1
 253 217 l 1xd0
EndSplineSet
Validated: 33
Layer: 2
EndChar

StartChar: periodcentered
Encoding: 183 183 210
Width: 161
Flags: MW
HStem: 247 101<52 79.5>
VStem: 15 101<284 312>
LayerCount: 3
Back
Fore
SplineSet
15 298 m 0
 15 326 38 348 66 348 c 0
 93 348 116 326 116 298 c 0
 116 270 93 247 66 247 c 0
 38 247 15 270 15 298 c 0
EndSplineSet
Validated: 1
Layer: 2
EndChar

StartChar: quotesinglbase
Encoding: 297 8218 211
Width: 173
Flags: MW
HStem: -28 21G<36 39>
VStem: 36 114 50 100
LayerCount: 3
Back
Fore
SplineSet
50 41 m 0xa0
 50 69 72 92 100 92 c 0
 128 92 144 78 150 51 c 0
 154 29 141 10 125 -1 c 0
 109 -11 42 -28 36 -28 c 1
 41 -22 59 -5 70 10 c 1
 58 11 50 33 50 41 c 0xa0
EndSplineSet
Validated: 33
Layer: 2
EndChar

StartChar: quotedblbase
Encoding: 298 8222 212
Width: 284
Flags: MW
HStem: -28 21G<18 21 147 150> 10 82
VStem: 18 244 32 100 161 100
LayerCount: 3
Back
Fore
SplineSet
32 41 m 0xd0
 32 69 55 92 82 92 c 0
 110 92 126 78 132 51 c 0
 136 29 123 10 107 -1 c 0
 92 -11 24 -28 18 -28 c 1
 23 -22 41 -5 52 10 c 1
 40 11 32 33 32 41 c 0xd0
161 41 m 0xc8
 161 69 184 92 211 92 c 0
 239 92 255 78 261 51 c 0
 266 29 252 10 236 -1 c 0
 221 -11 153 -28 147 -28 c 1
 152 -22 170 -5 182 10 c 1
 169 11 161 33 161 41 c 0xc8
EndSplineSet
Validated: 33
Layer: 2
EndChar

StartChar: perthousand
Encoding: 299 8240 213
Width: 791
Flags: MW
HStem: 30 82 45 21 297 24 408 21 588 56 649 47 674 55
VStem: 25 81 118 55 172 54 216 77 256 81 444 77 447 78 545 81 736 77
LayerCount: 3
Back
Fore
SplineSet
118 93 m 1x7915
 147 159 219 35 130 30 c 0
 87 27 55 47 46 84 c 0
 30 155 366 510 433 586 c 0
 453 609 450 707 398 600 c 0
 376 554 300 649 271 661 c 0
 263 664 193 698 245 646 c 0
 258 634 274 634 288 586 c 0
 310 513 270 436 199 413 c 0
 127 391 52 432 30 505 c 0x7927
 8 578 55 635 101 670 c 0
 132 693 173 667 141 649 c 0
 112 633 101 598 106 533 c 0
 110 469 125 433 156 429 c 0
 189 424 220 481 216 545 c 0
 212 597 211 612 190 629 c 0
 141 670 203 755 236 721 c 0
 288 670 383 615 415 661 c 0
 463 730 559 690 505 609 c 0
 493 592 52 133 118 93 c 1x7915
261 143 m 0xb5a9
 239 216 279 293 351 315 c 0x7945
 422 338 498 296 520 223 c 0
 541 150 501 73 430 51 c 0
 358 28 283 70 261 143 c 0xb5a9
337 171 m 0x7b25
 341 107 357 70 388 66 c 0
 420 62 451 118 447 182 c 0
 443 247 423 297 389 297 c 0
 360 297 332 235 337 171 c 0x7b25
550 143 m 0
 528 216 568 293 640 315 c 0x7b45
 711 338 787 296 808 223 c 0
 830 150 790 73 719 51 c 0
 647 28 572 70 550 143 c 0
626 171 m 0x7929
 630 107 645 70 677 66 c 0
 709 62 740 118 736 182 c 0
 731 247 712 297 678 297 c 0xb5a9
 649 297 621 235 626 171 c 0x7929
EndSplineSet
Validated: 33
Layer: 2
EndChar

StartChar: Acircumflex
Encoding: 194 194 214
Width: 604
Flags: MW
HStem: -31 20 751 20G
LayerCount: 3
Back
Fore
SplineSet
398 28 m 2
 369 300 l 1
 320 300 l 2
 293 300 270 313 270 328 c 0
 270 343 293 356 320 356 c 2
 364 356 l 1
 338 634 l 1
 168 35 l 2
 157 -3 35 -33 20 55 c 0
 -9 230 142 152 135 147 c 1
 298 744 l 2
 308 779 347 781 359 747 c 2
 596 115 l 2
 639 0 412 -98 398 28 c 2
330 885 m 1
 256 794 l 2
 234 767 192 812 219 834 c 2
 322 915 l 2
 328 919 334 919 340 914 c 2
 340 914 417 851 442 830 c 0
 469 808 424 766 403 794 c 2
 330 885 l 1
EndSplineSet
Validated: 37
Layer: 2
EndChar

StartChar: Ecircumflex
Encoding: 202 202 215
Width: 567
Flags: MW
HStem: 0 20 107 255 234 257 419 224<164 365 327 365>
VStem: 161 270 164 210
LayerCount: 3
Back
Fore
SplineSet
527 0 m 2xd8
 111 0 l 2
 64 0 20 32 20 75 c 0
 20 117 59 162 109 156 c 1
 107 326 98 583 98 657 c 1
 23 612 -34 718 42 775 c 0
 76 801 126 810 148 766 c 0
 149 764 151 763 151 757 c 1
 180 757 320 760 365 759 c 0
 534 759 658 480 441 491 c 0xa8
 422 492 353 537 381 566 c 0
 415 601 482 640 365 643 c 0
 352 643 183 640 158 640 c 1
 162 574 164 529 164 419 c 1
 327 419 l 2
 354 419 377 407 377 391 c 0
 377 375 354 362 327 362 c 2
 164 362 l 1xd4
 164 247 167 211 156 137 c 1
 177 131 328 74 425 135 c 1
 355 227 485 267 543 200 c 0
 599 134 565 0 527 0 c 2xd8
297 902 m 1
 223 811 l 2
 201 784 159 829 186 851 c 2
 289 932 l 2
 295 936 301 936 307 931 c 2
 307 931 384 868 409 847 c 0
 436 825 391 783 370 811 c 2
 297 902 l 1
EndSplineSet
Validated: 33
Layer: 2
EndChar

StartChar: Aacute
Encoding: 193 193 216
Width: 604
Flags: MW
HStem: -31 20 751 20G
LayerCount: 3
Back
Fore
SplineSet
398 28 m 2
 369 300 l 1
 320 300 l 2
 293 300 270 313 270 328 c 0
 270 343 293 356 320 356 c 2
 364 356 l 1
 338 634 l 1
 168 35 l 2
 157 -3 35 -33 20 55 c 0
 -9 230 142 152 135 147 c 1
 298 744 l 2
 308 779 347 781 359 747 c 2
 596 115 l 2
 639 0 412 -98 398 28 c 2
235 822 m 0
 245 860 279 853 307 874 c 0
 350 905 363 972 414 958 c 0
 439 951 451 937 467 916 c 0
 525 838 222 771 235 822 c 0
EndSplineSet
Validated: 37
Layer: 2
EndChar

StartChar: Edieresis
Encoding: 203 203 217
Width: 567
Flags: MW
HStem: 0 20 107 255 234 257 419 224<164 365 327 365> 806 152
VStem: 161 270 164 210
LayerCount: 3
Back
Fore
SplineSet
527 0 m 2xdc
 111 0 l 2
 64 0 20 32 20 75 c 0
 20 117 59 162 109 156 c 1
 107 326 98 583 98 657 c 1
 23 612 -34 718 42 775 c 0
 76 801 126 810 148 766 c 0
 149 764 151 763 151 757 c 1
 180 757 320 760 365 759 c 0
 534 759 658 480 441 491 c 0xac
 422 492 353 537 381 566 c 0
 415 601 482 640 365 643 c 0
 352 643 183 640 158 640 c 1
 162 574 164 529 164 419 c 1
 327 419 l 2
 354 419 377 407 377 391 c 0
 377 375 354 362 327 362 c 2
 164 362 l 1xda
 164 247 167 211 156 137 c 1
 177 131 328 74 425 135 c 1
 355 227 485 267 543 200 c 0
 599 134 565 0 527 0 c 2xdc
228 875 m 0
 228 903 251 925 278 925 c 0
 306 925 329 903 329 875 c 0
 329 847 306 824 278 824 c 0
 251 824 228 847 228 875 c 0
104 875 m 0
 104 903 127 925 154 925 c 0
 182 925 205 903 205 875 c 0
 205 847 182 824 154 824 c 0
 127 824 104 847 104 875 c 0
EndSplineSet
Validated: 33
Layer: 2
EndChar

StartChar: Egrave
Encoding: 200 200 218
Width: 567
Flags: MW
HStem: 0 20 107 255 234 257 419 224<164 365 327 365>
VStem: 161 270 164 210
LayerCount: 3
Back
Fore
SplineSet
527 0 m 2xd8
 111 0 l 2
 64 0 20 32 20 75 c 0
 20 117 59 162 109 156 c 1
 107 326 98 583 98 657 c 1
 23 612 -34 718 42 775 c 0
 76 801 126 810 148 766 c 0
 149 764 151 763 151 757 c 1
 180 757 320 760 365 759 c 0
 534 759 658 480 441 491 c 0xa8
 422 492 353 537 381 566 c 0
 415 601 482 640 365 643 c 0
 352 643 183 640 158 640 c 1
 162 574 164 529 164 419 c 1
 327 419 l 2
 354 419 377 407 377 391 c 0
 377 375 354 362 327 362 c 2
 164 362 l 1xd4
 164 247 167 211 156 137 c 1
 177 131 328 74 425 135 c 1
 355 227 485 267 543 200 c 0
 599 134 565 0 527 0 c 2xd8
387 853 m 1
 342 799 174 851 212 937 c 0
 232 984 277 989 304 963 c 0
 326 941 298 894 304 882 c 0
 321 847 368 884 387 853 c 1
EndSplineSet
Validated: 33
Layer: 2
EndChar

StartChar: Iacute
Encoding: 205 205 219
Width: 583
Flags: MW
HStem: 1 117<200 256 322 380 380 424> 1 269 508 267 659 116<376 464.5> 661 115<81 256 81 322>
VStem: 9 126 256 74 446 125
LayerCount: 3
Back
Fore
SplineSet
322 118 m 1xa7
 322 190 322 597 322 661 c 1x8f
 322 661 372 659 380 659 c 0x57
 497 656 429 618 395 583 c 0
 368 554 436 509 456 508 c 0
 672 496 549 775 380 775 c 0x67
 335 776 284 776 256 776 c 0
 169 776 100 776 81 776 c 0x4f
 53 775 39 772 34 768 c 0
 -2 734 3 701 21 662 c 0
 58 581 199 583 157 659 c 1x57
 226 659 256 661 256 661 c 1
 256 118 l 1
 256 118 205 118 200 118 c 0x8f
 83 121 152 160 185 195 c 0
 213 224 144 269 125 270 c 0x67
 -91 282 32 1 200 1 c 0
 245 1 351 1 380 1 c 0
 464 1 461 1 493 1 c 0
 522 0 538 5 547 10 c 0
 591 30 578 77 560 116 c 0
 523 197 382 195 424 118 c 1
 354 118 322 118 322 118 c 1xa7
164 837 m 0
 174 875 208 868 236 889 c 0
 279 920 292 987 343 973 c 0
 368 966 380 952 396 931 c 0
 454 853 151 786 164 837 c 0
EndSplineSet
Validated: 41
Layer: 2
EndChar

StartChar: Icircumflex
Encoding: 206 206 220
Width: 583
Flags: MW
HStem: 1 117<200 222.5 200 256 322 380 380 424> 1 269 508 267 659 116<376 464.5> 661 115<256 256 81 322>
VStem: 9 126 256 74 446 125
LayerCount: 3
Back
Fore
SplineSet
322 118 m 1xa7
 322 118 354 118 424 118 c 1
 382 195 523 197 560 116 c 0
 578 77 591 30 547 10 c 0
 538 5 522 0 493 1 c 0
 461 1 464 1 380 1 c 0
 351 1 245 1 200 1 c 0
 32 1 -91 282 125 270 c 0x8f
 144 269 213 224 185 195 c 0
 152 160 83 121 200 118 c 0x57
 205 118 256 118 256 118 c 1
 256 661 l 1
 256 661 226 659 157 659 c 1x67
 199 583 58 581 21 662 c 0
 3 701 -2 734 34 768 c 0
 39 772 53 775 81 776 c 0x4f
 100 776 169 776 256 776 c 0
 284 776 335 776 380 775 c 0x57
 549 775 672 496 456 508 c 0
 436 509 368 554 395 583 c 0
 429 618 497 656 380 659 c 0x8f
 372 659 322 661 322 661 c 1x67
 322 597 322 190 322 118 c 1xa7
285 910 m 1
 211 819 l 2
 189 792 147 837 174 859 c 2
 277 940 l 2
 283 944 289 944 295 939 c 2
 295 939 372 876 397 855 c 0
 424 833 379 791 358 819 c 2
 285 910 l 1
EndSplineSet
Validated: 33
Layer: 2
EndChar

StartChar: Idieresis
Encoding: 207 207 221
Width: 583
Flags: MW
HStem: 1 117<200 222.5 200 256 322 380 380 424> 1 269 508 267 659 116<376 464.5> 661 115<256 256 81 322> 801 152
VStem: 9 126 256 74 279 142 446 125
LayerCount: 3
Back
Fore
SplineSet
322 118 m 1x8ec0
 322 118 354 118 424 118 c 1xa6c0
 382 195 523 197 560 116 c 0
 578 77 591 30 547 10 c 0
 538 5 522 0 493 1 c 0
 461 1 464 1 380 1 c 0
 351 1 245 1 200 1 c 0
 32 1 -91 282 125 270 c 0x66c0
 144 269 213 224 185 195 c 0
 152 160 83 121 200 118 c 0
 205 118 256 118 256 118 c 1
 256 661 l 1x8f40
 256 661 226 659 157 659 c 1x56c0
 199 583 58 581 21 662 c 0
 3 701 -2 734 34 768 c 0
 39 772 53 775 81 776 c 0
 100 776 169 776 256 776 c 0x4f40
 284 776 335 776 380 775 c 0
 549 775 672 496 456 508 c 0x66c0
 436 509 368 554 395 583 c 0
 429 618 497 656 380 659 c 0x56c0
 372 659 322 661 322 661 c 1
 322 597 322 190 322 118 c 1x8ec0
190 870 m 0
 190 898 213 920 240 920 c 0
 268 920 291 898 291 870 c 0
 291 842 268 819 240 819 c 0
 213 819 190 842 190 870 c 0
66 870 m 0
 66 898 89 920 116 920 c 0
 144 920 167 898 167 870 c 0
 167 842 144 819 116 819 c 0
 89 819 66 842 66 870 c 0
EndSplineSet
Validated: 33
Layer: 2
EndChar

StartChar: Igrave
Encoding: 204 204 222
Width: 583
Flags: MW
HStem: 1 117<200 222.5 200 256 322 380 380 424> 1 269 508 267 659 116<376 464.5> 661 115<256 256 81 322>
VStem: 9 126 256 74 446 125
LayerCount: 3
Back
Fore
SplineSet
322 118 m 1xa7
 322 118 354 118 424 118 c 1
 382 195 523 197 560 116 c 0
 578 77 591 30 547 10 c 0
 538 5 522 0 493 1 c 0
 461 1 464 1 380 1 c 0
 351 1 245 1 200 1 c 0
 32 1 -91 282 125 270 c 0x8f
 144 269 213 224 185 195 c 0
 152 160 83 121 200 118 c 0x57
 205 118 256 118 256 118 c 1
 256 661 l 1
 256 661 226 659 157 659 c 1x67
 199 583 58 581 21 662 c 0
 3 701 -2 734 34 768 c 0
 39 772 53 775 81 776 c 0x4f
 100 776 169 776 256 776 c 0
 284 776 335 776 380 775 c 0x57
 549 775 672 496 456 508 c 0
 436 509 368 554 395 583 c 0
 429 618 497 656 380 659 c 0x8f
 372 659 322 661 322 661 c 1x67
 322 597 322 190 322 118 c 1xa7
363 854 m 1
 318 800 150 852 188 938 c 0
 208 985 253 990 280 964 c 0
 302 942 274 895 280 883 c 0
 297 848 344 885 363 854 c 1
EndSplineSet
Validated: 33
Layer: 2
EndChar

StartChar: Oacute
Encoding: 211 211 223
Width: 590
Flags: MW
HStem: -1 20
VStem: 174 229
LayerCount: 3
Back
Fore
SplineSet
16 279 m 0
 -30 487 54 708 203 772 c 0
 351 836 509 718 554 509 c 0
 599 301 516 80 367 16 c 0
 218 -48 61 70 16 279 c 0
174 359 m 0
 183 175 215 71 279 60 c 0
 347 48 412 208 403 392 c 0
 394 576 353 720 282 720 c 0
 222 720 165 543 174 359 c 0
170 834 m 0
 180 872 214 865 242 886 c 0
 285 917 298 984 349 970 c 0
 374 963 386 949 402 928 c 0
 460 850 157 783 170 834 c 0
EndSplineSet
Validated: 33
Layer: 2
EndChar

StartChar: Ocircumflex
Encoding: 212 212 224
Width: 592
Flags: MW
HStem: -1 20
VStem: 174 229
LayerCount: 3
Back
Fore
SplineSet
16 279 m 0
 -30 487 54 708 203 772 c 0
 351 836 509 718 554 509 c 0
 599 301 516 80 367 16 c 0
 218 -48 61 70 16 279 c 0
174 359 m 0
 183 175 215 71 279 60 c 0
 347 48 412 208 403 392 c 0
 394 576 353 720 282 720 c 0
 222 720 165 543 174 359 c 0
294 897 m 1
 220 806 l 2
 198 779 156 824 183 846 c 2
 286 927 l 2
 292 931 298 931 304 926 c 2
 304 926 381 863 406 842 c 0
 433 820 388 778 367 806 c 2
 294 897 l 1
EndSplineSet
Validated: 33
Layer: 2
EndChar

StartChar: apple
Encoding: 300 63743 225
Width: 955
Flags: MW
HStem: 20 45<869.5 875.5> 95 45<433 463.5 425.5 472.5> 99 38<192.5 200.5 192.5 201.5> 224 46<522.5 525 521 533> 236 46<696 757 645 676 817 823 817 817> 291 45<13 142 13 147 193 336 13 188> 366 45<731 768 731 768> 377 45<134 152> 385 45<406 465 366 486 406 406> 461 44
VStem: 101 45<468.5 480.5> 137 45 149 48 229 44<176.5 186.5> 339 45<170 186.5 170 186.5> 483 46<475.5 489> 532 44<198.5 209.5> 660 45<421 433.5> 710 47 817 41 901 45<96.5 108.5>
LayerCount: 3
Back
Fore
SplineSet
147 336 m 1x024020
 152 377 l 1
 44 377 l 1
 65 402 78 417 82 423 c 0
 95 442 101 460 101 477 c 0
 101 484 100 492 98 500 c 1
 141 513 l 1
 144 502 146 490 146 478 c 0
 146 459 142 440 134 422 c 1
 202 422 l 1
 193 336 l 1
 336 336 l 1
 336 291 l 1
 188 291 l 1
 176 189 l 2
 175 179 175 168 178 157 c 0
 182 144 188 137 197 137 c 0
 204 137 213 143 222 156 c 0
 227 162 229 171 229 182 c 0
 229 191 225 195 217 193 c 1
 206 237 l 1
 212 238 218 239 223 239 c 0
 239 239 251 233 260 221 c 0
 269 210 273 195 273 178 c 0
 273 160 269 144 259 130 c 0
 245 109 219 99 184 99 c 0
 146 99 127 119 127 160 c 0
 127 171 129 183 132 196 c 2x8a4058
 142 291 l 1
 13 291 l 1
 13 336 l 1
 147 336 l 1x024020
480 507 m 1
 523 521 l 1
 527 509 529 497 529 485 c 0
 529 451 515 418 486 385 c 1
 406 385 l 1
 385 196 l 2
 385 192 384 188 384 185 c 0
 384 155 405 140 446 140 c 0x2414
 481 140 507 152 524 175 c 0
 529 182 532 192 532 205 c 0
 532 214 530 221 525 224 c 0x0408
 524 225 522 225 521 224 c 2
 511 268 l 1
 516 269 520 270 525 270 c 0
 541 270 553 263 562 250 c 0
 571 237 576 221 576 202 c 0x0a4040
 576 181 570 164 560 150 c 0x004020
 534 114 497 95 448 95 c 0
 418 95 392 103 371 119 c 0x024040
 350 135 339 156 339 183 c 0
 339 190 340 197 341 204 c 2x0a0030
 366 430 l 1
 465 430 l 1
 477 447 483 466 483 485 c 0
 483 493 482 500 480 507 c 1
448 238 m 1
 449 237 l 1
 427 198 l 1
 410 207 402 220 402 236 c 0
 402 257 419 283 455 310 c 0
 481 330 508 347 535 366 c 0
 541 370 545 373 546 374 c 2
 579 344 l 1
 574 339 561 328 538 313 c 0
 516 299 500 287 489 279 c 0
 465 261 451 247 448 238 c 1
705 421 m 2
 709 430 l 2x0120
 712 445 713 455 710 459 c 0
 709 460 705 460 698 461 c 1x0508
 703 446 706 432 705 421 c 2
750 411 m 1
 768 411 l 1
 804 282 l 1
 823 282 l 1
 814 311 815 337 826 360 c 1
 866 343 l 1
 855 320 855 299 864 279 c 2
 884 236 l 1
 817 236 l 1
 851 114 l 1x0081
 848 104 849 93 854 82 c 0
 859 71 865 65 874 65 c 0
 879 65 885 68 891 73 c 0
 898 79 901 89 901 104 c 0
 901 113 898 116 891 115 c 1
 880 158 l 1
 886 160 892 161 898 161 c 0
 930 161 946 141 946 101 c 0
 946 81 941 65 932 52 c 0
 917 31 893 20 858 20 c 0
 820 20 801 41 801 82 c 0
 801 91 802 102 804 113 c 1
 771 236 l 1x508280
 676 236 l 1
 619 103 l 1
 578 121 l 1
 633 256 l 1
 633 281 l 1
 645 282 l 1
 681 366 l 1
 618 366 l 1x4083
 646 398 660 420 660 431 c 0x0108
 660 436 657 445 653 457 c 0
 645 478 641 492 638 500 c 1
 665 503 683 505 694 505 c 0
 736 505 757 487 757 451 c 0
 757 441 755 429 752 416 c 2
 750 411 l 1
731 366 m 1
 696 282 l 1
 757 282 l 1
 734 366 l 1
 731 366 l 1
EndSplineSet
Validated: 33
Layer: 2
EndChar

StartChar: Ograve
Encoding: 210 210 226
Width: 592
Flags: MW
HStem: -1 20
VStem: 174 229
LayerCount: 3
Back
Fore
SplineSet
16 279 m 0
 -30 487 54 708 203 772 c 0
 351 836 509 718 554 509 c 0
 599 301 516 80 367 16 c 0
 218 -48 61 70 16 279 c 0
174 359 m 0
 183 175 215 71 279 60 c 0
 347 48 412 208 403 392 c 0
 394 576 353 720 282 720 c 0
 222 720 165 543 174 359 c 0
407 872 m 1
 362 818 194 870 232 956 c 0
 252 1003 297 1008 324 982 c 0
 346 960 318 913 324 901 c 0
 341 866 388 903 407 872 c 1
EndSplineSet
Validated: 33
Layer: 2
EndChar

StartChar: Uacute
Encoding: 218 218 227
Width: 549
Flags: MW
HStem: -10 20 749 20G
VStem: 149 223<81.5 229.5> 151 221
LayerCount: 3
Back
Fore
SplineSet
339 123 m 0xe0
 350 133 372 171 372 207 c 0
 372 252 374 522 374 622 c 1
 299 578 234 691 309 748 c 0
 344 774 394 782 416 738 c 0
 426 720 439 435 420 210 c 1
 535 258 574 119 519 43 c 0
 493 8 413 8 378 44 c 1
 290 -65 33 -5 35 195 c 0
 35 240 34 506 34 535 c 0
 34 622 36 661 36 680 c 0
 37 708 53 734 58 738 c 0
 92 774 127 774 166 756 c 0
 247 719 225 598 151 612 c 1xd0
 151 542 149 147 149 123 c 0
 149 40 304 89 339 123 c 0xe0
115 838 m 0
 125 876 159 869 187 890 c 0
 230 921 243 988 294 974 c 0
 319 967 331 953 347 932 c 0
 405 854 102 787 115 838 c 0
EndSplineSet
Validated: 33
Layer: 2
EndChar

StartChar: Ucircumflex
Encoding: 219 219 228
Width: 549
Flags: MW
HStem: -10 20 749 20G
VStem: 149 223<81.5 229.5> 151 221
LayerCount: 3
Back
Fore
SplineSet
339 123 m 0xe0
 350 133 372 171 372 207 c 0
 372 252 374 522 374 622 c 1
 299 578 234 691 309 748 c 0
 344 774 394 782 416 738 c 0
 426 720 439 435 420 210 c 1
 535 258 574 119 519 43 c 0
 493 8 413 8 378 44 c 1
 290 -65 33 -5 35 195 c 0
 35 240 34 506 34 535 c 0
 34 622 36 661 36 680 c 0
 37 708 53 734 58 738 c 0
 92 774 127 774 166 756 c 0
 247 719 225 598 151 612 c 1xd0
 151 542 149 147 149 123 c 0
 149 40 304 89 339 123 c 0xe0
252 901 m 1
 178 810 l 2
 156 783 114 828 141 850 c 2
 244 931 l 2
 250 935 256 935 262 930 c 2
 262 930 339 867 364 846 c 0
 391 824 346 782 325 810 c 2
 252 901 l 1
EndSplineSet
Validated: 33
Layer: 2
EndChar

StartChar: Ugrave
Encoding: 217 217 229
Width: 549
Flags: MW
HStem: -10 20 749 20G
VStem: 149 223<81.5 229.5> 151 221
LayerCount: 3
Back
Fore
SplineSet
339 123 m 0xe0
 350 133 372 171 372 207 c 0
 372 252 374 522 374 622 c 1
 299 578 234 691 309 748 c 0
 344 774 394 782 416 738 c 0
 426 720 439 435 420 210 c 1
 535 258 574 119 519 43 c 0
 493 8 413 8 378 44 c 1
 290 -65 33 -5 35 195 c 0
 35 240 34 506 34 535 c 0
 34 622 36 661 36 680 c 0
 37 708 53 734 58 738 c 0
 92 774 127 774 166 756 c 0
 247 719 225 598 151 612 c 1xd0
 151 542 149 147 149 123 c 0
 149 40 304 89 339 123 c 0xe0
332 840 m 1
 287 786 119 838 157 924 c 0
 177 971 222 976 249 950 c 0
 271 928 243 881 249 869 c 0
 266 834 313 871 332 840 c 1
EndSplineSet
Validated: 33
Layer: 2
EndChar

StartChar: dotlessi
Encoding: 301 305 230
Width: 242
Flags: MW
HStem: -22 20 36 279
LayerCount: 3
Back
Fore
SplineSet
56 36 m 2
 121 36 l 1
 123 103 127 239 127 325 c 1
 52 280 -7 387 68 444 c 0
 103 470 153 478 175 435 c 0
 186 413 170 180 155 36 c 1
 220 36 l 2
 244 37 245 0 221 0 c 2
 150 0 l 1
 142 -32 123 -25 120 0 c 1
 56 0 l 2
 33 0 33 36 56 36 c 2
EndSplineSet
Validated: 33
Layer: 2
EndChar

StartChar: circumflex
Encoding: 302 710 231
Width: 296
Flags: MW
HStem: 562 33 575 20G
VStem: 56 240
LayerCount: 3
Back
Fore
SplineSet
176 562 m 1xa0
 102 471 l 2
 80 444 38 489 65 511 c 2
 168 592 l 2
 174 596 180 596 186 591 c 2
 186 591 263 528 288 507 c 0
 315 485 270 443 249 471 c 2
 176 562 l 1xa0
EndSplineSet
Validated: 33
Layer: 2
EndChar

StartChar: tilde
Encoding: 303 732 232
Width: 285
Flags: MW
HStem: 542 24 623 24
VStem: 24 237
LayerCount: 3
Back
Fore
SplineSet
112 623 m 1
 67 621 103 563 80 551 c 0
 49 529 9 562 28 590 c 0
 36 602 57 621 75 637 c 1
 138 675 139 595 171 566 c 1
 216 568 183 620 202 637 c 0
 232 665 287 612 247 584 c 2
 207 552 l 1
 144 514 144 594 112 623 c 1
EndSplineSet
Validated: 33
Layer: 2
EndChar

StartChar: macron
Encoding: 175 175 233
Width: 252
Flags: MW
HStem: 571 20G<59 59>
VStem: 54 169
LayerCount: 3
Back
Fore
SplineSet
59 591 m 2
 205 610 l 2
 229 613 228 556 207 557 c 2
 60 567 l 2
 52 568 52 590 59 591 c 2
EndSplineSet
Validated: 33
Layer: 2
EndChar

StartChar: breve
Encoding: 304 728 234
Width: 288
Flags: MW
HStem: 577 25
VStem: 80 184
LayerCount: 3
Back
Fore
SplineSet
116 655 m 0
 131 636 135 625 143 615 c 0
 159 594 188 601 200 615 c 0
 209 624 207 629 228 655 c 0
 244 676 278 644 258 627 c 0
 238 611 192 580 192 580 c 2
 187 576 162 577 157 580 c 2
 91 618 l 2
 62 632 100 675 116 655 c 0
EndSplineSet
Validated: 33
Layer: 2
EndChar

StartChar: dotaccent
Encoding: 305 729 235
Width: 151
Flags: MW
HStem: 512 101<56 84>
VStem: 19 101<549 577>
LayerCount: 3
Back
Fore
SplineSet
19 563 m 0
 19 591 42 613 70 613 c 0
 98 613 120 591 120 563 c 0
 120 535 98 512 70 512 c 0
 42 512 19 535 19 563 c 0
EndSplineSet
Validated: 1
Layer: 2
EndChar

StartChar: ring
Encoding: 306 730 236
Width: 279
Flags: MW
HStem: 378 50<165.5 186.5 165.5 187.5> 505 29<165.5 186.5>
VStem: 89 48<455.5 477 455.5 477.5> 215 29<455.5 477>
LayerCount: 3
Back
Fore
SplineSet
244 456 m 0
 244 413 209 378 166 378 c 0
 123 378 89 413 89 456 c 0
 89 499 123 534 166 534 c 0
 209 534 244 499 244 456 c 0
215 466 m 0
 215 488 197 505 176 505 c 0
 155 505 137 488 137 466 c 0
 137 445 155 428 176 428 c 0
 197 428 215 445 215 466 c 0
EndSplineSet
Validated: 1
Layer: 2
EndChar

StartChar: hungarumlaut
Encoding: 307 733 237
Width: 302
Flags: MW
HStem: 519 129
VStem: 9 265
LayerCount: 3
Back
Fore
SplineSet
37 529 m 2
 22 518 0 519 13 530 c 2
 126 627 l 2
 160 656 211 655 171 626 c 2
 37 529 l 2
125 527 m 2
 109 516 87 517 101 528 c 2
 214 625 l 2
 248 654 299 652 259 624 c 2
 125 527 l 2
EndSplineSet
Validated: 33
Layer: 2
EndChar

StartChar: ogonek
Encoding: 308 731 238
Width: 126
Flags: MW
HStem: -171 84 -54 75<74 126>
VStem: 114 21
LayerCount: 3
Back
Fore
SplineSet
34 -43 m 1
 83 21 l 1
 126 21 l 1
 100 -5 89 -28 89 -34 c 1
 123 -43 175 -126 83 -167 c 0
 22 -192 15 -105 54 -92 c 0
 71 -86 89 -80 103 -115 c 1
 124 -106 115 -60 74 -54 c 1
 34 -43 l 1
EndSplineSet
Validated: 33
Layer: 2
EndChar

StartChar: caron
Encoding: 309 711 239
Width: 284
Flags: MW
HStem: 566 20G<173 173>
VStem: 82 182
LayerCount: 3
Back
Fore
SplineSet
116 655 m 2
 173 586 l 1
 228 655 l 2
 244 676 278 644 258 627 c 0
 238 611 180 564 180 563 c 0
 176 560 171 560 166 563 c 2
 89 625 l 2
 68 641 100 675 116 655 c 2
EndSplineSet
Validated: 33
Layer: 2
EndChar

StartChar: Eth
Encoding: 208 208 240
Width: 595
Flags: MW
HStem: -10 58 710 61
VStem: 6 157 382 193
LayerCount: 3
Back
Fore
SplineSet
561 266 m 0
 510 60 331 -56 162 7 c 0
 144 14 128 21 113 29 c 1
 108 18 103 9 97 0 c 1
 97 0 67 0 60 0 c 1
 67 14 73 32 78 51 c 1
 27 91 19 134 12 164 c 0
 -18 287 66 319 105 254 c 1
 108 301 109 349 109 395 c 1
 19 348 l 2
 -2 337 -18 366 2 378 c 2
 106 445 l 1
 106 538 104 616 104 657 c 1
 29 612 -28 718 48 775 c 0
 82 801 132 810 154 766 c 0
 155 764 156 758 157 748 c 1
 217 777 285 780 349 754 c 0
 517 685 613 472 561 266 c 0
382 346 m 0
 392 527 326 710 259 710 c 0
 202 710 173 700 157 663 c 1
 159 617 163 547 163 481 c 1
 267 546 l 2
 286 558 317 504 297 494 c 2
 162 425 l 1
 162 375 163 332 163 309 c 0
 164 241 156 171 142 111 c 1
 168 49 214 48 263 48 c 0
 337 48 371 164 382 346 c 0
EndSplineSet
Validated: 33
Layer: 2
EndChar
